G04 #@! TF.FileFunction,Soldermask,Top*
%FSLAX46Y46*%
G04 Gerber Fmt 4.6, Leading zero omitted, Abs format (unit mm)*
G04 Created by KiCad (PCBNEW 4.0.7-e2-6376~58~ubuntu16.04.1) date Wed Jun  6 08:16:23 2018*
%MOMM*%
%LPD*%
G01*
G04 APERTURE LIST*
%ADD10C,0.100000*%
%ADD11C,2.100000*%
%ADD12R,2.100000X2.100000*%
%ADD13R,1.600000X1.600000*%
%ADD14C,1.600000*%
%ADD15R,1.700000X1.700000*%
%ADD16C,1.700000*%
%ADD17R,2.300000X2.400000*%
%ADD18C,2.300000*%
%ADD19C,2.398980*%
%ADD20R,2.398980X2.398980*%
%ADD21R,3.900120X3.900120*%
%ADD22C,3.194000*%
%ADD23C,2.940000*%
%ADD24C,4.210000*%
%ADD25C,2.400000*%
%ADD26C,2.840000*%
%ADD27O,1.906220X3.414980*%
%ADD28C,1.924000*%
%ADD29O,1.299160X1.901140*%
%ADD30R,1.543000X0.908000*%
%ADD31O,2.000000X2.000000*%
%ADD32C,1.901140*%
%ADD33R,2.000000X2.000000*%
%ADD34C,2.000000*%
%ADD35C,3.200000*%
%ADD36C,6.900000*%
%ADD37C,3.400000*%
%ADD38C,8.000000*%
%ADD39C,1.400000*%
%ADD40C,24.400000*%
%ADD41C,3.900000*%
%ADD42C,10.500000*%
%ADD43C,0.254000*%
G04 APERTURE END LIST*
D10*
D11*
X103750000Y-49750000D03*
D12*
X108750000Y-49750000D03*
D13*
X104700000Y-58050000D03*
D14*
X102200000Y-58050000D03*
D15*
X110125000Y-76375000D03*
D16*
X108125000Y-76375000D03*
D13*
X114375000Y-79375000D03*
D14*
X116875000Y-79375000D03*
D16*
X116875000Y-74125000D03*
D15*
X114375000Y-74125000D03*
D16*
X106250000Y-94000000D03*
D15*
X108750000Y-94000000D03*
X98500000Y-87500000D03*
D16*
X103500000Y-87500000D03*
D13*
X53500000Y-85750000D03*
D14*
X56000000Y-85750000D03*
D13*
X63500000Y-74500000D03*
D14*
X66000000Y-74500000D03*
D13*
X95250000Y-60750000D03*
D14*
X97750000Y-60750000D03*
D13*
X85500000Y-72000000D03*
D14*
X85500000Y-74500000D03*
D15*
X52500000Y-56000000D03*
D16*
X47500000Y-56000000D03*
D15*
X60500000Y-56000000D03*
D16*
X65500000Y-56000000D03*
D15*
X54000000Y-61250000D03*
D16*
X59000000Y-61250000D03*
D17*
X124500000Y-138500000D03*
D18*
X121960000Y-138500000D03*
D19*
X102602540Y-71210000D03*
D20*
X102602540Y-61050000D03*
D19*
X116060000Y-69147460D03*
D20*
X105900000Y-69147460D03*
D19*
X114127540Y-92535000D03*
D20*
X114127540Y-82375000D03*
D21*
X112500000Y-40450140D03*
X112500000Y-34450660D03*
X107801000Y-37450400D03*
D22*
X60564000Y-51600000D03*
X52436000Y-51600000D03*
D23*
X56500000Y-56680000D03*
D22*
X56500000Y-51600000D03*
D24*
X56500000Y-46520000D03*
D25*
X87810000Y-47710000D03*
X90350000Y-35010000D03*
D26*
X80190000Y-37550000D03*
X87810000Y-37550000D03*
D25*
X80190000Y-42630000D03*
D26*
X84000000Y-50250000D03*
D25*
X84000000Y-35010000D03*
X77650000Y-47710000D03*
D27*
X81460000Y-135000000D03*
X84000000Y-135000000D03*
X86540000Y-135000000D03*
D28*
X108835000Y-87375000D03*
X106295000Y-87375000D03*
X111375000Y-87375000D03*
D19*
X122250000Y-133500000D03*
X122250000Y-123340000D03*
X105900000Y-66250000D03*
X116060000Y-66250000D03*
X117125000Y-92625000D03*
X117125000Y-82465000D03*
X59500000Y-66750000D03*
X69660000Y-66750000D03*
X47000000Y-76750000D03*
X47000000Y-86910000D03*
X53500000Y-70000000D03*
X63660000Y-70000000D03*
X65000000Y-79750000D03*
X65000000Y-89910000D03*
X50250000Y-76750000D03*
X50250000Y-86910000D03*
X68500000Y-90000000D03*
X68500000Y-79840000D03*
X60500000Y-93750000D03*
X50340000Y-93750000D03*
X82000000Y-66000000D03*
X82000000Y-76160000D03*
X78500000Y-60750000D03*
X78500000Y-70910000D03*
X94500000Y-43250000D03*
X94500000Y-33090000D03*
D28*
X106710000Y-82000000D03*
X104170000Y-82000000D03*
X109250000Y-82000000D03*
D29*
X107230000Y-61850000D03*
X105960000Y-61850000D03*
X108500000Y-61850000D03*
D30*
X95425000Y-86345000D03*
X95425000Y-87615000D03*
X95425000Y-88885000D03*
X95425000Y-90155000D03*
X89075000Y-90155000D03*
X89075000Y-88885000D03*
X89075000Y-87615000D03*
X89075000Y-86345000D03*
D31*
X61000000Y-82000000D03*
X61000000Y-79460000D03*
X61000000Y-76920000D03*
X61000000Y-74380000D03*
X53380000Y-74380000D03*
X53380000Y-76920000D03*
X53380000Y-79460000D03*
X53380000Y-82000000D03*
X85250000Y-60750000D03*
X85250000Y-63290000D03*
X85250000Y-65830000D03*
X85250000Y-68370000D03*
X92870000Y-68370000D03*
X92870000Y-65830000D03*
X92870000Y-63290000D03*
X92870000Y-60750000D03*
D32*
X112000000Y-61950000D03*
X101900000Y-40650000D03*
X84250000Y-92500000D03*
X97900000Y-64850000D03*
D16*
X84250000Y-86500000D03*
D15*
X84250000Y-89000000D03*
D16*
X91600000Y-81650000D03*
D15*
X89100000Y-81650000D03*
D33*
X72000000Y-47750000D03*
D34*
X72000000Y-62750000D03*
D35*
X112500000Y-127130000D03*
X109960000Y-147450000D03*
X115040000Y-147450000D03*
X112500000Y-134750000D03*
X112500000Y-130940000D03*
D25*
X89000000Y-146750000D03*
X84000000Y-146750000D03*
X79000000Y-146750000D03*
D36*
X216000000Y-75500000D03*
D37*
X180000000Y-69750000D03*
D38*
X187500000Y-69750000D03*
D39*
X227000000Y-75750000D03*
D40*
X215000000Y-124500000D03*
D41*
X205500000Y-112500000D03*
X224500000Y-136500000D03*
D42*
X187500000Y-127350000D03*
D43*
G36*
X188573692Y-64224700D02*
X189556603Y-64519573D01*
X190239255Y-64812138D01*
X190826616Y-65203712D01*
X191216576Y-65496182D01*
X191705230Y-65984836D01*
X192092425Y-66468829D01*
X192879415Y-68042810D01*
X193074536Y-68920852D01*
X193171996Y-69797998D01*
X193074774Y-70478553D01*
X192976475Y-70970050D01*
X192780095Y-71657377D01*
X192487123Y-72340980D01*
X191997707Y-73124046D01*
X191313172Y-73906371D01*
X190532960Y-74491530D01*
X189553009Y-74981505D01*
X188575759Y-75274680D01*
X187500578Y-75372424D01*
X186518817Y-75274248D01*
X186034349Y-75177354D01*
X184955970Y-74785217D01*
X184174648Y-74296890D01*
X183589495Y-73809262D01*
X183001412Y-73123166D01*
X182611369Y-72538102D01*
X182121101Y-71459511D01*
X181925464Y-70579148D01*
X181827879Y-69700875D01*
X181925275Y-68921705D01*
X182121218Y-68039961D01*
X182511666Y-67161453D01*
X183101412Y-66276834D01*
X183685982Y-65594835D01*
X184665165Y-64909408D01*
X185446991Y-64518495D01*
X186428801Y-64223952D01*
X187010511Y-64127000D01*
X187792096Y-64127000D01*
X188573692Y-64224700D01*
X188573692Y-64224700D01*
G37*
X188573692Y-64224700D02*
X189556603Y-64519573D01*
X190239255Y-64812138D01*
X190826616Y-65203712D01*
X191216576Y-65496182D01*
X191705230Y-65984836D01*
X192092425Y-66468829D01*
X192879415Y-68042810D01*
X193074536Y-68920852D01*
X193171996Y-69797998D01*
X193074774Y-70478553D01*
X192976475Y-70970050D01*
X192780095Y-71657377D01*
X192487123Y-72340980D01*
X191997707Y-73124046D01*
X191313172Y-73906371D01*
X190532960Y-74491530D01*
X189553009Y-74981505D01*
X188575759Y-75274680D01*
X187500578Y-75372424D01*
X186518817Y-75274248D01*
X186034349Y-75177354D01*
X184955970Y-74785217D01*
X184174648Y-74296890D01*
X183589495Y-73809262D01*
X183001412Y-73123166D01*
X182611369Y-72538102D01*
X182121101Y-71459511D01*
X181925464Y-70579148D01*
X181827879Y-69700875D01*
X181925275Y-68921705D01*
X182121218Y-68039961D01*
X182511666Y-67161453D01*
X183101412Y-66276834D01*
X183685982Y-65594835D01*
X184665165Y-64909408D01*
X185446991Y-64518495D01*
X186428801Y-64223952D01*
X187010511Y-64127000D01*
X187792096Y-64127000D01*
X188573692Y-64224700D01*
M02*
