G04 #@! TF.FileFunction,Legend,Bot*
%FSLAX46Y46*%
G04 Gerber Fmt 4.6, Leading zero omitted, Abs format (unit mm)*
G04 Created by KiCad (PCBNEW 4.0.7-e2-6376~58~ubuntu16.04.1) date Wed Jun  6 08:16:23 2018*
%MOMM*%
%LPD*%
G01*
G04 APERTURE LIST*
%ADD10C,0.100000*%
%ADD11C,0.300000*%
%ADD12C,0.150000*%
G04 APERTURE END LIST*
D10*
D11*
X161357143Y-49903571D02*
X160857143Y-51403571D01*
X160357143Y-49903571D01*
X159071429Y-51403571D02*
X159928572Y-51403571D01*
X159500000Y-51403571D02*
X159500000Y-49903571D01*
X159642857Y-50117857D01*
X159785715Y-50260714D01*
X159928572Y-50332143D01*
X160714286Y-52453571D02*
X160714286Y-53525000D01*
X160785714Y-53739286D01*
X160928571Y-53882143D01*
X161142857Y-53953571D01*
X161285714Y-53953571D01*
X159357143Y-52953571D02*
X159357143Y-53953571D01*
X160000000Y-52953571D02*
X160000000Y-53739286D01*
X159928572Y-53882143D01*
X159785714Y-53953571D01*
X159571429Y-53953571D01*
X159428572Y-53882143D01*
X159357143Y-53810714D01*
X158642857Y-52953571D02*
X158642857Y-53953571D01*
X158642857Y-53096429D02*
X158571429Y-53025000D01*
X158428571Y-52953571D01*
X158214286Y-52953571D01*
X158071429Y-53025000D01*
X158000000Y-53167857D01*
X158000000Y-53953571D01*
X156714286Y-53882143D02*
X156857143Y-53953571D01*
X157142857Y-53953571D01*
X157285714Y-53882143D01*
X157357143Y-53739286D01*
X157357143Y-53167857D01*
X157285714Y-53025000D01*
X157142857Y-52953571D01*
X156857143Y-52953571D01*
X156714286Y-53025000D01*
X156642857Y-53167857D01*
X156642857Y-53310714D01*
X157357143Y-53453571D01*
X154071429Y-53953571D02*
X154928572Y-53953571D01*
X154500000Y-53953571D02*
X154500000Y-52453571D01*
X154642857Y-52667857D01*
X154785715Y-52810714D01*
X154928572Y-52882143D01*
X152357144Y-52596429D02*
X152285715Y-52525000D01*
X152142858Y-52453571D01*
X151785715Y-52453571D01*
X151642858Y-52525000D01*
X151571429Y-52596429D01*
X151500001Y-52739286D01*
X151500001Y-52882143D01*
X151571429Y-53096429D01*
X152428572Y-53953571D01*
X151500001Y-53953571D01*
X150571430Y-52453571D02*
X150428573Y-52453571D01*
X150285716Y-52525000D01*
X150214287Y-52596429D01*
X150142858Y-52739286D01*
X150071430Y-53025000D01*
X150071430Y-53382143D01*
X150142858Y-53667857D01*
X150214287Y-53810714D01*
X150285716Y-53882143D01*
X150428573Y-53953571D01*
X150571430Y-53953571D01*
X150714287Y-53882143D01*
X150785716Y-53810714D01*
X150857144Y-53667857D01*
X150928573Y-53382143D01*
X150928573Y-53025000D01*
X150857144Y-52739286D01*
X150785716Y-52596429D01*
X150714287Y-52525000D01*
X150571430Y-52453571D01*
X148642859Y-53953571D02*
X149500002Y-53953571D01*
X149071430Y-53953571D02*
X149071430Y-52453571D01*
X149214287Y-52667857D01*
X149357145Y-52810714D01*
X149500002Y-52882143D01*
X147785716Y-53096429D02*
X147928574Y-53025000D01*
X148000002Y-52953571D01*
X148071431Y-52810714D01*
X148071431Y-52739286D01*
X148000002Y-52596429D01*
X147928574Y-52525000D01*
X147785716Y-52453571D01*
X147500002Y-52453571D01*
X147357145Y-52525000D01*
X147285716Y-52596429D01*
X147214288Y-52739286D01*
X147214288Y-52810714D01*
X147285716Y-52953571D01*
X147357145Y-53025000D01*
X147500002Y-53096429D01*
X147785716Y-53096429D01*
X147928574Y-53167857D01*
X148000002Y-53239286D01*
X148071431Y-53382143D01*
X148071431Y-53667857D01*
X148000002Y-53810714D01*
X147928574Y-53882143D01*
X147785716Y-53953571D01*
X147500002Y-53953571D01*
X147357145Y-53882143D01*
X147285716Y-53810714D01*
X147214288Y-53667857D01*
X147214288Y-53382143D01*
X147285716Y-53239286D01*
X147357145Y-53167857D01*
X147500002Y-53096429D01*
X161857143Y-104903571D02*
X161357143Y-106403571D01*
X160857143Y-104903571D01*
X159571429Y-106403571D02*
X160428572Y-106403571D01*
X160000000Y-106403571D02*
X160000000Y-104903571D01*
X160142857Y-105117857D01*
X160285715Y-105260714D01*
X160428572Y-105332143D01*
X161214286Y-107453571D02*
X161214286Y-108525000D01*
X161285714Y-108739286D01*
X161428571Y-108882143D01*
X161642857Y-108953571D01*
X161785714Y-108953571D01*
X159857143Y-107953571D02*
X159857143Y-108953571D01*
X160500000Y-107953571D02*
X160500000Y-108739286D01*
X160428572Y-108882143D01*
X160285714Y-108953571D01*
X160071429Y-108953571D01*
X159928572Y-108882143D01*
X159857143Y-108810714D01*
X159142857Y-107953571D02*
X159142857Y-108953571D01*
X159142857Y-108096429D02*
X159071429Y-108025000D01*
X158928571Y-107953571D01*
X158714286Y-107953571D01*
X158571429Y-108025000D01*
X158500000Y-108167857D01*
X158500000Y-108953571D01*
X157214286Y-108882143D02*
X157357143Y-108953571D01*
X157642857Y-108953571D01*
X157785714Y-108882143D01*
X157857143Y-108739286D01*
X157857143Y-108167857D01*
X157785714Y-108025000D01*
X157642857Y-107953571D01*
X157357143Y-107953571D01*
X157214286Y-108025000D01*
X157142857Y-108167857D01*
X157142857Y-108310714D01*
X157857143Y-108453571D01*
X154571429Y-108953571D02*
X155428572Y-108953571D01*
X155000000Y-108953571D02*
X155000000Y-107453571D01*
X155142857Y-107667857D01*
X155285715Y-107810714D01*
X155428572Y-107882143D01*
X152857144Y-107596429D02*
X152785715Y-107525000D01*
X152642858Y-107453571D01*
X152285715Y-107453571D01*
X152142858Y-107525000D01*
X152071429Y-107596429D01*
X152000001Y-107739286D01*
X152000001Y-107882143D01*
X152071429Y-108096429D01*
X152928572Y-108953571D01*
X152000001Y-108953571D01*
X151071430Y-107453571D02*
X150928573Y-107453571D01*
X150785716Y-107525000D01*
X150714287Y-107596429D01*
X150642858Y-107739286D01*
X150571430Y-108025000D01*
X150571430Y-108382143D01*
X150642858Y-108667857D01*
X150714287Y-108810714D01*
X150785716Y-108882143D01*
X150928573Y-108953571D01*
X151071430Y-108953571D01*
X151214287Y-108882143D01*
X151285716Y-108810714D01*
X151357144Y-108667857D01*
X151428573Y-108382143D01*
X151428573Y-108025000D01*
X151357144Y-107739286D01*
X151285716Y-107596429D01*
X151214287Y-107525000D01*
X151071430Y-107453571D01*
X149142859Y-108953571D02*
X150000002Y-108953571D01*
X149571430Y-108953571D02*
X149571430Y-107453571D01*
X149714287Y-107667857D01*
X149857145Y-107810714D01*
X150000002Y-107882143D01*
X148285716Y-108096429D02*
X148428574Y-108025000D01*
X148500002Y-107953571D01*
X148571431Y-107810714D01*
X148571431Y-107739286D01*
X148500002Y-107596429D01*
X148428574Y-107525000D01*
X148285716Y-107453571D01*
X148000002Y-107453571D01*
X147857145Y-107525000D01*
X147785716Y-107596429D01*
X147714288Y-107739286D01*
X147714288Y-107810714D01*
X147785716Y-107953571D01*
X147857145Y-108025000D01*
X148000002Y-108096429D01*
X148285716Y-108096429D01*
X148428574Y-108167857D01*
X148500002Y-108239286D01*
X148571431Y-108382143D01*
X148571431Y-108667857D01*
X148500002Y-108810714D01*
X148428574Y-108882143D01*
X148285716Y-108953571D01*
X148000002Y-108953571D01*
X147857145Y-108882143D01*
X147785716Y-108810714D01*
X147714288Y-108667857D01*
X147714288Y-108382143D01*
X147785716Y-108239286D01*
X147857145Y-108167857D01*
X148000002Y-108096429D01*
D12*
X212050000Y-69000000D02*
X219950000Y-69000000D01*
X219950000Y-69000000D02*
X219950000Y-82000000D01*
X219950000Y-82000000D02*
X212050000Y-82000000D01*
X212050000Y-82000000D02*
X212050000Y-69000000D01*
X178000000Y-67750000D02*
X178000000Y-71750000D01*
X178000000Y-71750000D02*
X179750000Y-71750000D01*
X178000000Y-67750000D02*
X179750000Y-67750000D01*
X180000000Y-72500000D02*
X180000000Y-82250000D01*
X180000000Y-82250000D02*
X195000000Y-82250000D01*
X195000000Y-82250000D02*
X195000000Y-72750000D01*
X195500000Y-69750000D02*
G75*
G03X195500000Y-69750000I-8000000J0D01*
G01*
X226750000Y-137000000D02*
X228000000Y-137000000D01*
X202000000Y-137000000D02*
X222000000Y-137000000D01*
X202000000Y-109000000D02*
X228000000Y-109000000D01*
X228000000Y-109000000D02*
X228000000Y-140000000D01*
X228000000Y-140000000D02*
X202000000Y-140000000D01*
X202000000Y-140000000D02*
X202000000Y-109000000D01*
X179560000Y-137000000D02*
X179560000Y-120250000D01*
X179560000Y-120250000D02*
X195440000Y-120250000D01*
X195440000Y-120250000D02*
X195440000Y-137000000D01*
X195440000Y-137000000D02*
X179560000Y-137000000D01*
X154500000Y-137000000D02*
X154500000Y-126000000D01*
X154500000Y-126000000D02*
X163500000Y-126000000D01*
X163500000Y-126000000D02*
X163500000Y-137000000D01*
X154500000Y-137000000D02*
X163500000Y-137000000D01*
M02*
