G04 #@! TF.FileFunction,Copper,L1,Top,Signal*
%FSLAX46Y46*%
G04 Gerber Fmt 4.6, Leading zero omitted, Abs format (unit mm)*
G04 Created by KiCad (PCBNEW 4.0.7-e2-6376~58~ubuntu16.04.1) date Wed Jun  6 08:16:23 2018*
%MOMM*%
%LPD*%
G01*
G04 APERTURE LIST*
%ADD10C,0.100000*%
%ADD11C,1.700000*%
%ADD12R,1.700000X1.700000*%
%ADD13R,1.200000X1.200000*%
%ADD14C,1.200000*%
%ADD15R,1.300000X1.300000*%
%ADD16C,1.300000*%
%ADD17R,1.900000X2.000000*%
%ADD18C,1.900000*%
%ADD19C,1.998980*%
%ADD20R,1.998980X1.998980*%
%ADD21R,3.500120X3.500120*%
%ADD22C,2.794000*%
%ADD23C,2.540000*%
%ADD24C,3.810000*%
%ADD25C,2.000000*%
%ADD26O,1.506220X3.014980*%
%ADD27C,1.524000*%
%ADD28O,0.899160X1.501140*%
%ADD29R,1.143000X0.508000*%
%ADD30O,1.600000X1.600000*%
%ADD31C,1.501140*%
%ADD32R,1.600000X1.600000*%
%ADD33C,1.600000*%
%ADD34C,2.800000*%
%ADD35C,0.400000*%
%ADD36C,1.000000*%
%ADD37C,1.500000*%
%ADD38C,3.000000*%
%ADD39C,0.254000*%
G04 APERTURE END LIST*
D10*
D11*
X103750000Y-49750000D03*
D12*
X108750000Y-49750000D03*
D13*
X104700000Y-58050000D03*
D14*
X102200000Y-58050000D03*
D15*
X110125000Y-76375000D03*
D16*
X108125000Y-76375000D03*
D13*
X114375000Y-79375000D03*
D14*
X116875000Y-79375000D03*
D16*
X116875000Y-74125000D03*
D15*
X114375000Y-74125000D03*
D16*
X106250000Y-94000000D03*
D15*
X108750000Y-94000000D03*
X98500000Y-87500000D03*
D16*
X103500000Y-87500000D03*
D13*
X53500000Y-85750000D03*
D14*
X56000000Y-85750000D03*
D13*
X63500000Y-74500000D03*
D14*
X66000000Y-74500000D03*
D13*
X95250000Y-60750000D03*
D14*
X97750000Y-60750000D03*
D13*
X85500000Y-72000000D03*
D14*
X85500000Y-74500000D03*
D15*
X52500000Y-56000000D03*
D16*
X47500000Y-56000000D03*
D15*
X60500000Y-56000000D03*
D16*
X65500000Y-56000000D03*
D15*
X54000000Y-61250000D03*
D16*
X59000000Y-61250000D03*
D17*
X124500000Y-138500000D03*
D18*
X121960000Y-138500000D03*
D19*
X102602540Y-71210000D03*
D20*
X102602540Y-61050000D03*
D19*
X116060000Y-69147460D03*
D20*
X105900000Y-69147460D03*
D19*
X114127540Y-92535000D03*
D20*
X114127540Y-82375000D03*
D21*
X112500000Y-40450140D03*
X112500000Y-34450660D03*
X107801000Y-37450400D03*
D22*
X60564000Y-51600000D03*
X52436000Y-51600000D03*
D23*
X56500000Y-56680000D03*
D22*
X56500000Y-51600000D03*
D24*
X56500000Y-46520000D03*
D25*
X87810000Y-47710000D03*
X90350000Y-35010000D03*
X80190000Y-42630000D03*
X84000000Y-35010000D03*
X77650000Y-47710000D03*
D26*
X81460000Y-135000000D03*
X84000000Y-135000000D03*
X86540000Y-135000000D03*
D27*
X108835000Y-87375000D03*
X106295000Y-87375000D03*
X111375000Y-87375000D03*
D19*
X122250000Y-133500000D03*
X122250000Y-123340000D03*
X105900000Y-66250000D03*
X116060000Y-66250000D03*
X117125000Y-92625000D03*
X117125000Y-82465000D03*
X59500000Y-66750000D03*
X69660000Y-66750000D03*
X47000000Y-76750000D03*
X47000000Y-86910000D03*
X53500000Y-70000000D03*
X63660000Y-70000000D03*
X65000000Y-79750000D03*
X65000000Y-89910000D03*
X50250000Y-76750000D03*
X50250000Y-86910000D03*
X68500000Y-90000000D03*
X68500000Y-79840000D03*
X60500000Y-93750000D03*
X50340000Y-93750000D03*
X82000000Y-66000000D03*
X82000000Y-76160000D03*
X78500000Y-60750000D03*
X78500000Y-70910000D03*
X94500000Y-43250000D03*
X94500000Y-33090000D03*
D27*
X106710000Y-82000000D03*
X104170000Y-82000000D03*
X109250000Y-82000000D03*
D28*
X107230000Y-61850000D03*
X105960000Y-61850000D03*
X108500000Y-61850000D03*
D29*
X95425000Y-86345000D03*
X95425000Y-87615000D03*
X95425000Y-88885000D03*
X95425000Y-90155000D03*
X89075000Y-90155000D03*
X89075000Y-88885000D03*
X89075000Y-87615000D03*
X89075000Y-86345000D03*
D30*
X61000000Y-82000000D03*
X61000000Y-79460000D03*
X61000000Y-76920000D03*
X61000000Y-74380000D03*
X53380000Y-74380000D03*
X53380000Y-76920000D03*
X53380000Y-79460000D03*
X53380000Y-82000000D03*
X85250000Y-60750000D03*
X85250000Y-63290000D03*
X85250000Y-65830000D03*
X85250000Y-68370000D03*
X92870000Y-68370000D03*
X92870000Y-65830000D03*
X92870000Y-63290000D03*
X92870000Y-60750000D03*
D31*
X112000000Y-61950000D03*
X101900000Y-40650000D03*
X84250000Y-92500000D03*
X97900000Y-64850000D03*
D16*
X84250000Y-86500000D03*
D15*
X84250000Y-89000000D03*
D16*
X91600000Y-81650000D03*
D15*
X89100000Y-81650000D03*
D32*
X72000000Y-47750000D03*
D33*
X72000000Y-62750000D03*
D34*
X112500000Y-127130000D03*
X109960000Y-147450000D03*
X115040000Y-147450000D03*
X112500000Y-134750000D03*
X112500000Y-130940000D03*
D25*
X89000000Y-146750000D03*
X84000000Y-146750000D03*
X79000000Y-146750000D03*
D35*
X135500000Y-57500000D03*
X134500000Y-57500000D03*
X135500000Y-56000000D03*
X134500000Y-56000000D03*
X134500000Y-56750000D03*
X135500000Y-56750000D03*
X135500000Y-81500000D03*
X134500000Y-81500000D03*
X134500000Y-80000000D03*
X135500000Y-80000000D03*
X135500000Y-80750000D03*
X134500000Y-80750000D03*
X214250000Y-96750000D03*
X214250000Y-95750000D03*
X215000000Y-95750000D03*
X215000000Y-96750000D03*
X215750000Y-96750000D03*
X215750000Y-95750000D03*
X160750000Y-95750000D03*
X160750000Y-96750000D03*
X160000000Y-96750000D03*
X160000000Y-95750000D03*
X159250000Y-96750000D03*
X159250000Y-95750000D03*
X134500000Y-135000000D03*
X134500000Y-135750000D03*
X134500000Y-136500000D03*
X135500000Y-135000000D03*
X135500000Y-135750000D03*
X135500000Y-136500000D03*
X134500000Y-111000000D03*
X135500000Y-111000000D03*
X135500000Y-111750000D03*
X134500000Y-111750000D03*
X134500000Y-112500000D03*
X135500000Y-112500000D03*
D36*
X105960000Y-61850000D02*
X103402540Y-61850000D01*
X103402540Y-61850000D02*
X102602540Y-61050000D01*
D37*
X104700000Y-58050000D02*
X104700000Y-58952540D01*
X104700000Y-58952540D02*
X102602540Y-61050000D01*
X108750000Y-49750000D02*
X104700000Y-53800000D01*
X104700000Y-53800000D02*
X104700000Y-58050000D01*
D38*
X112500000Y-134750000D02*
X111100000Y-134750000D01*
X111100000Y-134750000D02*
X108800000Y-132450000D01*
X116400000Y-49750000D02*
X108750000Y-49750000D01*
X121800000Y-55150000D02*
X116400000Y-49750000D01*
X121800000Y-111450000D02*
X121800000Y-55150000D01*
X108800000Y-124450000D02*
X121800000Y-111450000D01*
X108800000Y-132450000D02*
X108800000Y-124450000D01*
D37*
X112500000Y-134750000D02*
X116250000Y-138500000D01*
X116250000Y-138500000D02*
X121960000Y-138500000D01*
X110125000Y-76375000D02*
X110125000Y-79125000D01*
X109250000Y-80000000D02*
X109250000Y-82000000D01*
X110125000Y-79125000D02*
X109250000Y-80000000D01*
X117125000Y-82465000D02*
X117125000Y-84825000D01*
X114575000Y-87375000D02*
X111375000Y-87375000D01*
X117125000Y-84825000D02*
X114575000Y-87375000D01*
X111375000Y-87375000D02*
X111375000Y-84125000D01*
X111375000Y-84125000D02*
X109250000Y-82000000D01*
X116875000Y-79375000D02*
X117125000Y-79625000D01*
X117125000Y-79625000D02*
X117125000Y-82465000D01*
X116875000Y-74125000D02*
X116875000Y-79375000D01*
X116060000Y-69147460D02*
X116875000Y-69962460D01*
X116875000Y-69962460D02*
X116875000Y-74125000D01*
X112000000Y-61950000D02*
X112000000Y-62190000D01*
X112000000Y-62190000D02*
X116060000Y-66250000D01*
X116060000Y-66250000D02*
X116060000Y-69147460D01*
D36*
X108500000Y-61850000D02*
X111900000Y-61850000D01*
X111900000Y-61850000D02*
X112000000Y-61950000D01*
D37*
X84250000Y-89000000D02*
X84250000Y-92500000D01*
X105900000Y-69147460D02*
X105900000Y-66250000D01*
X53500000Y-85750000D02*
X53500000Y-82120000D01*
X53500000Y-82120000D02*
X53380000Y-82000000D01*
D36*
X92250000Y-88750000D02*
X92115000Y-88885000D01*
D37*
X93500000Y-76550000D02*
X93500000Y-87500000D01*
X93500000Y-87500000D02*
X92250000Y-88750000D01*
X98700000Y-71350000D02*
X93500000Y-76550000D01*
D36*
X92115000Y-88885000D02*
X89075000Y-88885000D01*
X89075000Y-88885000D02*
X84365000Y-88885000D01*
X84365000Y-88885000D02*
X84250000Y-89000000D01*
D37*
X102602540Y-71210000D02*
X102462540Y-71350000D01*
X102462540Y-71350000D02*
X98700000Y-71350000D01*
X105900000Y-69147460D02*
X103837460Y-71210000D01*
X103837460Y-71210000D02*
X102602540Y-71210000D01*
X114375000Y-74125000D02*
X109397460Y-69147460D01*
X109397460Y-69147460D02*
X105900000Y-69147460D01*
X114375000Y-79375000D02*
X114375000Y-74125000D01*
X114127540Y-82375000D02*
X114127540Y-79622460D01*
X114127540Y-79622460D02*
X114375000Y-79375000D01*
D36*
X107230000Y-61850000D02*
X107230000Y-64920000D01*
X107230000Y-64920000D02*
X105900000Y-66250000D01*
D37*
X92870000Y-60750000D02*
X95250000Y-60750000D01*
X108835000Y-87375000D02*
X108835000Y-93915000D01*
X108835000Y-93915000D02*
X108750000Y-94000000D01*
X114127540Y-92535000D02*
X112662540Y-94000000D01*
X112662540Y-94000000D02*
X108750000Y-94000000D01*
X117125000Y-92625000D02*
X117035000Y-92535000D01*
X117035000Y-92535000D02*
X114127540Y-92535000D01*
D36*
X95425000Y-86345000D02*
X97345000Y-86345000D01*
X97345000Y-86345000D02*
X98500000Y-87500000D01*
D37*
X47500000Y-56000000D02*
X47500000Y-48500000D01*
X60564000Y-44814000D02*
X60564000Y-51600000D01*
X58250000Y-42500000D02*
X60564000Y-44814000D01*
X53500000Y-42500000D02*
X58250000Y-42500000D01*
X47500000Y-48500000D02*
X53500000Y-42500000D01*
X65500000Y-56000000D02*
X61100000Y-51600000D01*
X61100000Y-51600000D02*
X60564000Y-51600000D01*
X94500000Y-33090000D02*
X97750000Y-36340000D01*
X97750000Y-36340000D02*
X97750000Y-60750000D01*
X84000000Y-35010000D02*
X86260000Y-32750000D01*
X86260000Y-32750000D02*
X94160000Y-32750000D01*
X94160000Y-32750000D02*
X94500000Y-33090000D01*
X69660000Y-66750000D02*
X69660000Y-60160000D01*
X69660000Y-60160000D02*
X65500000Y-56000000D01*
X63660000Y-70000000D02*
X66410000Y-70000000D01*
X66410000Y-70000000D02*
X69660000Y-66750000D01*
X66000000Y-74500000D02*
X66000000Y-72340000D01*
X66000000Y-72340000D02*
X63660000Y-70000000D01*
X89100000Y-81650000D02*
X89100000Y-78100000D01*
X89100000Y-78100000D02*
X85500000Y-74500000D01*
X97750000Y-60750000D02*
X97900000Y-60900000D01*
X97900000Y-60900000D02*
X97900000Y-64850000D01*
X92870000Y-68370000D02*
X97750000Y-63490000D01*
X97750000Y-63490000D02*
X97750000Y-60750000D01*
X85500000Y-74500000D02*
X86740000Y-74500000D01*
X86740000Y-74500000D02*
X92870000Y-68370000D01*
X82000000Y-76160000D02*
X83660000Y-74500000D01*
X83660000Y-74500000D02*
X85500000Y-74500000D01*
D36*
X89075000Y-86345000D02*
X89075000Y-81675000D01*
X89075000Y-81675000D02*
X89100000Y-81650000D01*
X89075000Y-86345000D02*
X84405000Y-86345000D01*
X84405000Y-86345000D02*
X84250000Y-86500000D01*
D37*
X52500000Y-56000000D02*
X52500000Y-51664000D01*
X52500000Y-51664000D02*
X52436000Y-51600000D01*
X54000000Y-61250000D02*
X54000000Y-69500000D01*
X54000000Y-69500000D02*
X53380000Y-70120000D01*
X53380000Y-70120000D02*
X53380000Y-74380000D01*
X54000000Y-61250000D02*
X52500000Y-59750000D01*
X52500000Y-59750000D02*
X52500000Y-56000000D01*
X52500000Y-51564000D02*
X52436000Y-51500000D01*
X60500000Y-56000000D02*
X56500000Y-52000000D01*
X56500000Y-52000000D02*
X56500000Y-51600000D01*
X56500000Y-51500000D02*
X56500000Y-52000000D01*
X60500000Y-56000000D02*
X60500000Y-59750000D01*
X60500000Y-59750000D02*
X59000000Y-61250000D01*
X59000000Y-61250000D02*
X59000000Y-66250000D01*
X59000000Y-66250000D02*
X59000000Y-75550000D01*
X59000000Y-75550000D02*
X60370000Y-76920000D01*
X60370000Y-76920000D02*
X61000000Y-76920000D01*
X124500000Y-138500000D02*
X124500000Y-135750000D01*
X124500000Y-135750000D02*
X122250000Y-133500000D01*
D38*
X112500000Y-130940000D02*
X114610000Y-130940000D01*
X120500140Y-40450140D02*
X112500000Y-40450140D01*
X126300000Y-46250000D02*
X120500140Y-40450140D01*
X126300000Y-113250000D02*
X126300000Y-46250000D01*
X116800000Y-122750000D02*
X126300000Y-113250000D01*
X116800000Y-128750000D02*
X116800000Y-122750000D01*
X114610000Y-130940000D02*
X116800000Y-128750000D01*
D37*
X94500000Y-43250000D02*
X80810000Y-43250000D01*
X80810000Y-43250000D02*
X80190000Y-42630000D01*
X72000000Y-47750000D02*
X72040000Y-47710000D01*
X72040000Y-47710000D02*
X77650000Y-47710000D01*
X81460000Y-135000000D02*
X81460000Y-139290000D01*
X79000000Y-141750000D02*
X79000000Y-146750000D01*
X81460000Y-139290000D02*
X79000000Y-141750000D01*
X47000000Y-86910000D02*
X47000000Y-100540000D01*
X47000000Y-100540000D02*
X81460000Y-135000000D01*
X84000000Y-135000000D02*
X84000000Y-146750000D01*
X83830000Y-135170000D02*
X84000000Y-135000000D01*
X86540000Y-135000000D02*
X86540000Y-139790000D01*
X89000000Y-142250000D02*
X89000000Y-146750000D01*
X86540000Y-139790000D02*
X89000000Y-142250000D01*
X61000000Y-79460000D02*
X59290000Y-79460000D01*
X86540000Y-132040000D02*
X86540000Y-135000000D01*
X58000000Y-103500000D02*
X86540000Y-132040000D01*
X58000000Y-80750000D02*
X58000000Y-103500000D01*
X59290000Y-79460000D02*
X58000000Y-80750000D01*
X61000000Y-79460000D02*
X64710000Y-79460000D01*
X64710000Y-79460000D02*
X65000000Y-79750000D01*
X53380000Y-76920000D02*
X50420000Y-76920000D01*
X50420000Y-76920000D02*
X50250000Y-76750000D01*
X50250000Y-76750000D02*
X47000000Y-76750000D01*
X65000000Y-89910000D02*
X68410000Y-89910000D01*
X68410000Y-89910000D02*
X68500000Y-90000000D01*
X61000000Y-82000000D02*
X62050000Y-82000000D01*
X65000000Y-84950000D02*
X65000000Y-89910000D01*
X62050000Y-82000000D02*
X65000000Y-84950000D01*
X50250000Y-86910000D02*
X50250000Y-93660000D01*
X50250000Y-93660000D02*
X50340000Y-93750000D01*
X53380000Y-79460000D02*
X51090000Y-79460000D01*
X50250000Y-80300000D02*
X50250000Y-86910000D01*
X51090000Y-79460000D02*
X50250000Y-80300000D01*
X78500000Y-70910000D02*
X78500000Y-65850000D01*
X81060000Y-63290000D02*
X85250000Y-63290000D01*
X78500000Y-65850000D02*
X81060000Y-63290000D01*
X68500000Y-79840000D02*
X69570000Y-79840000D01*
X69570000Y-79840000D02*
X78500000Y-70910000D01*
X82000000Y-66000000D02*
X85080000Y-66000000D01*
X85080000Y-66000000D02*
X85250000Y-65830000D01*
X60500000Y-93750000D02*
X69900000Y-93750000D01*
X82000000Y-71650000D02*
X82000000Y-66000000D01*
X78700000Y-74950000D02*
X82000000Y-71650000D01*
X78700000Y-84950000D02*
X78700000Y-74950000D01*
X69900000Y-93750000D02*
X78700000Y-84950000D01*
X92870000Y-65830000D02*
X92870000Y-63290000D01*
X78500000Y-60750000D02*
X74000000Y-60750000D01*
X74000000Y-60750000D02*
X72000000Y-62750000D01*
X85250000Y-60750000D02*
X78500000Y-60750000D01*
D36*
X89075000Y-87615000D02*
X90235000Y-87615000D01*
X91600000Y-86250000D02*
X91600000Y-81650000D01*
X90235000Y-87615000D02*
X91600000Y-86250000D01*
D38*
X101900000Y-40650000D02*
X101900000Y-47900000D01*
X101900000Y-47900000D02*
X103750000Y-49750000D01*
X107801000Y-37450400D02*
X105099600Y-37450400D01*
X105099600Y-37450400D02*
X101900000Y-40650000D01*
X112500000Y-34450660D02*
X110800740Y-34450660D01*
X110800740Y-34450660D02*
X107801000Y-37450400D01*
D37*
X85250000Y-68370000D02*
X85250000Y-71750000D01*
X85250000Y-71750000D02*
X85500000Y-72000000D01*
X61000000Y-74380000D02*
X63380000Y-74380000D01*
X63380000Y-74380000D02*
X63500000Y-74500000D01*
D39*
G36*
X99373000Y-69965000D02*
X98700000Y-69965000D01*
X98169984Y-70070426D01*
X97720657Y-70370657D01*
X92520657Y-75570657D01*
X92220427Y-76019983D01*
X92115000Y-76550000D01*
X92115000Y-80472469D01*
X91856724Y-80365223D01*
X91345519Y-80364777D01*
X90873057Y-80559995D01*
X90511265Y-80921155D01*
X90385000Y-81225235D01*
X90385000Y-80873690D01*
X90288327Y-80640301D01*
X90109698Y-80461673D01*
X89876309Y-80365000D01*
X89385750Y-80365000D01*
X89227000Y-80523750D01*
X89227000Y-81523000D01*
X89247000Y-81523000D01*
X89247000Y-81777000D01*
X89227000Y-81777000D01*
X89227000Y-82776250D01*
X89385750Y-82935000D01*
X89876309Y-82935000D01*
X90109698Y-82838327D01*
X90288327Y-82659699D01*
X90385000Y-82426310D01*
X90385000Y-82074433D01*
X90465000Y-82268047D01*
X90465000Y-85779867D01*
X89764868Y-86480000D01*
X89075000Y-86480000D01*
X88640654Y-86566397D01*
X88387838Y-86735323D01*
X88268183Y-86757838D01*
X88052059Y-86896910D01*
X87907069Y-87109110D01*
X87856060Y-87361000D01*
X87856060Y-87750000D01*
X85134266Y-87750000D01*
X84900000Y-87702560D01*
X84737615Y-87702560D01*
X84913729Y-87629611D01*
X84969410Y-87399016D01*
X84250000Y-86679605D01*
X83530590Y-87399016D01*
X83586271Y-87629611D01*
X83795902Y-87702560D01*
X83600000Y-87702560D01*
X83364683Y-87746838D01*
X83148559Y-87885910D01*
X83003569Y-88098110D01*
X82952560Y-88350000D01*
X82952560Y-88559806D01*
X82865000Y-89000000D01*
X82865000Y-92222392D01*
X82864671Y-92223184D01*
X82864190Y-92774398D01*
X83074686Y-93283837D01*
X83464113Y-93673944D01*
X83973184Y-93885329D01*
X84524398Y-93885810D01*
X85033837Y-93675314D01*
X85423944Y-93285887D01*
X85635329Y-92776816D01*
X85635810Y-92225602D01*
X85635000Y-92223642D01*
X85635000Y-90020000D01*
X87856060Y-90020000D01*
X87856060Y-90409000D01*
X87900338Y-90644317D01*
X88039410Y-90860441D01*
X88251610Y-91005431D01*
X88503500Y-91056440D01*
X89646500Y-91056440D01*
X89881817Y-91012162D01*
X90097941Y-90873090D01*
X90242931Y-90660890D01*
X90293940Y-90409000D01*
X90293940Y-90020000D01*
X91705657Y-90020000D01*
X91719984Y-90029573D01*
X92250000Y-90135000D01*
X92780016Y-90029573D01*
X93229343Y-89729343D01*
X94206060Y-88752626D01*
X94206060Y-89139000D01*
X94250338Y-89374317D01*
X94344666Y-89520907D01*
X94257069Y-89649110D01*
X94206060Y-89901000D01*
X94206060Y-90409000D01*
X94250338Y-90644317D01*
X94389410Y-90860441D01*
X94601610Y-91005431D01*
X94853500Y-91056440D01*
X95996500Y-91056440D01*
X96231817Y-91012162D01*
X96447941Y-90873090D01*
X96592931Y-90660890D01*
X96643940Y-90409000D01*
X96643940Y-89901000D01*
X96599662Y-89665683D01*
X96505334Y-89519093D01*
X96592931Y-89390890D01*
X96643940Y-89139000D01*
X96643940Y-88631000D01*
X96599662Y-88395683D01*
X96505334Y-88249093D01*
X96592931Y-88120890D01*
X96643940Y-87869000D01*
X96643940Y-87480000D01*
X96874868Y-87480000D01*
X97202560Y-87807692D01*
X97202560Y-88150000D01*
X97246838Y-88385317D01*
X97385910Y-88601441D01*
X97598110Y-88746431D01*
X97850000Y-88797440D01*
X99150000Y-88797440D01*
X99385317Y-88753162D01*
X99601441Y-88614090D01*
X99746431Y-88401890D01*
X99797440Y-88150000D01*
X99797440Y-86850000D01*
X99753162Y-86614683D01*
X99614090Y-86398559D01*
X99401890Y-86253569D01*
X99150000Y-86202560D01*
X98807692Y-86202560D01*
X98147566Y-85542434D01*
X98005387Y-85447433D01*
X97779346Y-85296397D01*
X97345000Y-85210000D01*
X95425000Y-85210000D01*
X94990654Y-85296397D01*
X94885000Y-85366993D01*
X94885000Y-77123686D01*
X99273686Y-72735000D01*
X100555394Y-72735000D01*
X104123000Y-76302606D01*
X104123000Y-80602958D01*
X103893339Y-80602758D01*
X103379697Y-80814990D01*
X102986371Y-81207630D01*
X102773243Y-81720900D01*
X102772758Y-82276661D01*
X102984990Y-82790303D01*
X103377630Y-83183629D01*
X103890900Y-83396757D01*
X104123000Y-83396960D01*
X104123000Y-86367314D01*
X103756724Y-86215223D01*
X103245519Y-86214777D01*
X102773057Y-86409995D01*
X102411265Y-86771155D01*
X102215223Y-87243276D01*
X102214777Y-87754481D01*
X102409995Y-88226943D01*
X102771155Y-88588735D01*
X103243276Y-88784777D01*
X103754481Y-88785223D01*
X104123000Y-88632954D01*
X104123000Y-97623000D01*
X59385000Y-97623000D01*
X59385000Y-94946591D01*
X59572927Y-95134846D01*
X60173453Y-95384206D01*
X60823694Y-95384774D01*
X61424655Y-95136462D01*
X61426120Y-95135000D01*
X69900000Y-95135000D01*
X70430017Y-95029573D01*
X70879343Y-94729343D01*
X79289608Y-86319078D01*
X82952378Y-86319078D01*
X82981917Y-86829428D01*
X83120389Y-87163729D01*
X83350984Y-87219410D01*
X84070395Y-86500000D01*
X84429605Y-86500000D01*
X85149016Y-87219410D01*
X85379611Y-87163729D01*
X85547622Y-86680922D01*
X85518083Y-86170572D01*
X85379611Y-85836271D01*
X85149016Y-85780590D01*
X84429605Y-86500000D01*
X84070395Y-86500000D01*
X83350984Y-85780590D01*
X83120389Y-85836271D01*
X82952378Y-86319078D01*
X79289608Y-86319078D01*
X79679343Y-85929343D01*
X79741532Y-85836271D01*
X79898745Y-85600984D01*
X83530590Y-85600984D01*
X84250000Y-86320395D01*
X84969410Y-85600984D01*
X84913729Y-85370389D01*
X84430922Y-85202378D01*
X83920572Y-85231917D01*
X83586271Y-85370389D01*
X83530590Y-85600984D01*
X79898745Y-85600984D01*
X79979573Y-85480017D01*
X80085000Y-84950000D01*
X80085000Y-81935750D01*
X87815000Y-81935750D01*
X87815000Y-82426310D01*
X87911673Y-82659699D01*
X88090302Y-82838327D01*
X88323691Y-82935000D01*
X88814250Y-82935000D01*
X88973000Y-82776250D01*
X88973000Y-81777000D01*
X87973750Y-81777000D01*
X87815000Y-81935750D01*
X80085000Y-81935750D01*
X80085000Y-80873690D01*
X87815000Y-80873690D01*
X87815000Y-81364250D01*
X87973750Y-81523000D01*
X88973000Y-81523000D01*
X88973000Y-80523750D01*
X88814250Y-80365000D01*
X88323691Y-80365000D01*
X88090302Y-80461673D01*
X87911673Y-80640301D01*
X87815000Y-80873690D01*
X80085000Y-80873690D01*
X80085000Y-77312163D01*
X81027443Y-77312163D01*
X81126042Y-77578965D01*
X81735582Y-77805401D01*
X82385377Y-77781341D01*
X82873958Y-77578965D01*
X82972557Y-77312163D01*
X82000000Y-76339605D01*
X81027443Y-77312163D01*
X80085000Y-77312163D01*
X80085000Y-75895582D01*
X80354599Y-75895582D01*
X80378659Y-76545377D01*
X80581035Y-77033958D01*
X80847837Y-77132557D01*
X81820395Y-76160000D01*
X82179605Y-76160000D01*
X83152163Y-77132557D01*
X83418965Y-77033958D01*
X83645401Y-76424418D01*
X83621341Y-75774623D01*
X83450733Y-75362735D01*
X84816870Y-75362735D01*
X84866383Y-75588164D01*
X85331036Y-75747807D01*
X85821413Y-75717482D01*
X86133617Y-75588164D01*
X86183130Y-75362735D01*
X85500000Y-74679605D01*
X84816870Y-75362735D01*
X83450733Y-75362735D01*
X83418965Y-75286042D01*
X83152163Y-75187443D01*
X82179605Y-76160000D01*
X81820395Y-76160000D01*
X80847837Y-75187443D01*
X80581035Y-75286042D01*
X80354599Y-75895582D01*
X80085000Y-75895582D01*
X80085000Y-75523686D01*
X80600849Y-75007837D01*
X81027443Y-75007837D01*
X82000000Y-75980395D01*
X82972557Y-75007837D01*
X82873958Y-74741035D01*
X82264418Y-74514599D01*
X81614623Y-74538659D01*
X81126042Y-74741035D01*
X81027443Y-75007837D01*
X80600849Y-75007837D01*
X81277650Y-74331036D01*
X84252193Y-74331036D01*
X84282518Y-74821413D01*
X84411836Y-75133617D01*
X84637265Y-75183130D01*
X85320395Y-74500000D01*
X85679605Y-74500000D01*
X86362735Y-75183130D01*
X86588164Y-75133617D01*
X86747807Y-74668964D01*
X86717482Y-74178587D01*
X86588164Y-73866383D01*
X86362735Y-73816870D01*
X85679605Y-74500000D01*
X85320395Y-74500000D01*
X84637265Y-73816870D01*
X84411836Y-73866383D01*
X84252193Y-74331036D01*
X81277650Y-74331036D01*
X82979343Y-72629343D01*
X83279574Y-72180016D01*
X83385000Y-71650000D01*
X83385000Y-67385000D01*
X84187345Y-67385000D01*
X83896120Y-67820849D01*
X83786887Y-68370000D01*
X83865000Y-68762700D01*
X83865000Y-71750000D01*
X83970427Y-72280017D01*
X84147332Y-72544774D01*
X84270657Y-72729343D01*
X84278344Y-72737030D01*
X84296838Y-72835317D01*
X84435910Y-73051441D01*
X84648110Y-73196431D01*
X84900000Y-73247440D01*
X84921893Y-73247440D01*
X84969984Y-73279573D01*
X85115714Y-73308561D01*
X84866383Y-73411836D01*
X84816870Y-73637265D01*
X85500000Y-74320395D01*
X86183130Y-73637265D01*
X86133617Y-73411836D01*
X85851821Y-73315018D01*
X86030016Y-73279573D01*
X86078107Y-73247440D01*
X86100000Y-73247440D01*
X86335317Y-73203162D01*
X86551441Y-73064090D01*
X86696431Y-72851890D01*
X86747440Y-72600000D01*
X86747440Y-72578107D01*
X86779573Y-72530016D01*
X86885000Y-72000000D01*
X86779573Y-71469984D01*
X86747440Y-71421893D01*
X86747440Y-71400000D01*
X86703162Y-71164683D01*
X86635000Y-71058756D01*
X86635000Y-68762700D01*
X86643684Y-68719039D01*
X91478096Y-68719039D01*
X91638959Y-69107423D01*
X92014866Y-69522389D01*
X92520959Y-69761914D01*
X92743000Y-69640629D01*
X92743000Y-68497000D01*
X92997000Y-68497000D01*
X92997000Y-69640629D01*
X93219041Y-69761914D01*
X93725134Y-69522389D01*
X94101041Y-69107423D01*
X94261904Y-68719039D01*
X94139915Y-68497000D01*
X92997000Y-68497000D01*
X92743000Y-68497000D01*
X91600085Y-68497000D01*
X91478096Y-68719039D01*
X86643684Y-68719039D01*
X86713113Y-68370000D01*
X86603880Y-67820849D01*
X86292811Y-67355302D01*
X85910725Y-67100000D01*
X86292811Y-66844698D01*
X86603880Y-66379151D01*
X86713113Y-65830000D01*
X86603880Y-65280849D01*
X86292811Y-64815302D01*
X85910725Y-64560000D01*
X86292811Y-64304698D01*
X86603880Y-63839151D01*
X86713113Y-63290000D01*
X86603880Y-62740849D01*
X86292811Y-62275302D01*
X85910725Y-62020000D01*
X86292811Y-61764698D01*
X86603880Y-61299151D01*
X86713113Y-60750000D01*
X91406887Y-60750000D01*
X91516120Y-61299151D01*
X91827189Y-61764698D01*
X92209275Y-62020000D01*
X91827189Y-62275302D01*
X91516120Y-62740849D01*
X91406887Y-63290000D01*
X91485000Y-63682700D01*
X91485000Y-65437300D01*
X91406887Y-65830000D01*
X91516120Y-66379151D01*
X91827189Y-66844698D01*
X92231703Y-67114986D01*
X92014866Y-67217611D01*
X91638959Y-67632577D01*
X91478096Y-68020961D01*
X91600085Y-68243000D01*
X92743000Y-68243000D01*
X92743000Y-68223000D01*
X92997000Y-68223000D01*
X92997000Y-68243000D01*
X94139915Y-68243000D01*
X94261904Y-68020961D01*
X94101041Y-67632577D01*
X93725134Y-67217611D01*
X93508297Y-67114986D01*
X93912811Y-66844698D01*
X94223880Y-66379151D01*
X94333113Y-65830000D01*
X94331508Y-65821930D01*
X97107675Y-65821930D01*
X97175735Y-66062931D01*
X97695034Y-66247767D01*
X98245538Y-66219805D01*
X98624265Y-66062931D01*
X98692325Y-65821930D01*
X97900000Y-65029605D01*
X97107675Y-65821930D01*
X94331508Y-65821930D01*
X94255000Y-65437300D01*
X94255000Y-64645034D01*
X96502233Y-64645034D01*
X96530195Y-65195538D01*
X96687069Y-65574265D01*
X96928070Y-65642325D01*
X97720395Y-64850000D01*
X98079605Y-64850000D01*
X98871930Y-65642325D01*
X99112931Y-65574265D01*
X99297767Y-65054966D01*
X99269805Y-64504462D01*
X99112931Y-64125735D01*
X98871930Y-64057675D01*
X98079605Y-64850000D01*
X97720395Y-64850000D01*
X96928070Y-64057675D01*
X96687069Y-64125735D01*
X96502233Y-64645034D01*
X94255000Y-64645034D01*
X94255000Y-63878070D01*
X97107675Y-63878070D01*
X97900000Y-64670395D01*
X98692325Y-63878070D01*
X98624265Y-63637069D01*
X98104966Y-63452233D01*
X97554462Y-63480195D01*
X97175735Y-63637069D01*
X97107675Y-63878070D01*
X94255000Y-63878070D01*
X94255000Y-63682700D01*
X94333113Y-63290000D01*
X94223880Y-62740849D01*
X93912811Y-62275302D01*
X93702835Y-62135000D01*
X95250000Y-62135000D01*
X95780017Y-62029573D01*
X95828107Y-61997440D01*
X95850000Y-61997440D01*
X96085317Y-61953162D01*
X96301441Y-61814090D01*
X96439020Y-61612735D01*
X97066870Y-61612735D01*
X97116383Y-61838164D01*
X97581036Y-61997807D01*
X98071413Y-61967482D01*
X98383617Y-61838164D01*
X98433130Y-61612735D01*
X97750000Y-60929605D01*
X97066870Y-61612735D01*
X96439020Y-61612735D01*
X96446431Y-61601890D01*
X96497440Y-61350000D01*
X96497440Y-61328107D01*
X96529573Y-61280017D01*
X96558561Y-61134286D01*
X96661836Y-61383617D01*
X96887265Y-61433130D01*
X97570395Y-60750000D01*
X97929605Y-60750000D01*
X98612735Y-61433130D01*
X98838164Y-61383617D01*
X98997807Y-60918964D01*
X98967482Y-60428587D01*
X98838164Y-60116383D01*
X98612735Y-60066870D01*
X97929605Y-60750000D01*
X97570395Y-60750000D01*
X96887265Y-60066870D01*
X96661836Y-60116383D01*
X96565018Y-60398178D01*
X96529573Y-60219983D01*
X96497440Y-60171893D01*
X96497440Y-60150000D01*
X96453162Y-59914683D01*
X96435519Y-59887265D01*
X97066870Y-59887265D01*
X97750000Y-60570395D01*
X98433130Y-59887265D01*
X98383617Y-59661836D01*
X97918964Y-59502193D01*
X97428587Y-59532518D01*
X97116383Y-59661836D01*
X97066870Y-59887265D01*
X96435519Y-59887265D01*
X96314090Y-59698559D01*
X96101890Y-59553569D01*
X95850000Y-59502560D01*
X95828107Y-59502560D01*
X95780017Y-59470427D01*
X95250000Y-59365000D01*
X93149480Y-59365000D01*
X92898113Y-59315000D01*
X92841887Y-59315000D01*
X92292736Y-59424233D01*
X91827189Y-59735302D01*
X91516120Y-60200849D01*
X91406887Y-60750000D01*
X86713113Y-60750000D01*
X86603880Y-60200849D01*
X86292811Y-59735302D01*
X85827264Y-59424233D01*
X85278113Y-59315000D01*
X85221887Y-59315000D01*
X84970520Y-59365000D01*
X79426702Y-59365000D01*
X78826547Y-59115794D01*
X78176306Y-59115226D01*
X77575345Y-59363538D01*
X77573880Y-59365000D01*
X74000000Y-59365000D01*
X73469983Y-59470427D01*
X73073570Y-59735302D01*
X73020657Y-59770657D01*
X71308098Y-61483216D01*
X71188200Y-61532757D01*
X70784176Y-61936077D01*
X70565250Y-62463309D01*
X70564752Y-63034187D01*
X70782757Y-63561800D01*
X71186077Y-63965824D01*
X71713309Y-64184750D01*
X72284187Y-64185248D01*
X72811800Y-63967243D01*
X73215824Y-63563923D01*
X73266284Y-63442402D01*
X74573686Y-62135000D01*
X77573298Y-62135000D01*
X78173453Y-62384206D01*
X78823694Y-62384774D01*
X79424655Y-62136462D01*
X79426120Y-62135000D01*
X80343546Y-62135000D01*
X80080657Y-62310657D01*
X77520657Y-64870657D01*
X77220427Y-65319983D01*
X77115000Y-65850000D01*
X77115000Y-69983298D01*
X76865794Y-70583453D01*
X76865792Y-70585522D01*
X69122592Y-78328722D01*
X68826547Y-78205794D01*
X68176306Y-78205226D01*
X67575345Y-78453538D01*
X67115154Y-78912927D01*
X66865794Y-79513453D01*
X66865226Y-80163694D01*
X67113538Y-80764655D01*
X67572927Y-81224846D01*
X68173453Y-81474206D01*
X68823694Y-81474774D01*
X69424655Y-81226462D01*
X69426120Y-81225000D01*
X69570000Y-81225000D01*
X70100017Y-81119573D01*
X70549343Y-80819343D01*
X78824066Y-72544620D01*
X79373867Y-72317447D01*
X77720657Y-73970657D01*
X77420427Y-74419983D01*
X77315000Y-74950000D01*
X77315000Y-84376314D01*
X69326314Y-92365000D01*
X61426702Y-92365000D01*
X60826547Y-92115794D01*
X60176306Y-92115226D01*
X59575345Y-92363538D01*
X59385000Y-92553551D01*
X59385000Y-81323686D01*
X59863686Y-80845000D01*
X60167165Y-80845000D01*
X59957189Y-80985302D01*
X59646120Y-81450849D01*
X59536887Y-82000000D01*
X59646120Y-82549151D01*
X59957189Y-83014698D01*
X60422736Y-83325767D01*
X60971887Y-83435000D01*
X61028113Y-83435000D01*
X61279480Y-83385000D01*
X61476314Y-83385000D01*
X63615000Y-85523686D01*
X63615000Y-88983298D01*
X63365794Y-89583453D01*
X63365226Y-90233694D01*
X63613538Y-90834655D01*
X64072927Y-91294846D01*
X64673453Y-91544206D01*
X65323694Y-91544774D01*
X65924655Y-91296462D01*
X65926120Y-91295000D01*
X67483238Y-91295000D01*
X67572927Y-91384846D01*
X68173453Y-91634206D01*
X68823694Y-91634774D01*
X69424655Y-91386462D01*
X69884846Y-90927073D01*
X70134206Y-90326547D01*
X70134774Y-89676306D01*
X69886462Y-89075345D01*
X69427073Y-88615154D01*
X68826547Y-88365794D01*
X68176306Y-88365226D01*
X67789623Y-88525000D01*
X66385000Y-88525000D01*
X66385000Y-84950000D01*
X66279573Y-84419983D01*
X65979343Y-83970657D01*
X63029343Y-81020657D01*
X62883274Y-80923057D01*
X62766454Y-80845000D01*
X63783586Y-80845000D01*
X64072927Y-81134846D01*
X64673453Y-81384206D01*
X65323694Y-81384774D01*
X65924655Y-81136462D01*
X66384846Y-80677073D01*
X66634206Y-80076547D01*
X66634774Y-79426306D01*
X66386462Y-78825345D01*
X65927073Y-78365154D01*
X65326547Y-78115794D01*
X64913270Y-78115433D01*
X64710000Y-78075000D01*
X61832835Y-78075000D01*
X62042811Y-77934698D01*
X62353880Y-77469151D01*
X62463113Y-76920000D01*
X62353880Y-76370849D01*
X62042811Y-75905302D01*
X61832835Y-75765000D01*
X62948172Y-75765000D01*
X62969984Y-75779574D01*
X63500000Y-75885000D01*
X64030016Y-75779574D01*
X64078108Y-75747440D01*
X64100000Y-75747440D01*
X64335317Y-75703162D01*
X64551441Y-75564090D01*
X64689020Y-75362735D01*
X65316870Y-75362735D01*
X65366383Y-75588164D01*
X65831036Y-75747807D01*
X66321413Y-75717482D01*
X66633617Y-75588164D01*
X66683130Y-75362735D01*
X66000000Y-74679605D01*
X65316870Y-75362735D01*
X64689020Y-75362735D01*
X64696431Y-75351890D01*
X64747440Y-75100000D01*
X64747440Y-75078108D01*
X64779574Y-75030016D01*
X64808561Y-74884287D01*
X64911836Y-75133617D01*
X65137265Y-75183130D01*
X65820395Y-74500000D01*
X66179605Y-74500000D01*
X66862735Y-75183130D01*
X67088164Y-75133617D01*
X67247807Y-74668964D01*
X67217482Y-74178587D01*
X67088164Y-73866383D01*
X66862735Y-73816870D01*
X66179605Y-74500000D01*
X65820395Y-74500000D01*
X65137265Y-73816870D01*
X64911836Y-73866383D01*
X64815019Y-74148177D01*
X64779574Y-73969984D01*
X64747440Y-73921892D01*
X64747440Y-73900000D01*
X64703162Y-73664683D01*
X64685519Y-73637265D01*
X65316870Y-73637265D01*
X66000000Y-74320395D01*
X66683130Y-73637265D01*
X66633617Y-73411836D01*
X66168964Y-73252193D01*
X65678587Y-73282518D01*
X65366383Y-73411836D01*
X65316870Y-73637265D01*
X64685519Y-73637265D01*
X64564090Y-73448559D01*
X64351890Y-73303569D01*
X64154095Y-73263514D01*
X63910017Y-73100427D01*
X63380000Y-72995000D01*
X61279480Y-72995000D01*
X61028113Y-72945000D01*
X60971887Y-72945000D01*
X60422736Y-73054233D01*
X60385000Y-73079447D01*
X60385000Y-71152163D01*
X62687443Y-71152163D01*
X62786042Y-71418965D01*
X63395582Y-71645401D01*
X64045377Y-71621341D01*
X64533958Y-71418965D01*
X64632557Y-71152163D01*
X63660000Y-70179605D01*
X62687443Y-71152163D01*
X60385000Y-71152163D01*
X60385000Y-69735582D01*
X62014599Y-69735582D01*
X62038659Y-70385377D01*
X62241035Y-70873958D01*
X62507837Y-70972557D01*
X63480395Y-70000000D01*
X63839605Y-70000000D01*
X64812163Y-70972557D01*
X65078965Y-70873958D01*
X65305401Y-70264418D01*
X65281341Y-69614623D01*
X65078965Y-69126042D01*
X64812163Y-69027443D01*
X63839605Y-70000000D01*
X63480395Y-70000000D01*
X62507837Y-69027443D01*
X62241035Y-69126042D01*
X62014599Y-69735582D01*
X60385000Y-69735582D01*
X60385000Y-68847837D01*
X62687443Y-68847837D01*
X63660000Y-69820395D01*
X64632557Y-68847837D01*
X64533958Y-68581035D01*
X63924418Y-68354599D01*
X63274623Y-68378659D01*
X62786042Y-68581035D01*
X62687443Y-68847837D01*
X60385000Y-68847837D01*
X60385000Y-68152847D01*
X60424655Y-68136462D01*
X60659363Y-67902163D01*
X68687443Y-67902163D01*
X68786042Y-68168965D01*
X69395582Y-68395401D01*
X70045377Y-68371341D01*
X70533958Y-68168965D01*
X70632557Y-67902163D01*
X69660000Y-66929605D01*
X68687443Y-67902163D01*
X60659363Y-67902163D01*
X60884846Y-67677073D01*
X61134206Y-67076547D01*
X61134722Y-66485582D01*
X68014599Y-66485582D01*
X68038659Y-67135377D01*
X68241035Y-67623958D01*
X68507837Y-67722557D01*
X69480395Y-66750000D01*
X69839605Y-66750000D01*
X70812163Y-67722557D01*
X71078965Y-67623958D01*
X71305401Y-67014418D01*
X71281341Y-66364623D01*
X71078965Y-65876042D01*
X70812163Y-65777443D01*
X69839605Y-66750000D01*
X69480395Y-66750000D01*
X68507837Y-65777443D01*
X68241035Y-65876042D01*
X68014599Y-66485582D01*
X61134722Y-66485582D01*
X61134774Y-66426306D01*
X60886462Y-65825345D01*
X60659351Y-65597837D01*
X68687443Y-65597837D01*
X69660000Y-66570395D01*
X70632557Y-65597837D01*
X70533958Y-65331035D01*
X69924418Y-65104599D01*
X69274623Y-65128659D01*
X68786042Y-65331035D01*
X68687443Y-65597837D01*
X60659351Y-65597837D01*
X60427073Y-65365154D01*
X60385000Y-65347684D01*
X60385000Y-61823686D01*
X61479343Y-60729343D01*
X61565767Y-60600000D01*
X61779573Y-60280017D01*
X61885000Y-59750000D01*
X61885000Y-56899016D01*
X64780590Y-56899016D01*
X64836271Y-57129611D01*
X65319078Y-57297622D01*
X65829428Y-57268083D01*
X66163729Y-57129611D01*
X66219410Y-56899016D01*
X65500000Y-56179605D01*
X64780590Y-56899016D01*
X61885000Y-56899016D01*
X61885000Y-56000000D01*
X61849013Y-55819078D01*
X64202378Y-55819078D01*
X64231917Y-56329428D01*
X64370389Y-56663729D01*
X64600984Y-56719410D01*
X65320395Y-56000000D01*
X65679605Y-56000000D01*
X66399016Y-56719410D01*
X66629611Y-56663729D01*
X66797622Y-56180922D01*
X66768083Y-55670572D01*
X66629611Y-55336271D01*
X66399016Y-55280590D01*
X65679605Y-56000000D01*
X65320395Y-56000000D01*
X64600984Y-55280590D01*
X64370389Y-55336271D01*
X64202378Y-55819078D01*
X61849013Y-55819078D01*
X61797440Y-55559806D01*
X61797440Y-55350000D01*
X61753162Y-55114683D01*
X61744347Y-55100984D01*
X64780590Y-55100984D01*
X65500000Y-55820395D01*
X66219410Y-55100984D01*
X66163729Y-54870389D01*
X65680922Y-54702378D01*
X65170572Y-54731917D01*
X64836271Y-54870389D01*
X64780590Y-55100984D01*
X61744347Y-55100984D01*
X61614090Y-54898559D01*
X61401890Y-54753569D01*
X61164102Y-54705416D01*
X60031970Y-53573284D01*
X60204746Y-53640423D01*
X61012929Y-53622586D01*
X61676744Y-53347625D01*
X61823950Y-53039556D01*
X60564000Y-51779605D01*
X60549858Y-51793748D01*
X60370252Y-51614142D01*
X60384395Y-51600000D01*
X60743605Y-51600000D01*
X62003556Y-52859950D01*
X62311625Y-52712744D01*
X62604423Y-51959254D01*
X62586586Y-51151071D01*
X62365518Y-50617364D01*
X82144678Y-50617364D01*
X82426490Y-51299401D01*
X82947855Y-51821676D01*
X83629399Y-52104678D01*
X84367364Y-52105322D01*
X85049401Y-51823510D01*
X85571676Y-51302145D01*
X85854678Y-50620601D01*
X85855322Y-49882636D01*
X85573510Y-49200599D01*
X85052145Y-48678324D01*
X84370601Y-48395322D01*
X83632636Y-48394678D01*
X82950599Y-48676490D01*
X82428324Y-49197855D01*
X82145322Y-49879399D01*
X82144678Y-50617364D01*
X62365518Y-50617364D01*
X62311625Y-50487256D01*
X62003556Y-50340050D01*
X60743605Y-51600000D01*
X60384395Y-51600000D01*
X59124444Y-50340050D01*
X58816375Y-50487256D01*
X58532334Y-51218211D01*
X58532352Y-51197584D01*
X58223650Y-50450468D01*
X57934132Y-50160444D01*
X59304050Y-50160444D01*
X60564000Y-51420395D01*
X61823950Y-50160444D01*
X61676744Y-49852375D01*
X60923254Y-49559577D01*
X60115071Y-49577414D01*
X59451256Y-49852375D01*
X59304050Y-50160444D01*
X57934132Y-50160444D01*
X57652538Y-49878359D01*
X56905963Y-49568354D01*
X56097584Y-49567648D01*
X55350468Y-49876350D01*
X54778359Y-50447462D01*
X54468354Y-51194037D01*
X54468351Y-51197581D01*
X54159650Y-50450468D01*
X53588538Y-49878359D01*
X52841963Y-49568354D01*
X52033584Y-49567648D01*
X51286468Y-49876350D01*
X50714359Y-50447462D01*
X50404354Y-51194037D01*
X50403648Y-52002416D01*
X50712350Y-52749532D01*
X51115000Y-53152885D01*
X51115000Y-59750000D01*
X51220427Y-60280017D01*
X51434233Y-60600000D01*
X51520657Y-60729343D01*
X52615000Y-61823686D01*
X52615000Y-68597153D01*
X52575345Y-68613538D01*
X52115154Y-69072927D01*
X51865794Y-69673453D01*
X51865226Y-70323694D01*
X51995000Y-70637771D01*
X51995000Y-73987300D01*
X51916887Y-74380000D01*
X52026120Y-74929151D01*
X52337189Y-75394698D01*
X52547165Y-75535000D01*
X51346623Y-75535000D01*
X51177073Y-75365154D01*
X50576547Y-75115794D01*
X49926306Y-75115226D01*
X49325345Y-75363538D01*
X49323880Y-75365000D01*
X47926702Y-75365000D01*
X47326547Y-75115794D01*
X46676306Y-75115226D01*
X46075345Y-75363538D01*
X45615154Y-75822927D01*
X45365794Y-76423453D01*
X45365226Y-77073694D01*
X45613538Y-77674655D01*
X46072927Y-78134846D01*
X46673453Y-78384206D01*
X47323694Y-78384774D01*
X47924655Y-78136462D01*
X47926120Y-78135000D01*
X49323298Y-78135000D01*
X49923453Y-78384206D01*
X50254573Y-78384495D01*
X50148825Y-78455154D01*
X50110657Y-78480657D01*
X49270657Y-79320657D01*
X48970427Y-79769983D01*
X48865000Y-80300000D01*
X48865000Y-85983298D01*
X48624717Y-86561965D01*
X48386462Y-85985345D01*
X47927073Y-85525154D01*
X47326547Y-85275794D01*
X46676306Y-85275226D01*
X46075345Y-85523538D01*
X45615154Y-85982927D01*
X45365794Y-86583453D01*
X45365226Y-87233694D01*
X45613538Y-87834655D01*
X45615000Y-87836120D01*
X45615000Y-97623000D01*
X43377000Y-97623000D01*
X43377000Y-56899016D01*
X46780590Y-56899016D01*
X46836271Y-57129611D01*
X47319078Y-57297622D01*
X47829428Y-57268083D01*
X48163729Y-57129611D01*
X48219410Y-56899016D01*
X47500000Y-56179605D01*
X46780590Y-56899016D01*
X43377000Y-56899016D01*
X43377000Y-55819078D01*
X46202378Y-55819078D01*
X46231917Y-56329428D01*
X46370389Y-56663729D01*
X46600984Y-56719410D01*
X47320395Y-56000000D01*
X47679605Y-56000000D01*
X48399016Y-56719410D01*
X48629611Y-56663729D01*
X48797622Y-56180922D01*
X48768083Y-55670572D01*
X48629611Y-55336271D01*
X48399016Y-55280590D01*
X47679605Y-56000000D01*
X47320395Y-56000000D01*
X46600984Y-55280590D01*
X46370389Y-55336271D01*
X46202378Y-55819078D01*
X43377000Y-55819078D01*
X43377000Y-55100984D01*
X46780590Y-55100984D01*
X47500000Y-55820395D01*
X48219410Y-55100984D01*
X48163729Y-54870389D01*
X47680922Y-54702378D01*
X47170572Y-54731917D01*
X46836271Y-54870389D01*
X46780590Y-55100984D01*
X43377000Y-55100984D01*
X43377000Y-47023021D01*
X53959560Y-47023021D01*
X54345437Y-47956915D01*
X55059327Y-48672052D01*
X55992546Y-49059559D01*
X57003021Y-49060440D01*
X57936915Y-48674563D01*
X58652052Y-47960673D01*
X59039559Y-47027454D01*
X59039626Y-46950000D01*
X70552560Y-46950000D01*
X70552560Y-48550000D01*
X70596838Y-48785317D01*
X70735910Y-49001441D01*
X70948110Y-49146431D01*
X71200000Y-49197440D01*
X72800000Y-49197440D01*
X73035317Y-49153162D01*
X73125703Y-49095000D01*
X76722359Y-49095000D01*
X76722637Y-49095278D01*
X77323352Y-49344716D01*
X77973795Y-49345284D01*
X78574943Y-49096894D01*
X79035278Y-48637363D01*
X79284716Y-48036648D01*
X79284718Y-48033795D01*
X86174716Y-48033795D01*
X86423106Y-48634943D01*
X86882637Y-49095278D01*
X87483352Y-49344716D01*
X88133795Y-49345284D01*
X88734943Y-49096894D01*
X89195278Y-48637363D01*
X89444716Y-48036648D01*
X89445284Y-47386205D01*
X89196894Y-46785057D01*
X88737363Y-46324722D01*
X88136648Y-46075284D01*
X87486205Y-46074716D01*
X86885057Y-46323106D01*
X86424722Y-46782637D01*
X86175284Y-47383352D01*
X86174716Y-48033795D01*
X79284718Y-48033795D01*
X79285284Y-47386205D01*
X79036894Y-46785057D01*
X78577363Y-46324722D01*
X77976648Y-46075284D01*
X77326205Y-46074716D01*
X76725057Y-46323106D01*
X76723160Y-46325000D01*
X72910812Y-46325000D01*
X72800000Y-46302560D01*
X71200000Y-46302560D01*
X70964683Y-46346838D01*
X70748559Y-46485910D01*
X70603569Y-46698110D01*
X70552560Y-46950000D01*
X59039626Y-46950000D01*
X59040440Y-46016979D01*
X58654563Y-45083085D01*
X57940673Y-44367948D01*
X57007454Y-43980441D01*
X55996979Y-43979560D01*
X55063085Y-44365437D01*
X54347948Y-45079327D01*
X53960441Y-46012546D01*
X53959560Y-47023021D01*
X43377000Y-47023021D01*
X43377000Y-42953795D01*
X78554716Y-42953795D01*
X78803106Y-43554943D01*
X79262637Y-44015278D01*
X79863352Y-44264716D01*
X79883623Y-44264734D01*
X80279983Y-44529573D01*
X80810000Y-44635000D01*
X93573298Y-44635000D01*
X94173453Y-44884206D01*
X94823694Y-44884774D01*
X95424655Y-44636462D01*
X95884846Y-44177073D01*
X96134206Y-43576547D01*
X96134774Y-42926306D01*
X95886462Y-42325345D01*
X95427073Y-41865154D01*
X94826547Y-41615794D01*
X94176306Y-41615226D01*
X93575345Y-41863538D01*
X93573880Y-41865000D01*
X81642981Y-41865000D01*
X81576894Y-41705057D01*
X81117363Y-41244722D01*
X80516648Y-40995284D01*
X79866205Y-40994716D01*
X79265057Y-41243106D01*
X78804722Y-41702637D01*
X78555284Y-42303352D01*
X78554716Y-42953795D01*
X43377000Y-42953795D01*
X43377000Y-37917364D01*
X78334678Y-37917364D01*
X78616490Y-38599401D01*
X79137855Y-39121676D01*
X79819399Y-39404678D01*
X80557364Y-39405322D01*
X81239401Y-39123510D01*
X81761676Y-38602145D01*
X82044678Y-37920601D01*
X82044680Y-37917364D01*
X85954678Y-37917364D01*
X86236490Y-38599401D01*
X86757855Y-39121676D01*
X87439399Y-39404678D01*
X88177364Y-39405322D01*
X88859401Y-39123510D01*
X89381676Y-38602145D01*
X89664678Y-37920601D01*
X89665322Y-37182636D01*
X89383510Y-36500599D01*
X88862145Y-35978324D01*
X88180601Y-35695322D01*
X87442636Y-35694678D01*
X86760599Y-35976490D01*
X86238324Y-36497855D01*
X85955322Y-37179399D01*
X85954678Y-37917364D01*
X82044680Y-37917364D01*
X82045322Y-37182636D01*
X81763510Y-36500599D01*
X81426033Y-36162532D01*
X83027073Y-36162532D01*
X83125736Y-36429387D01*
X83735461Y-36655908D01*
X84385460Y-36631856D01*
X84874264Y-36429387D01*
X84972927Y-36162532D01*
X84000000Y-35189605D01*
X83027073Y-36162532D01*
X81426033Y-36162532D01*
X81242145Y-35978324D01*
X80560601Y-35695322D01*
X79822636Y-35694678D01*
X79140599Y-35976490D01*
X78618324Y-36497855D01*
X78335322Y-37179399D01*
X78334678Y-37917364D01*
X43377000Y-37917364D01*
X43377000Y-34745461D01*
X82354092Y-34745461D01*
X82378144Y-35395460D01*
X82580613Y-35884264D01*
X82847468Y-35982927D01*
X83820395Y-35010000D01*
X84179605Y-35010000D01*
X85152532Y-35982927D01*
X85419387Y-35884264D01*
X85623893Y-35333795D01*
X88714716Y-35333795D01*
X88963106Y-35934943D01*
X89422637Y-36395278D01*
X90023352Y-36644716D01*
X90673795Y-36645284D01*
X91274943Y-36396894D01*
X91735278Y-35937363D01*
X91984716Y-35336648D01*
X91985284Y-34686205D01*
X91801810Y-34242163D01*
X93527443Y-34242163D01*
X93626042Y-34508965D01*
X94235582Y-34735401D01*
X94885377Y-34711341D01*
X95373958Y-34508965D01*
X95472557Y-34242163D01*
X94500000Y-33269605D01*
X93527443Y-34242163D01*
X91801810Y-34242163D01*
X91736894Y-34085057D01*
X91277363Y-33624722D01*
X90676648Y-33375284D01*
X90026205Y-33374716D01*
X89425057Y-33623106D01*
X88964722Y-34082637D01*
X88715284Y-34683352D01*
X88714716Y-35333795D01*
X85623893Y-35333795D01*
X85645908Y-35274539D01*
X85621856Y-34624540D01*
X85419387Y-34135736D01*
X85152532Y-34037073D01*
X84179605Y-35010000D01*
X83820395Y-35010000D01*
X82847468Y-34037073D01*
X82580613Y-34135736D01*
X82354092Y-34745461D01*
X43377000Y-34745461D01*
X43377000Y-33857468D01*
X83027073Y-33857468D01*
X84000000Y-34830395D01*
X84972927Y-33857468D01*
X84874264Y-33590613D01*
X84264539Y-33364092D01*
X83614540Y-33388144D01*
X83125736Y-33590613D01*
X83027073Y-33857468D01*
X43377000Y-33857468D01*
X43377000Y-32825582D01*
X92854599Y-32825582D01*
X92878659Y-33475377D01*
X93081035Y-33963958D01*
X93347837Y-34062557D01*
X94320395Y-33090000D01*
X94679605Y-33090000D01*
X95652163Y-34062557D01*
X95918965Y-33963958D01*
X96145401Y-33354418D01*
X96121341Y-32704623D01*
X95918965Y-32216042D01*
X95652163Y-32117443D01*
X94679605Y-33090000D01*
X94320395Y-33090000D01*
X93347837Y-32117443D01*
X93081035Y-32216042D01*
X92854599Y-32825582D01*
X43377000Y-32825582D01*
X43377000Y-31937837D01*
X93527443Y-31937837D01*
X94500000Y-32910395D01*
X95472557Y-31937837D01*
X95373958Y-31671035D01*
X94764418Y-31444599D01*
X94114623Y-31468659D01*
X93626042Y-31671035D01*
X93527443Y-31937837D01*
X43377000Y-31937837D01*
X43377000Y-30885000D01*
X99373000Y-30885000D01*
X99373000Y-69965000D01*
X99373000Y-69965000D01*
G37*
X99373000Y-69965000D02*
X98700000Y-69965000D01*
X98169984Y-70070426D01*
X97720657Y-70370657D01*
X92520657Y-75570657D01*
X92220427Y-76019983D01*
X92115000Y-76550000D01*
X92115000Y-80472469D01*
X91856724Y-80365223D01*
X91345519Y-80364777D01*
X90873057Y-80559995D01*
X90511265Y-80921155D01*
X90385000Y-81225235D01*
X90385000Y-80873690D01*
X90288327Y-80640301D01*
X90109698Y-80461673D01*
X89876309Y-80365000D01*
X89385750Y-80365000D01*
X89227000Y-80523750D01*
X89227000Y-81523000D01*
X89247000Y-81523000D01*
X89247000Y-81777000D01*
X89227000Y-81777000D01*
X89227000Y-82776250D01*
X89385750Y-82935000D01*
X89876309Y-82935000D01*
X90109698Y-82838327D01*
X90288327Y-82659699D01*
X90385000Y-82426310D01*
X90385000Y-82074433D01*
X90465000Y-82268047D01*
X90465000Y-85779867D01*
X89764868Y-86480000D01*
X89075000Y-86480000D01*
X88640654Y-86566397D01*
X88387838Y-86735323D01*
X88268183Y-86757838D01*
X88052059Y-86896910D01*
X87907069Y-87109110D01*
X87856060Y-87361000D01*
X87856060Y-87750000D01*
X85134266Y-87750000D01*
X84900000Y-87702560D01*
X84737615Y-87702560D01*
X84913729Y-87629611D01*
X84969410Y-87399016D01*
X84250000Y-86679605D01*
X83530590Y-87399016D01*
X83586271Y-87629611D01*
X83795902Y-87702560D01*
X83600000Y-87702560D01*
X83364683Y-87746838D01*
X83148559Y-87885910D01*
X83003569Y-88098110D01*
X82952560Y-88350000D01*
X82952560Y-88559806D01*
X82865000Y-89000000D01*
X82865000Y-92222392D01*
X82864671Y-92223184D01*
X82864190Y-92774398D01*
X83074686Y-93283837D01*
X83464113Y-93673944D01*
X83973184Y-93885329D01*
X84524398Y-93885810D01*
X85033837Y-93675314D01*
X85423944Y-93285887D01*
X85635329Y-92776816D01*
X85635810Y-92225602D01*
X85635000Y-92223642D01*
X85635000Y-90020000D01*
X87856060Y-90020000D01*
X87856060Y-90409000D01*
X87900338Y-90644317D01*
X88039410Y-90860441D01*
X88251610Y-91005431D01*
X88503500Y-91056440D01*
X89646500Y-91056440D01*
X89881817Y-91012162D01*
X90097941Y-90873090D01*
X90242931Y-90660890D01*
X90293940Y-90409000D01*
X90293940Y-90020000D01*
X91705657Y-90020000D01*
X91719984Y-90029573D01*
X92250000Y-90135000D01*
X92780016Y-90029573D01*
X93229343Y-89729343D01*
X94206060Y-88752626D01*
X94206060Y-89139000D01*
X94250338Y-89374317D01*
X94344666Y-89520907D01*
X94257069Y-89649110D01*
X94206060Y-89901000D01*
X94206060Y-90409000D01*
X94250338Y-90644317D01*
X94389410Y-90860441D01*
X94601610Y-91005431D01*
X94853500Y-91056440D01*
X95996500Y-91056440D01*
X96231817Y-91012162D01*
X96447941Y-90873090D01*
X96592931Y-90660890D01*
X96643940Y-90409000D01*
X96643940Y-89901000D01*
X96599662Y-89665683D01*
X96505334Y-89519093D01*
X96592931Y-89390890D01*
X96643940Y-89139000D01*
X96643940Y-88631000D01*
X96599662Y-88395683D01*
X96505334Y-88249093D01*
X96592931Y-88120890D01*
X96643940Y-87869000D01*
X96643940Y-87480000D01*
X96874868Y-87480000D01*
X97202560Y-87807692D01*
X97202560Y-88150000D01*
X97246838Y-88385317D01*
X97385910Y-88601441D01*
X97598110Y-88746431D01*
X97850000Y-88797440D01*
X99150000Y-88797440D01*
X99385317Y-88753162D01*
X99601441Y-88614090D01*
X99746431Y-88401890D01*
X99797440Y-88150000D01*
X99797440Y-86850000D01*
X99753162Y-86614683D01*
X99614090Y-86398559D01*
X99401890Y-86253569D01*
X99150000Y-86202560D01*
X98807692Y-86202560D01*
X98147566Y-85542434D01*
X98005387Y-85447433D01*
X97779346Y-85296397D01*
X97345000Y-85210000D01*
X95425000Y-85210000D01*
X94990654Y-85296397D01*
X94885000Y-85366993D01*
X94885000Y-77123686D01*
X99273686Y-72735000D01*
X100555394Y-72735000D01*
X104123000Y-76302606D01*
X104123000Y-80602958D01*
X103893339Y-80602758D01*
X103379697Y-80814990D01*
X102986371Y-81207630D01*
X102773243Y-81720900D01*
X102772758Y-82276661D01*
X102984990Y-82790303D01*
X103377630Y-83183629D01*
X103890900Y-83396757D01*
X104123000Y-83396960D01*
X104123000Y-86367314D01*
X103756724Y-86215223D01*
X103245519Y-86214777D01*
X102773057Y-86409995D01*
X102411265Y-86771155D01*
X102215223Y-87243276D01*
X102214777Y-87754481D01*
X102409995Y-88226943D01*
X102771155Y-88588735D01*
X103243276Y-88784777D01*
X103754481Y-88785223D01*
X104123000Y-88632954D01*
X104123000Y-97623000D01*
X59385000Y-97623000D01*
X59385000Y-94946591D01*
X59572927Y-95134846D01*
X60173453Y-95384206D01*
X60823694Y-95384774D01*
X61424655Y-95136462D01*
X61426120Y-95135000D01*
X69900000Y-95135000D01*
X70430017Y-95029573D01*
X70879343Y-94729343D01*
X79289608Y-86319078D01*
X82952378Y-86319078D01*
X82981917Y-86829428D01*
X83120389Y-87163729D01*
X83350984Y-87219410D01*
X84070395Y-86500000D01*
X84429605Y-86500000D01*
X85149016Y-87219410D01*
X85379611Y-87163729D01*
X85547622Y-86680922D01*
X85518083Y-86170572D01*
X85379611Y-85836271D01*
X85149016Y-85780590D01*
X84429605Y-86500000D01*
X84070395Y-86500000D01*
X83350984Y-85780590D01*
X83120389Y-85836271D01*
X82952378Y-86319078D01*
X79289608Y-86319078D01*
X79679343Y-85929343D01*
X79741532Y-85836271D01*
X79898745Y-85600984D01*
X83530590Y-85600984D01*
X84250000Y-86320395D01*
X84969410Y-85600984D01*
X84913729Y-85370389D01*
X84430922Y-85202378D01*
X83920572Y-85231917D01*
X83586271Y-85370389D01*
X83530590Y-85600984D01*
X79898745Y-85600984D01*
X79979573Y-85480017D01*
X80085000Y-84950000D01*
X80085000Y-81935750D01*
X87815000Y-81935750D01*
X87815000Y-82426310D01*
X87911673Y-82659699D01*
X88090302Y-82838327D01*
X88323691Y-82935000D01*
X88814250Y-82935000D01*
X88973000Y-82776250D01*
X88973000Y-81777000D01*
X87973750Y-81777000D01*
X87815000Y-81935750D01*
X80085000Y-81935750D01*
X80085000Y-80873690D01*
X87815000Y-80873690D01*
X87815000Y-81364250D01*
X87973750Y-81523000D01*
X88973000Y-81523000D01*
X88973000Y-80523750D01*
X88814250Y-80365000D01*
X88323691Y-80365000D01*
X88090302Y-80461673D01*
X87911673Y-80640301D01*
X87815000Y-80873690D01*
X80085000Y-80873690D01*
X80085000Y-77312163D01*
X81027443Y-77312163D01*
X81126042Y-77578965D01*
X81735582Y-77805401D01*
X82385377Y-77781341D01*
X82873958Y-77578965D01*
X82972557Y-77312163D01*
X82000000Y-76339605D01*
X81027443Y-77312163D01*
X80085000Y-77312163D01*
X80085000Y-75895582D01*
X80354599Y-75895582D01*
X80378659Y-76545377D01*
X80581035Y-77033958D01*
X80847837Y-77132557D01*
X81820395Y-76160000D01*
X82179605Y-76160000D01*
X83152163Y-77132557D01*
X83418965Y-77033958D01*
X83645401Y-76424418D01*
X83621341Y-75774623D01*
X83450733Y-75362735D01*
X84816870Y-75362735D01*
X84866383Y-75588164D01*
X85331036Y-75747807D01*
X85821413Y-75717482D01*
X86133617Y-75588164D01*
X86183130Y-75362735D01*
X85500000Y-74679605D01*
X84816870Y-75362735D01*
X83450733Y-75362735D01*
X83418965Y-75286042D01*
X83152163Y-75187443D01*
X82179605Y-76160000D01*
X81820395Y-76160000D01*
X80847837Y-75187443D01*
X80581035Y-75286042D01*
X80354599Y-75895582D01*
X80085000Y-75895582D01*
X80085000Y-75523686D01*
X80600849Y-75007837D01*
X81027443Y-75007837D01*
X82000000Y-75980395D01*
X82972557Y-75007837D01*
X82873958Y-74741035D01*
X82264418Y-74514599D01*
X81614623Y-74538659D01*
X81126042Y-74741035D01*
X81027443Y-75007837D01*
X80600849Y-75007837D01*
X81277650Y-74331036D01*
X84252193Y-74331036D01*
X84282518Y-74821413D01*
X84411836Y-75133617D01*
X84637265Y-75183130D01*
X85320395Y-74500000D01*
X85679605Y-74500000D01*
X86362735Y-75183130D01*
X86588164Y-75133617D01*
X86747807Y-74668964D01*
X86717482Y-74178587D01*
X86588164Y-73866383D01*
X86362735Y-73816870D01*
X85679605Y-74500000D01*
X85320395Y-74500000D01*
X84637265Y-73816870D01*
X84411836Y-73866383D01*
X84252193Y-74331036D01*
X81277650Y-74331036D01*
X82979343Y-72629343D01*
X83279574Y-72180016D01*
X83385000Y-71650000D01*
X83385000Y-67385000D01*
X84187345Y-67385000D01*
X83896120Y-67820849D01*
X83786887Y-68370000D01*
X83865000Y-68762700D01*
X83865000Y-71750000D01*
X83970427Y-72280017D01*
X84147332Y-72544774D01*
X84270657Y-72729343D01*
X84278344Y-72737030D01*
X84296838Y-72835317D01*
X84435910Y-73051441D01*
X84648110Y-73196431D01*
X84900000Y-73247440D01*
X84921893Y-73247440D01*
X84969984Y-73279573D01*
X85115714Y-73308561D01*
X84866383Y-73411836D01*
X84816870Y-73637265D01*
X85500000Y-74320395D01*
X86183130Y-73637265D01*
X86133617Y-73411836D01*
X85851821Y-73315018D01*
X86030016Y-73279573D01*
X86078107Y-73247440D01*
X86100000Y-73247440D01*
X86335317Y-73203162D01*
X86551441Y-73064090D01*
X86696431Y-72851890D01*
X86747440Y-72600000D01*
X86747440Y-72578107D01*
X86779573Y-72530016D01*
X86885000Y-72000000D01*
X86779573Y-71469984D01*
X86747440Y-71421893D01*
X86747440Y-71400000D01*
X86703162Y-71164683D01*
X86635000Y-71058756D01*
X86635000Y-68762700D01*
X86643684Y-68719039D01*
X91478096Y-68719039D01*
X91638959Y-69107423D01*
X92014866Y-69522389D01*
X92520959Y-69761914D01*
X92743000Y-69640629D01*
X92743000Y-68497000D01*
X92997000Y-68497000D01*
X92997000Y-69640629D01*
X93219041Y-69761914D01*
X93725134Y-69522389D01*
X94101041Y-69107423D01*
X94261904Y-68719039D01*
X94139915Y-68497000D01*
X92997000Y-68497000D01*
X92743000Y-68497000D01*
X91600085Y-68497000D01*
X91478096Y-68719039D01*
X86643684Y-68719039D01*
X86713113Y-68370000D01*
X86603880Y-67820849D01*
X86292811Y-67355302D01*
X85910725Y-67100000D01*
X86292811Y-66844698D01*
X86603880Y-66379151D01*
X86713113Y-65830000D01*
X86603880Y-65280849D01*
X86292811Y-64815302D01*
X85910725Y-64560000D01*
X86292811Y-64304698D01*
X86603880Y-63839151D01*
X86713113Y-63290000D01*
X86603880Y-62740849D01*
X86292811Y-62275302D01*
X85910725Y-62020000D01*
X86292811Y-61764698D01*
X86603880Y-61299151D01*
X86713113Y-60750000D01*
X91406887Y-60750000D01*
X91516120Y-61299151D01*
X91827189Y-61764698D01*
X92209275Y-62020000D01*
X91827189Y-62275302D01*
X91516120Y-62740849D01*
X91406887Y-63290000D01*
X91485000Y-63682700D01*
X91485000Y-65437300D01*
X91406887Y-65830000D01*
X91516120Y-66379151D01*
X91827189Y-66844698D01*
X92231703Y-67114986D01*
X92014866Y-67217611D01*
X91638959Y-67632577D01*
X91478096Y-68020961D01*
X91600085Y-68243000D01*
X92743000Y-68243000D01*
X92743000Y-68223000D01*
X92997000Y-68223000D01*
X92997000Y-68243000D01*
X94139915Y-68243000D01*
X94261904Y-68020961D01*
X94101041Y-67632577D01*
X93725134Y-67217611D01*
X93508297Y-67114986D01*
X93912811Y-66844698D01*
X94223880Y-66379151D01*
X94333113Y-65830000D01*
X94331508Y-65821930D01*
X97107675Y-65821930D01*
X97175735Y-66062931D01*
X97695034Y-66247767D01*
X98245538Y-66219805D01*
X98624265Y-66062931D01*
X98692325Y-65821930D01*
X97900000Y-65029605D01*
X97107675Y-65821930D01*
X94331508Y-65821930D01*
X94255000Y-65437300D01*
X94255000Y-64645034D01*
X96502233Y-64645034D01*
X96530195Y-65195538D01*
X96687069Y-65574265D01*
X96928070Y-65642325D01*
X97720395Y-64850000D01*
X98079605Y-64850000D01*
X98871930Y-65642325D01*
X99112931Y-65574265D01*
X99297767Y-65054966D01*
X99269805Y-64504462D01*
X99112931Y-64125735D01*
X98871930Y-64057675D01*
X98079605Y-64850000D01*
X97720395Y-64850000D01*
X96928070Y-64057675D01*
X96687069Y-64125735D01*
X96502233Y-64645034D01*
X94255000Y-64645034D01*
X94255000Y-63878070D01*
X97107675Y-63878070D01*
X97900000Y-64670395D01*
X98692325Y-63878070D01*
X98624265Y-63637069D01*
X98104966Y-63452233D01*
X97554462Y-63480195D01*
X97175735Y-63637069D01*
X97107675Y-63878070D01*
X94255000Y-63878070D01*
X94255000Y-63682700D01*
X94333113Y-63290000D01*
X94223880Y-62740849D01*
X93912811Y-62275302D01*
X93702835Y-62135000D01*
X95250000Y-62135000D01*
X95780017Y-62029573D01*
X95828107Y-61997440D01*
X95850000Y-61997440D01*
X96085317Y-61953162D01*
X96301441Y-61814090D01*
X96439020Y-61612735D01*
X97066870Y-61612735D01*
X97116383Y-61838164D01*
X97581036Y-61997807D01*
X98071413Y-61967482D01*
X98383617Y-61838164D01*
X98433130Y-61612735D01*
X97750000Y-60929605D01*
X97066870Y-61612735D01*
X96439020Y-61612735D01*
X96446431Y-61601890D01*
X96497440Y-61350000D01*
X96497440Y-61328107D01*
X96529573Y-61280017D01*
X96558561Y-61134286D01*
X96661836Y-61383617D01*
X96887265Y-61433130D01*
X97570395Y-60750000D01*
X97929605Y-60750000D01*
X98612735Y-61433130D01*
X98838164Y-61383617D01*
X98997807Y-60918964D01*
X98967482Y-60428587D01*
X98838164Y-60116383D01*
X98612735Y-60066870D01*
X97929605Y-60750000D01*
X97570395Y-60750000D01*
X96887265Y-60066870D01*
X96661836Y-60116383D01*
X96565018Y-60398178D01*
X96529573Y-60219983D01*
X96497440Y-60171893D01*
X96497440Y-60150000D01*
X96453162Y-59914683D01*
X96435519Y-59887265D01*
X97066870Y-59887265D01*
X97750000Y-60570395D01*
X98433130Y-59887265D01*
X98383617Y-59661836D01*
X97918964Y-59502193D01*
X97428587Y-59532518D01*
X97116383Y-59661836D01*
X97066870Y-59887265D01*
X96435519Y-59887265D01*
X96314090Y-59698559D01*
X96101890Y-59553569D01*
X95850000Y-59502560D01*
X95828107Y-59502560D01*
X95780017Y-59470427D01*
X95250000Y-59365000D01*
X93149480Y-59365000D01*
X92898113Y-59315000D01*
X92841887Y-59315000D01*
X92292736Y-59424233D01*
X91827189Y-59735302D01*
X91516120Y-60200849D01*
X91406887Y-60750000D01*
X86713113Y-60750000D01*
X86603880Y-60200849D01*
X86292811Y-59735302D01*
X85827264Y-59424233D01*
X85278113Y-59315000D01*
X85221887Y-59315000D01*
X84970520Y-59365000D01*
X79426702Y-59365000D01*
X78826547Y-59115794D01*
X78176306Y-59115226D01*
X77575345Y-59363538D01*
X77573880Y-59365000D01*
X74000000Y-59365000D01*
X73469983Y-59470427D01*
X73073570Y-59735302D01*
X73020657Y-59770657D01*
X71308098Y-61483216D01*
X71188200Y-61532757D01*
X70784176Y-61936077D01*
X70565250Y-62463309D01*
X70564752Y-63034187D01*
X70782757Y-63561800D01*
X71186077Y-63965824D01*
X71713309Y-64184750D01*
X72284187Y-64185248D01*
X72811800Y-63967243D01*
X73215824Y-63563923D01*
X73266284Y-63442402D01*
X74573686Y-62135000D01*
X77573298Y-62135000D01*
X78173453Y-62384206D01*
X78823694Y-62384774D01*
X79424655Y-62136462D01*
X79426120Y-62135000D01*
X80343546Y-62135000D01*
X80080657Y-62310657D01*
X77520657Y-64870657D01*
X77220427Y-65319983D01*
X77115000Y-65850000D01*
X77115000Y-69983298D01*
X76865794Y-70583453D01*
X76865792Y-70585522D01*
X69122592Y-78328722D01*
X68826547Y-78205794D01*
X68176306Y-78205226D01*
X67575345Y-78453538D01*
X67115154Y-78912927D01*
X66865794Y-79513453D01*
X66865226Y-80163694D01*
X67113538Y-80764655D01*
X67572927Y-81224846D01*
X68173453Y-81474206D01*
X68823694Y-81474774D01*
X69424655Y-81226462D01*
X69426120Y-81225000D01*
X69570000Y-81225000D01*
X70100017Y-81119573D01*
X70549343Y-80819343D01*
X78824066Y-72544620D01*
X79373867Y-72317447D01*
X77720657Y-73970657D01*
X77420427Y-74419983D01*
X77315000Y-74950000D01*
X77315000Y-84376314D01*
X69326314Y-92365000D01*
X61426702Y-92365000D01*
X60826547Y-92115794D01*
X60176306Y-92115226D01*
X59575345Y-92363538D01*
X59385000Y-92553551D01*
X59385000Y-81323686D01*
X59863686Y-80845000D01*
X60167165Y-80845000D01*
X59957189Y-80985302D01*
X59646120Y-81450849D01*
X59536887Y-82000000D01*
X59646120Y-82549151D01*
X59957189Y-83014698D01*
X60422736Y-83325767D01*
X60971887Y-83435000D01*
X61028113Y-83435000D01*
X61279480Y-83385000D01*
X61476314Y-83385000D01*
X63615000Y-85523686D01*
X63615000Y-88983298D01*
X63365794Y-89583453D01*
X63365226Y-90233694D01*
X63613538Y-90834655D01*
X64072927Y-91294846D01*
X64673453Y-91544206D01*
X65323694Y-91544774D01*
X65924655Y-91296462D01*
X65926120Y-91295000D01*
X67483238Y-91295000D01*
X67572927Y-91384846D01*
X68173453Y-91634206D01*
X68823694Y-91634774D01*
X69424655Y-91386462D01*
X69884846Y-90927073D01*
X70134206Y-90326547D01*
X70134774Y-89676306D01*
X69886462Y-89075345D01*
X69427073Y-88615154D01*
X68826547Y-88365794D01*
X68176306Y-88365226D01*
X67789623Y-88525000D01*
X66385000Y-88525000D01*
X66385000Y-84950000D01*
X66279573Y-84419983D01*
X65979343Y-83970657D01*
X63029343Y-81020657D01*
X62883274Y-80923057D01*
X62766454Y-80845000D01*
X63783586Y-80845000D01*
X64072927Y-81134846D01*
X64673453Y-81384206D01*
X65323694Y-81384774D01*
X65924655Y-81136462D01*
X66384846Y-80677073D01*
X66634206Y-80076547D01*
X66634774Y-79426306D01*
X66386462Y-78825345D01*
X65927073Y-78365154D01*
X65326547Y-78115794D01*
X64913270Y-78115433D01*
X64710000Y-78075000D01*
X61832835Y-78075000D01*
X62042811Y-77934698D01*
X62353880Y-77469151D01*
X62463113Y-76920000D01*
X62353880Y-76370849D01*
X62042811Y-75905302D01*
X61832835Y-75765000D01*
X62948172Y-75765000D01*
X62969984Y-75779574D01*
X63500000Y-75885000D01*
X64030016Y-75779574D01*
X64078108Y-75747440D01*
X64100000Y-75747440D01*
X64335317Y-75703162D01*
X64551441Y-75564090D01*
X64689020Y-75362735D01*
X65316870Y-75362735D01*
X65366383Y-75588164D01*
X65831036Y-75747807D01*
X66321413Y-75717482D01*
X66633617Y-75588164D01*
X66683130Y-75362735D01*
X66000000Y-74679605D01*
X65316870Y-75362735D01*
X64689020Y-75362735D01*
X64696431Y-75351890D01*
X64747440Y-75100000D01*
X64747440Y-75078108D01*
X64779574Y-75030016D01*
X64808561Y-74884287D01*
X64911836Y-75133617D01*
X65137265Y-75183130D01*
X65820395Y-74500000D01*
X66179605Y-74500000D01*
X66862735Y-75183130D01*
X67088164Y-75133617D01*
X67247807Y-74668964D01*
X67217482Y-74178587D01*
X67088164Y-73866383D01*
X66862735Y-73816870D01*
X66179605Y-74500000D01*
X65820395Y-74500000D01*
X65137265Y-73816870D01*
X64911836Y-73866383D01*
X64815019Y-74148177D01*
X64779574Y-73969984D01*
X64747440Y-73921892D01*
X64747440Y-73900000D01*
X64703162Y-73664683D01*
X64685519Y-73637265D01*
X65316870Y-73637265D01*
X66000000Y-74320395D01*
X66683130Y-73637265D01*
X66633617Y-73411836D01*
X66168964Y-73252193D01*
X65678587Y-73282518D01*
X65366383Y-73411836D01*
X65316870Y-73637265D01*
X64685519Y-73637265D01*
X64564090Y-73448559D01*
X64351890Y-73303569D01*
X64154095Y-73263514D01*
X63910017Y-73100427D01*
X63380000Y-72995000D01*
X61279480Y-72995000D01*
X61028113Y-72945000D01*
X60971887Y-72945000D01*
X60422736Y-73054233D01*
X60385000Y-73079447D01*
X60385000Y-71152163D01*
X62687443Y-71152163D01*
X62786042Y-71418965D01*
X63395582Y-71645401D01*
X64045377Y-71621341D01*
X64533958Y-71418965D01*
X64632557Y-71152163D01*
X63660000Y-70179605D01*
X62687443Y-71152163D01*
X60385000Y-71152163D01*
X60385000Y-69735582D01*
X62014599Y-69735582D01*
X62038659Y-70385377D01*
X62241035Y-70873958D01*
X62507837Y-70972557D01*
X63480395Y-70000000D01*
X63839605Y-70000000D01*
X64812163Y-70972557D01*
X65078965Y-70873958D01*
X65305401Y-70264418D01*
X65281341Y-69614623D01*
X65078965Y-69126042D01*
X64812163Y-69027443D01*
X63839605Y-70000000D01*
X63480395Y-70000000D01*
X62507837Y-69027443D01*
X62241035Y-69126042D01*
X62014599Y-69735582D01*
X60385000Y-69735582D01*
X60385000Y-68847837D01*
X62687443Y-68847837D01*
X63660000Y-69820395D01*
X64632557Y-68847837D01*
X64533958Y-68581035D01*
X63924418Y-68354599D01*
X63274623Y-68378659D01*
X62786042Y-68581035D01*
X62687443Y-68847837D01*
X60385000Y-68847837D01*
X60385000Y-68152847D01*
X60424655Y-68136462D01*
X60659363Y-67902163D01*
X68687443Y-67902163D01*
X68786042Y-68168965D01*
X69395582Y-68395401D01*
X70045377Y-68371341D01*
X70533958Y-68168965D01*
X70632557Y-67902163D01*
X69660000Y-66929605D01*
X68687443Y-67902163D01*
X60659363Y-67902163D01*
X60884846Y-67677073D01*
X61134206Y-67076547D01*
X61134722Y-66485582D01*
X68014599Y-66485582D01*
X68038659Y-67135377D01*
X68241035Y-67623958D01*
X68507837Y-67722557D01*
X69480395Y-66750000D01*
X69839605Y-66750000D01*
X70812163Y-67722557D01*
X71078965Y-67623958D01*
X71305401Y-67014418D01*
X71281341Y-66364623D01*
X71078965Y-65876042D01*
X70812163Y-65777443D01*
X69839605Y-66750000D01*
X69480395Y-66750000D01*
X68507837Y-65777443D01*
X68241035Y-65876042D01*
X68014599Y-66485582D01*
X61134722Y-66485582D01*
X61134774Y-66426306D01*
X60886462Y-65825345D01*
X60659351Y-65597837D01*
X68687443Y-65597837D01*
X69660000Y-66570395D01*
X70632557Y-65597837D01*
X70533958Y-65331035D01*
X69924418Y-65104599D01*
X69274623Y-65128659D01*
X68786042Y-65331035D01*
X68687443Y-65597837D01*
X60659351Y-65597837D01*
X60427073Y-65365154D01*
X60385000Y-65347684D01*
X60385000Y-61823686D01*
X61479343Y-60729343D01*
X61565767Y-60600000D01*
X61779573Y-60280017D01*
X61885000Y-59750000D01*
X61885000Y-56899016D01*
X64780590Y-56899016D01*
X64836271Y-57129611D01*
X65319078Y-57297622D01*
X65829428Y-57268083D01*
X66163729Y-57129611D01*
X66219410Y-56899016D01*
X65500000Y-56179605D01*
X64780590Y-56899016D01*
X61885000Y-56899016D01*
X61885000Y-56000000D01*
X61849013Y-55819078D01*
X64202378Y-55819078D01*
X64231917Y-56329428D01*
X64370389Y-56663729D01*
X64600984Y-56719410D01*
X65320395Y-56000000D01*
X65679605Y-56000000D01*
X66399016Y-56719410D01*
X66629611Y-56663729D01*
X66797622Y-56180922D01*
X66768083Y-55670572D01*
X66629611Y-55336271D01*
X66399016Y-55280590D01*
X65679605Y-56000000D01*
X65320395Y-56000000D01*
X64600984Y-55280590D01*
X64370389Y-55336271D01*
X64202378Y-55819078D01*
X61849013Y-55819078D01*
X61797440Y-55559806D01*
X61797440Y-55350000D01*
X61753162Y-55114683D01*
X61744347Y-55100984D01*
X64780590Y-55100984D01*
X65500000Y-55820395D01*
X66219410Y-55100984D01*
X66163729Y-54870389D01*
X65680922Y-54702378D01*
X65170572Y-54731917D01*
X64836271Y-54870389D01*
X64780590Y-55100984D01*
X61744347Y-55100984D01*
X61614090Y-54898559D01*
X61401890Y-54753569D01*
X61164102Y-54705416D01*
X60031970Y-53573284D01*
X60204746Y-53640423D01*
X61012929Y-53622586D01*
X61676744Y-53347625D01*
X61823950Y-53039556D01*
X60564000Y-51779605D01*
X60549858Y-51793748D01*
X60370252Y-51614142D01*
X60384395Y-51600000D01*
X60743605Y-51600000D01*
X62003556Y-52859950D01*
X62311625Y-52712744D01*
X62604423Y-51959254D01*
X62586586Y-51151071D01*
X62365518Y-50617364D01*
X82144678Y-50617364D01*
X82426490Y-51299401D01*
X82947855Y-51821676D01*
X83629399Y-52104678D01*
X84367364Y-52105322D01*
X85049401Y-51823510D01*
X85571676Y-51302145D01*
X85854678Y-50620601D01*
X85855322Y-49882636D01*
X85573510Y-49200599D01*
X85052145Y-48678324D01*
X84370601Y-48395322D01*
X83632636Y-48394678D01*
X82950599Y-48676490D01*
X82428324Y-49197855D01*
X82145322Y-49879399D01*
X82144678Y-50617364D01*
X62365518Y-50617364D01*
X62311625Y-50487256D01*
X62003556Y-50340050D01*
X60743605Y-51600000D01*
X60384395Y-51600000D01*
X59124444Y-50340050D01*
X58816375Y-50487256D01*
X58532334Y-51218211D01*
X58532352Y-51197584D01*
X58223650Y-50450468D01*
X57934132Y-50160444D01*
X59304050Y-50160444D01*
X60564000Y-51420395D01*
X61823950Y-50160444D01*
X61676744Y-49852375D01*
X60923254Y-49559577D01*
X60115071Y-49577414D01*
X59451256Y-49852375D01*
X59304050Y-50160444D01*
X57934132Y-50160444D01*
X57652538Y-49878359D01*
X56905963Y-49568354D01*
X56097584Y-49567648D01*
X55350468Y-49876350D01*
X54778359Y-50447462D01*
X54468354Y-51194037D01*
X54468351Y-51197581D01*
X54159650Y-50450468D01*
X53588538Y-49878359D01*
X52841963Y-49568354D01*
X52033584Y-49567648D01*
X51286468Y-49876350D01*
X50714359Y-50447462D01*
X50404354Y-51194037D01*
X50403648Y-52002416D01*
X50712350Y-52749532D01*
X51115000Y-53152885D01*
X51115000Y-59750000D01*
X51220427Y-60280017D01*
X51434233Y-60600000D01*
X51520657Y-60729343D01*
X52615000Y-61823686D01*
X52615000Y-68597153D01*
X52575345Y-68613538D01*
X52115154Y-69072927D01*
X51865794Y-69673453D01*
X51865226Y-70323694D01*
X51995000Y-70637771D01*
X51995000Y-73987300D01*
X51916887Y-74380000D01*
X52026120Y-74929151D01*
X52337189Y-75394698D01*
X52547165Y-75535000D01*
X51346623Y-75535000D01*
X51177073Y-75365154D01*
X50576547Y-75115794D01*
X49926306Y-75115226D01*
X49325345Y-75363538D01*
X49323880Y-75365000D01*
X47926702Y-75365000D01*
X47326547Y-75115794D01*
X46676306Y-75115226D01*
X46075345Y-75363538D01*
X45615154Y-75822927D01*
X45365794Y-76423453D01*
X45365226Y-77073694D01*
X45613538Y-77674655D01*
X46072927Y-78134846D01*
X46673453Y-78384206D01*
X47323694Y-78384774D01*
X47924655Y-78136462D01*
X47926120Y-78135000D01*
X49323298Y-78135000D01*
X49923453Y-78384206D01*
X50254573Y-78384495D01*
X50148825Y-78455154D01*
X50110657Y-78480657D01*
X49270657Y-79320657D01*
X48970427Y-79769983D01*
X48865000Y-80300000D01*
X48865000Y-85983298D01*
X48624717Y-86561965D01*
X48386462Y-85985345D01*
X47927073Y-85525154D01*
X47326547Y-85275794D01*
X46676306Y-85275226D01*
X46075345Y-85523538D01*
X45615154Y-85982927D01*
X45365794Y-86583453D01*
X45365226Y-87233694D01*
X45613538Y-87834655D01*
X45615000Y-87836120D01*
X45615000Y-97623000D01*
X43377000Y-97623000D01*
X43377000Y-56899016D01*
X46780590Y-56899016D01*
X46836271Y-57129611D01*
X47319078Y-57297622D01*
X47829428Y-57268083D01*
X48163729Y-57129611D01*
X48219410Y-56899016D01*
X47500000Y-56179605D01*
X46780590Y-56899016D01*
X43377000Y-56899016D01*
X43377000Y-55819078D01*
X46202378Y-55819078D01*
X46231917Y-56329428D01*
X46370389Y-56663729D01*
X46600984Y-56719410D01*
X47320395Y-56000000D01*
X47679605Y-56000000D01*
X48399016Y-56719410D01*
X48629611Y-56663729D01*
X48797622Y-56180922D01*
X48768083Y-55670572D01*
X48629611Y-55336271D01*
X48399016Y-55280590D01*
X47679605Y-56000000D01*
X47320395Y-56000000D01*
X46600984Y-55280590D01*
X46370389Y-55336271D01*
X46202378Y-55819078D01*
X43377000Y-55819078D01*
X43377000Y-55100984D01*
X46780590Y-55100984D01*
X47500000Y-55820395D01*
X48219410Y-55100984D01*
X48163729Y-54870389D01*
X47680922Y-54702378D01*
X47170572Y-54731917D01*
X46836271Y-54870389D01*
X46780590Y-55100984D01*
X43377000Y-55100984D01*
X43377000Y-47023021D01*
X53959560Y-47023021D01*
X54345437Y-47956915D01*
X55059327Y-48672052D01*
X55992546Y-49059559D01*
X57003021Y-49060440D01*
X57936915Y-48674563D01*
X58652052Y-47960673D01*
X59039559Y-47027454D01*
X59039626Y-46950000D01*
X70552560Y-46950000D01*
X70552560Y-48550000D01*
X70596838Y-48785317D01*
X70735910Y-49001441D01*
X70948110Y-49146431D01*
X71200000Y-49197440D01*
X72800000Y-49197440D01*
X73035317Y-49153162D01*
X73125703Y-49095000D01*
X76722359Y-49095000D01*
X76722637Y-49095278D01*
X77323352Y-49344716D01*
X77973795Y-49345284D01*
X78574943Y-49096894D01*
X79035278Y-48637363D01*
X79284716Y-48036648D01*
X79284718Y-48033795D01*
X86174716Y-48033795D01*
X86423106Y-48634943D01*
X86882637Y-49095278D01*
X87483352Y-49344716D01*
X88133795Y-49345284D01*
X88734943Y-49096894D01*
X89195278Y-48637363D01*
X89444716Y-48036648D01*
X89445284Y-47386205D01*
X89196894Y-46785057D01*
X88737363Y-46324722D01*
X88136648Y-46075284D01*
X87486205Y-46074716D01*
X86885057Y-46323106D01*
X86424722Y-46782637D01*
X86175284Y-47383352D01*
X86174716Y-48033795D01*
X79284718Y-48033795D01*
X79285284Y-47386205D01*
X79036894Y-46785057D01*
X78577363Y-46324722D01*
X77976648Y-46075284D01*
X77326205Y-46074716D01*
X76725057Y-46323106D01*
X76723160Y-46325000D01*
X72910812Y-46325000D01*
X72800000Y-46302560D01*
X71200000Y-46302560D01*
X70964683Y-46346838D01*
X70748559Y-46485910D01*
X70603569Y-46698110D01*
X70552560Y-46950000D01*
X59039626Y-46950000D01*
X59040440Y-46016979D01*
X58654563Y-45083085D01*
X57940673Y-44367948D01*
X57007454Y-43980441D01*
X55996979Y-43979560D01*
X55063085Y-44365437D01*
X54347948Y-45079327D01*
X53960441Y-46012546D01*
X53959560Y-47023021D01*
X43377000Y-47023021D01*
X43377000Y-42953795D01*
X78554716Y-42953795D01*
X78803106Y-43554943D01*
X79262637Y-44015278D01*
X79863352Y-44264716D01*
X79883623Y-44264734D01*
X80279983Y-44529573D01*
X80810000Y-44635000D01*
X93573298Y-44635000D01*
X94173453Y-44884206D01*
X94823694Y-44884774D01*
X95424655Y-44636462D01*
X95884846Y-44177073D01*
X96134206Y-43576547D01*
X96134774Y-42926306D01*
X95886462Y-42325345D01*
X95427073Y-41865154D01*
X94826547Y-41615794D01*
X94176306Y-41615226D01*
X93575345Y-41863538D01*
X93573880Y-41865000D01*
X81642981Y-41865000D01*
X81576894Y-41705057D01*
X81117363Y-41244722D01*
X80516648Y-40995284D01*
X79866205Y-40994716D01*
X79265057Y-41243106D01*
X78804722Y-41702637D01*
X78555284Y-42303352D01*
X78554716Y-42953795D01*
X43377000Y-42953795D01*
X43377000Y-37917364D01*
X78334678Y-37917364D01*
X78616490Y-38599401D01*
X79137855Y-39121676D01*
X79819399Y-39404678D01*
X80557364Y-39405322D01*
X81239401Y-39123510D01*
X81761676Y-38602145D01*
X82044678Y-37920601D01*
X82044680Y-37917364D01*
X85954678Y-37917364D01*
X86236490Y-38599401D01*
X86757855Y-39121676D01*
X87439399Y-39404678D01*
X88177364Y-39405322D01*
X88859401Y-39123510D01*
X89381676Y-38602145D01*
X89664678Y-37920601D01*
X89665322Y-37182636D01*
X89383510Y-36500599D01*
X88862145Y-35978324D01*
X88180601Y-35695322D01*
X87442636Y-35694678D01*
X86760599Y-35976490D01*
X86238324Y-36497855D01*
X85955322Y-37179399D01*
X85954678Y-37917364D01*
X82044680Y-37917364D01*
X82045322Y-37182636D01*
X81763510Y-36500599D01*
X81426033Y-36162532D01*
X83027073Y-36162532D01*
X83125736Y-36429387D01*
X83735461Y-36655908D01*
X84385460Y-36631856D01*
X84874264Y-36429387D01*
X84972927Y-36162532D01*
X84000000Y-35189605D01*
X83027073Y-36162532D01*
X81426033Y-36162532D01*
X81242145Y-35978324D01*
X80560601Y-35695322D01*
X79822636Y-35694678D01*
X79140599Y-35976490D01*
X78618324Y-36497855D01*
X78335322Y-37179399D01*
X78334678Y-37917364D01*
X43377000Y-37917364D01*
X43377000Y-34745461D01*
X82354092Y-34745461D01*
X82378144Y-35395460D01*
X82580613Y-35884264D01*
X82847468Y-35982927D01*
X83820395Y-35010000D01*
X84179605Y-35010000D01*
X85152532Y-35982927D01*
X85419387Y-35884264D01*
X85623893Y-35333795D01*
X88714716Y-35333795D01*
X88963106Y-35934943D01*
X89422637Y-36395278D01*
X90023352Y-36644716D01*
X90673795Y-36645284D01*
X91274943Y-36396894D01*
X91735278Y-35937363D01*
X91984716Y-35336648D01*
X91985284Y-34686205D01*
X91801810Y-34242163D01*
X93527443Y-34242163D01*
X93626042Y-34508965D01*
X94235582Y-34735401D01*
X94885377Y-34711341D01*
X95373958Y-34508965D01*
X95472557Y-34242163D01*
X94500000Y-33269605D01*
X93527443Y-34242163D01*
X91801810Y-34242163D01*
X91736894Y-34085057D01*
X91277363Y-33624722D01*
X90676648Y-33375284D01*
X90026205Y-33374716D01*
X89425057Y-33623106D01*
X88964722Y-34082637D01*
X88715284Y-34683352D01*
X88714716Y-35333795D01*
X85623893Y-35333795D01*
X85645908Y-35274539D01*
X85621856Y-34624540D01*
X85419387Y-34135736D01*
X85152532Y-34037073D01*
X84179605Y-35010000D01*
X83820395Y-35010000D01*
X82847468Y-34037073D01*
X82580613Y-34135736D01*
X82354092Y-34745461D01*
X43377000Y-34745461D01*
X43377000Y-33857468D01*
X83027073Y-33857468D01*
X84000000Y-34830395D01*
X84972927Y-33857468D01*
X84874264Y-33590613D01*
X84264539Y-33364092D01*
X83614540Y-33388144D01*
X83125736Y-33590613D01*
X83027073Y-33857468D01*
X43377000Y-33857468D01*
X43377000Y-32825582D01*
X92854599Y-32825582D01*
X92878659Y-33475377D01*
X93081035Y-33963958D01*
X93347837Y-34062557D01*
X94320395Y-33090000D01*
X94679605Y-33090000D01*
X95652163Y-34062557D01*
X95918965Y-33963958D01*
X96145401Y-33354418D01*
X96121341Y-32704623D01*
X95918965Y-32216042D01*
X95652163Y-32117443D01*
X94679605Y-33090000D01*
X94320395Y-33090000D01*
X93347837Y-32117443D01*
X93081035Y-32216042D01*
X92854599Y-32825582D01*
X43377000Y-32825582D01*
X43377000Y-31937837D01*
X93527443Y-31937837D01*
X94500000Y-32910395D01*
X95472557Y-31937837D01*
X95373958Y-31671035D01*
X94764418Y-31444599D01*
X94114623Y-31468659D01*
X93626042Y-31671035D01*
X93527443Y-31937837D01*
X43377000Y-31937837D01*
X43377000Y-30885000D01*
X99373000Y-30885000D01*
X99373000Y-69965000D01*
G36*
X54776350Y-52749532D02*
X55347462Y-53321641D01*
X56094037Y-53631646D01*
X56173029Y-53631715D01*
X59115000Y-56573686D01*
X59115000Y-59176314D01*
X58020657Y-60270657D01*
X57720427Y-60719983D01*
X57615000Y-61250000D01*
X57615000Y-75550000D01*
X57720427Y-76080017D01*
X57951810Y-76426306D01*
X58020657Y-76529343D01*
X59390657Y-77899343D01*
X59653546Y-78075000D01*
X59290000Y-78075000D01*
X58759983Y-78180427D01*
X58348825Y-78455154D01*
X58310657Y-78480657D01*
X57020657Y-79770657D01*
X56720427Y-80219983D01*
X56615000Y-80750000D01*
X56615000Y-84655440D01*
X56168964Y-84502193D01*
X55678587Y-84532518D01*
X55366383Y-84661836D01*
X55316870Y-84887265D01*
X56000000Y-85570395D01*
X56014143Y-85556253D01*
X56193748Y-85735858D01*
X56179605Y-85750000D01*
X56193748Y-85764143D01*
X56014143Y-85943748D01*
X56000000Y-85929605D01*
X55316870Y-86612735D01*
X55366383Y-86838164D01*
X55831036Y-86997807D01*
X56321413Y-86967482D01*
X56615000Y-86845875D01*
X56615000Y-97623000D01*
X48385000Y-97623000D01*
X48385000Y-87836702D01*
X48625283Y-87258035D01*
X48863538Y-87834655D01*
X48865000Y-87836120D01*
X48865000Y-93040042D01*
X48705794Y-93423453D01*
X48705226Y-94073694D01*
X48953538Y-94674655D01*
X49412927Y-95134846D01*
X50013453Y-95384206D01*
X50663694Y-95384774D01*
X51264655Y-95136462D01*
X51724846Y-94677073D01*
X51974206Y-94076547D01*
X51974774Y-93426306D01*
X51726462Y-92825345D01*
X51635000Y-92733723D01*
X51635000Y-87836702D01*
X51884206Y-87236547D01*
X51884774Y-86586306D01*
X51636462Y-85985345D01*
X51635000Y-85983880D01*
X51635000Y-80873686D01*
X51663686Y-80845000D01*
X52547165Y-80845000D01*
X52337189Y-80985302D01*
X52026120Y-81450849D01*
X51916887Y-82000000D01*
X52026120Y-82549151D01*
X52115000Y-82682169D01*
X52115000Y-85750000D01*
X52220427Y-86280017D01*
X52252560Y-86328107D01*
X52252560Y-86350000D01*
X52296838Y-86585317D01*
X52435910Y-86801441D01*
X52648110Y-86946431D01*
X52900000Y-86997440D01*
X52921893Y-86997440D01*
X52969983Y-87029573D01*
X53500000Y-87135000D01*
X54030017Y-87029573D01*
X54078107Y-86997440D01*
X54100000Y-86997440D01*
X54335317Y-86953162D01*
X54551441Y-86814090D01*
X54696431Y-86601890D01*
X54747440Y-86350000D01*
X54747440Y-86328107D01*
X54779573Y-86280017D01*
X54808561Y-86134286D01*
X54911836Y-86383617D01*
X55137265Y-86433130D01*
X55820395Y-85750000D01*
X55137265Y-85066870D01*
X54911836Y-85116383D01*
X54885000Y-85194491D01*
X54885000Y-82120000D01*
X54861131Y-82000000D01*
X54779574Y-81589984D01*
X54753918Y-81551587D01*
X54733880Y-81450849D01*
X54422811Y-80985302D01*
X54040725Y-80730000D01*
X54422811Y-80474698D01*
X54733880Y-80009151D01*
X54843113Y-79460000D01*
X54733880Y-78910849D01*
X54422811Y-78445302D01*
X54040725Y-78190000D01*
X54422811Y-77934698D01*
X54733880Y-77469151D01*
X54843113Y-76920000D01*
X54733880Y-76370849D01*
X54422811Y-75905302D01*
X54040725Y-75650000D01*
X54422811Y-75394698D01*
X54733880Y-74929151D01*
X54843113Y-74380000D01*
X54765000Y-73987300D01*
X54765000Y-71046710D01*
X54884846Y-70927073D01*
X55134206Y-70326547D01*
X55134275Y-70247471D01*
X55279573Y-70030017D01*
X55385000Y-69500000D01*
X55385000Y-61250000D01*
X55297440Y-60809806D01*
X55297440Y-60600000D01*
X55253162Y-60364683D01*
X55114090Y-60148559D01*
X54901890Y-60003569D01*
X54664102Y-59955416D01*
X53885000Y-59176314D01*
X53885000Y-57057265D01*
X54594670Y-57057265D01*
X54884078Y-57757686D01*
X55419495Y-58294039D01*
X56119410Y-58584668D01*
X56877265Y-58585330D01*
X57577686Y-58295922D01*
X58114039Y-57760505D01*
X58404668Y-57060590D01*
X58405330Y-56302735D01*
X58115922Y-55602314D01*
X57580505Y-55065961D01*
X56880590Y-54775332D01*
X56122735Y-54774670D01*
X55422314Y-55064078D01*
X54885961Y-55599495D01*
X54595332Y-56299410D01*
X54594670Y-57057265D01*
X53885000Y-57057265D01*
X53885000Y-53024704D01*
X54157641Y-52752538D01*
X54467646Y-52005963D01*
X54467649Y-52002419D01*
X54776350Y-52749532D01*
X54776350Y-52749532D01*
G37*
X54776350Y-52749532D02*
X55347462Y-53321641D01*
X56094037Y-53631646D01*
X56173029Y-53631715D01*
X59115000Y-56573686D01*
X59115000Y-59176314D01*
X58020657Y-60270657D01*
X57720427Y-60719983D01*
X57615000Y-61250000D01*
X57615000Y-75550000D01*
X57720427Y-76080017D01*
X57951810Y-76426306D01*
X58020657Y-76529343D01*
X59390657Y-77899343D01*
X59653546Y-78075000D01*
X59290000Y-78075000D01*
X58759983Y-78180427D01*
X58348825Y-78455154D01*
X58310657Y-78480657D01*
X57020657Y-79770657D01*
X56720427Y-80219983D01*
X56615000Y-80750000D01*
X56615000Y-84655440D01*
X56168964Y-84502193D01*
X55678587Y-84532518D01*
X55366383Y-84661836D01*
X55316870Y-84887265D01*
X56000000Y-85570395D01*
X56014143Y-85556253D01*
X56193748Y-85735858D01*
X56179605Y-85750000D01*
X56193748Y-85764143D01*
X56014143Y-85943748D01*
X56000000Y-85929605D01*
X55316870Y-86612735D01*
X55366383Y-86838164D01*
X55831036Y-86997807D01*
X56321413Y-86967482D01*
X56615000Y-86845875D01*
X56615000Y-97623000D01*
X48385000Y-97623000D01*
X48385000Y-87836702D01*
X48625283Y-87258035D01*
X48863538Y-87834655D01*
X48865000Y-87836120D01*
X48865000Y-93040042D01*
X48705794Y-93423453D01*
X48705226Y-94073694D01*
X48953538Y-94674655D01*
X49412927Y-95134846D01*
X50013453Y-95384206D01*
X50663694Y-95384774D01*
X51264655Y-95136462D01*
X51724846Y-94677073D01*
X51974206Y-94076547D01*
X51974774Y-93426306D01*
X51726462Y-92825345D01*
X51635000Y-92733723D01*
X51635000Y-87836702D01*
X51884206Y-87236547D01*
X51884774Y-86586306D01*
X51636462Y-85985345D01*
X51635000Y-85983880D01*
X51635000Y-80873686D01*
X51663686Y-80845000D01*
X52547165Y-80845000D01*
X52337189Y-80985302D01*
X52026120Y-81450849D01*
X51916887Y-82000000D01*
X52026120Y-82549151D01*
X52115000Y-82682169D01*
X52115000Y-85750000D01*
X52220427Y-86280017D01*
X52252560Y-86328107D01*
X52252560Y-86350000D01*
X52296838Y-86585317D01*
X52435910Y-86801441D01*
X52648110Y-86946431D01*
X52900000Y-86997440D01*
X52921893Y-86997440D01*
X52969983Y-87029573D01*
X53500000Y-87135000D01*
X54030017Y-87029573D01*
X54078107Y-86997440D01*
X54100000Y-86997440D01*
X54335317Y-86953162D01*
X54551441Y-86814090D01*
X54696431Y-86601890D01*
X54747440Y-86350000D01*
X54747440Y-86328107D01*
X54779573Y-86280017D01*
X54808561Y-86134286D01*
X54911836Y-86383617D01*
X55137265Y-86433130D01*
X55820395Y-85750000D01*
X55137265Y-85066870D01*
X54911836Y-85116383D01*
X54885000Y-85194491D01*
X54885000Y-82120000D01*
X54861131Y-82000000D01*
X54779574Y-81589984D01*
X54753918Y-81551587D01*
X54733880Y-81450849D01*
X54422811Y-80985302D01*
X54040725Y-80730000D01*
X54422811Y-80474698D01*
X54733880Y-80009151D01*
X54843113Y-79460000D01*
X54733880Y-78910849D01*
X54422811Y-78445302D01*
X54040725Y-78190000D01*
X54422811Y-77934698D01*
X54733880Y-77469151D01*
X54843113Y-76920000D01*
X54733880Y-76370849D01*
X54422811Y-75905302D01*
X54040725Y-75650000D01*
X54422811Y-75394698D01*
X54733880Y-74929151D01*
X54843113Y-74380000D01*
X54765000Y-73987300D01*
X54765000Y-71046710D01*
X54884846Y-70927073D01*
X55134206Y-70326547D01*
X55134275Y-70247471D01*
X55279573Y-70030017D01*
X55385000Y-69500000D01*
X55385000Y-61250000D01*
X55297440Y-60809806D01*
X55297440Y-60600000D01*
X55253162Y-60364683D01*
X55114090Y-60148559D01*
X54901890Y-60003569D01*
X54664102Y-59955416D01*
X53885000Y-59176314D01*
X53885000Y-57057265D01*
X54594670Y-57057265D01*
X54884078Y-57757686D01*
X55419495Y-58294039D01*
X56119410Y-58584668D01*
X56877265Y-58585330D01*
X57577686Y-58295922D01*
X58114039Y-57760505D01*
X58404668Y-57060590D01*
X58405330Y-56302735D01*
X58115922Y-55602314D01*
X57580505Y-55065961D01*
X56880590Y-54775332D01*
X56122735Y-54774670D01*
X55422314Y-55064078D01*
X54885961Y-55599495D01*
X54595332Y-56299410D01*
X54594670Y-57057265D01*
X53885000Y-57057265D01*
X53885000Y-53024704D01*
X54157641Y-52752538D01*
X54467646Y-52005963D01*
X54467649Y-52002419D01*
X54776350Y-52749532D01*
G36*
X235638370Y-43025998D02*
X236252424Y-43211392D01*
X236818773Y-43512525D01*
X237315848Y-43917928D01*
X237724712Y-44412159D01*
X238029790Y-44976389D01*
X238219467Y-45589137D01*
X238290000Y-46260204D01*
X238290000Y-91215280D01*
X238224004Y-91888366D01*
X238038607Y-92502428D01*
X237737474Y-93068775D01*
X237332071Y-93565847D01*
X236837842Y-93974710D01*
X236273611Y-94279790D01*
X235660862Y-94469467D01*
X234989787Y-94540000D01*
X234750000Y-94540000D01*
X234612094Y-94553522D01*
X234479440Y-94593572D01*
X234439140Y-94615000D01*
X217250000Y-94615000D01*
X217168409Y-94623000D01*
X212842731Y-94623000D01*
X212772828Y-94615159D01*
X212750000Y-94615000D01*
X162250000Y-94615000D01*
X162168409Y-94623000D01*
X157842731Y-94623000D01*
X157772828Y-94615159D01*
X157750000Y-94615000D01*
X140561688Y-94615000D01*
X140529699Y-94597414D01*
X140397617Y-94555515D01*
X140259913Y-94540069D01*
X140250000Y-94540000D01*
X140034720Y-94540000D01*
X139361634Y-94474004D01*
X138747572Y-94288607D01*
X138181225Y-93987474D01*
X137684153Y-93582071D01*
X137275290Y-93087842D01*
X136970210Y-92523611D01*
X136780533Y-91910862D01*
X136732151Y-91450537D01*
X137611865Y-91450537D01*
X137696298Y-91910576D01*
X137868478Y-92345453D01*
X138121847Y-92738606D01*
X138446755Y-93075057D01*
X138830825Y-93341993D01*
X139259428Y-93529245D01*
X139716240Y-93629682D01*
X140183860Y-93639477D01*
X140644477Y-93558258D01*
X141080546Y-93389118D01*
X141475457Y-93138499D01*
X141814169Y-92815949D01*
X142083779Y-92433751D01*
X142274019Y-92006466D01*
X142377643Y-91550366D01*
X142379036Y-91450537D01*
X232611865Y-91450537D01*
X232696298Y-91910576D01*
X232868478Y-92345453D01*
X233121847Y-92738606D01*
X233446755Y-93075057D01*
X233830825Y-93341993D01*
X234259428Y-93529245D01*
X234716240Y-93629682D01*
X235183860Y-93639477D01*
X235644477Y-93558258D01*
X236080546Y-93389118D01*
X236475457Y-93138499D01*
X236814169Y-92815949D01*
X237083779Y-92433751D01*
X237274019Y-92006466D01*
X237377643Y-91550366D01*
X237385102Y-91016139D01*
X237294254Y-90557324D01*
X237116019Y-90124893D01*
X236857185Y-89735316D01*
X236527612Y-89403434D01*
X236139852Y-89141887D01*
X235708676Y-88960637D01*
X235250507Y-88866588D01*
X234782795Y-88863323D01*
X234323357Y-88950966D01*
X233889693Y-89126178D01*
X233498319Y-89382285D01*
X233164144Y-89709534D01*
X232899896Y-90095458D01*
X232715640Y-90525358D01*
X232618395Y-90982860D01*
X232611865Y-91450537D01*
X142379036Y-91450537D01*
X142385102Y-91016139D01*
X142294254Y-90557324D01*
X142116019Y-90124893D01*
X141857185Y-89735316D01*
X141527612Y-89403434D01*
X141139852Y-89141887D01*
X140708676Y-88960637D01*
X140250507Y-88866588D01*
X139782795Y-88863323D01*
X139323357Y-88950966D01*
X138889693Y-89126178D01*
X138498319Y-89382285D01*
X138164144Y-89709534D01*
X137899896Y-90095458D01*
X137715640Y-90525358D01*
X137618395Y-90982860D01*
X137611865Y-91450537D01*
X136732151Y-91450537D01*
X136710000Y-91239787D01*
X136710000Y-91000000D01*
X136696478Y-90862094D01*
X136656428Y-90729440D01*
X136635000Y-90689140D01*
X136635000Y-83000000D01*
X136627000Y-82918409D01*
X136627000Y-78592731D01*
X136634841Y-78522828D01*
X136635000Y-78500000D01*
X136635000Y-75473721D01*
X212096290Y-75473721D01*
X212112372Y-75649104D01*
X212109893Y-75826661D01*
X212147387Y-76030950D01*
X212166172Y-76235803D01*
X212215683Y-76403065D01*
X212247429Y-76576033D01*
X212324519Y-76770742D01*
X212383386Y-76969608D01*
X212463791Y-77122502D01*
X212527898Y-77284418D01*
X212642269Y-77461887D01*
X212739584Y-77646936D01*
X212768784Y-77690635D01*
X212808749Y-77720212D01*
X212940619Y-77924835D01*
X213469871Y-78472892D01*
X213775274Y-78685152D01*
X213809365Y-78731216D01*
X213956708Y-78811252D01*
X214095494Y-78907711D01*
X214293698Y-78994305D01*
X214481837Y-79096501D01*
X214640349Y-79145753D01*
X214793660Y-79212733D01*
X215006583Y-79259547D01*
X215212650Y-79323575D01*
X215376052Y-79340780D01*
X215537775Y-79376337D01*
X215757453Y-79380939D01*
X215973721Y-79403710D01*
X216135654Y-79388861D01*
X216299496Y-79392293D01*
X216517579Y-79353839D01*
X216735803Y-79333828D01*
X216890111Y-79288151D01*
X217049809Y-79259992D01*
X217257869Y-79179291D01*
X217469608Y-79116614D01*
X217610545Y-79042497D01*
X217760135Y-78984475D01*
X217950008Y-78863978D01*
X218146936Y-78760416D01*
X218190635Y-78731216D01*
X218218469Y-78693607D01*
X218403418Y-78576235D01*
X218955156Y-78050822D01*
X219185234Y-77724666D01*
X219231216Y-77690635D01*
X219304801Y-77555169D01*
X219394333Y-77428249D01*
X219487904Y-77218085D01*
X219596501Y-77018163D01*
X219641744Y-76872554D01*
X219704220Y-76732230D01*
X219755566Y-76506229D01*
X219823575Y-76287350D01*
X219839365Y-76137387D01*
X219873015Y-75989276D01*
X219875205Y-75832406D01*
X225862489Y-75832406D01*
X225863600Y-75838858D01*
X225863508Y-75845434D01*
X225883267Y-75953090D01*
X225900423Y-76052740D01*
X225902592Y-76058385D01*
X225903689Y-76064362D01*
X225944314Y-76166971D01*
X225980613Y-76261440D01*
X225984873Y-76269410D01*
X225985628Y-76271317D01*
X225987176Y-76273720D01*
X226008412Y-76313450D01*
X226013299Y-76314254D01*
X226106204Y-76458414D01*
X226260824Y-76618528D01*
X226436378Y-76740541D01*
X226436550Y-76741588D01*
X226440255Y-76743236D01*
X226443600Y-76745561D01*
X226548811Y-76791526D01*
X226640826Y-76832458D01*
X226644296Y-76833242D01*
X226647569Y-76834672D01*
X226761218Y-76859659D01*
X226858905Y-76881731D01*
X226861964Y-76881810D01*
X226864961Y-76882469D01*
X226983327Y-76884949D01*
X227082406Y-76887511D01*
X227084926Y-76887077D01*
X227087497Y-76887131D01*
X227206761Y-76866101D01*
X227302740Y-76849577D01*
X227304662Y-76848839D01*
X227306701Y-76848479D01*
X227423229Y-76803281D01*
X227511440Y-76769387D01*
X227513629Y-76768217D01*
X227514222Y-76767987D01*
X227515091Y-76767436D01*
X227563450Y-76741588D01*
X227564339Y-76736182D01*
X227702157Y-76648720D01*
X227863347Y-76495221D01*
X227991570Y-76313453D01*
X227991588Y-76313450D01*
X227991615Y-76313390D01*
X227991652Y-76313337D01*
X228082186Y-76109995D01*
X228082283Y-76109567D01*
X228082458Y-76109174D01*
X228097879Y-76040920D01*
X228131499Y-75892942D01*
X228131511Y-75892068D01*
X228131731Y-75891095D01*
X228137511Y-75667594D01*
X228134861Y-75652200D01*
X228135049Y-75638707D01*
X228115806Y-75541525D01*
X228099577Y-75447260D01*
X228094551Y-75434179D01*
X228091815Y-75420362D01*
X228053842Y-75328233D01*
X228019387Y-75238560D01*
X228008444Y-75218086D01*
X228006995Y-75214571D01*
X228004796Y-75211261D01*
X227991588Y-75186550D01*
X227987984Y-75185957D01*
X227883818Y-75029176D01*
X227726977Y-74871236D01*
X227563917Y-74761250D01*
X227563450Y-74758412D01*
X227552463Y-74753525D01*
X227542446Y-74746768D01*
X227448464Y-74707262D01*
X227359174Y-74667542D01*
X227347932Y-74665002D01*
X227337253Y-74660513D01*
X227236813Y-74639896D01*
X227141095Y-74618269D01*
X227130067Y-74617984D01*
X227119214Y-74615756D01*
X227016079Y-74615036D01*
X226917594Y-74612489D01*
X226907215Y-74614276D01*
X226896634Y-74614202D01*
X226794684Y-74633650D01*
X226697260Y-74650423D01*
X226687897Y-74654020D01*
X226677992Y-74655910D01*
X226581161Y-74695032D01*
X226488560Y-74730613D01*
X226474512Y-74738121D01*
X226471615Y-74739292D01*
X226468462Y-74741355D01*
X226436550Y-74758412D01*
X226435845Y-74762699D01*
X226285363Y-74861171D01*
X226126332Y-75016906D01*
X226010398Y-75186223D01*
X226008412Y-75186550D01*
X226005143Y-75193898D01*
X226000579Y-75200564D01*
X225958384Y-75299013D01*
X225917542Y-75390826D01*
X225915879Y-75398184D01*
X225912894Y-75405150D01*
X225890477Y-75510616D01*
X225868269Y-75608905D01*
X225868087Y-75615952D01*
X225866616Y-75622871D01*
X225865100Y-75731459D01*
X225862489Y-75832406D01*
X219875205Y-75832406D01*
X219875776Y-75791581D01*
X219903710Y-75526279D01*
X219882683Y-75296969D01*
X219885167Y-75119056D01*
X219850152Y-74942220D01*
X219833828Y-74764197D01*
X219776667Y-74571094D01*
X219737182Y-74371678D01*
X219667835Y-74203430D01*
X219616614Y-74030392D01*
X219523660Y-73853636D01*
X219446849Y-73667278D01*
X219345197Y-73514279D01*
X219260416Y-73353064D01*
X219231216Y-73309365D01*
X219187612Y-73277094D01*
X219025227Y-73032685D01*
X218488374Y-72492072D01*
X218223827Y-72313633D01*
X218190635Y-72268784D01*
X218019588Y-72175872D01*
X217856741Y-72066030D01*
X217682657Y-71992852D01*
X217518163Y-71903499D01*
X217333884Y-71846241D01*
X217154384Y-71770786D01*
X216967727Y-71732471D01*
X216787350Y-71676425D01*
X216597113Y-71656394D01*
X216408058Y-71617587D01*
X216215796Y-71616245D01*
X216026279Y-71596290D01*
X215837471Y-71613603D01*
X215646189Y-71612268D01*
X215455644Y-71648617D01*
X215264197Y-71666172D01*
X215084006Y-71719510D01*
X214897796Y-71755032D01*
X214716354Y-71828339D01*
X214530392Y-71883386D01*
X214365559Y-71970070D01*
X214191386Y-72040440D01*
X214026205Y-72148531D01*
X213853064Y-72239584D01*
X213809365Y-72268784D01*
X213778304Y-72310753D01*
X213553865Y-72457622D01*
X213009517Y-72990687D01*
X212814460Y-73275560D01*
X212768784Y-73309365D01*
X212682305Y-73468569D01*
X212579076Y-73619331D01*
X212499280Y-73805509D01*
X212403499Y-73981837D01*
X212350241Y-74153243D01*
X212278936Y-74319609D01*
X212236466Y-74519413D01*
X212176425Y-74712650D01*
X212157806Y-74889483D01*
X212120531Y-75064848D01*
X212117655Y-75270811D01*
X212096290Y-75473721D01*
X136635000Y-75473721D01*
X136635000Y-69792824D01*
X177855098Y-69792824D01*
X177863155Y-69860706D01*
X177862194Y-69929517D01*
X177888030Y-70070287D01*
X177904666Y-70210451D01*
X177925523Y-70274570D01*
X177937776Y-70341333D01*
X177990815Y-70475293D01*
X178034757Y-70610383D01*
X178071567Y-70679250D01*
X178091908Y-70730626D01*
X178133637Y-70795376D01*
X178192786Y-70906038D01*
X178210643Y-70914866D01*
X178318719Y-71082567D01*
X178609569Y-71383751D01*
X178836012Y-71541133D01*
X178843962Y-71557214D01*
X178900740Y-71586120D01*
X178953380Y-71622706D01*
X179088880Y-71681904D01*
X179218745Y-71748020D01*
X179279173Y-71765041D01*
X179337057Y-71790330D01*
X179482412Y-71822289D01*
X179623551Y-71862044D01*
X179685205Y-71866876D01*
X179745984Y-71880239D01*
X179895750Y-71883376D01*
X180042824Y-71894902D01*
X180103306Y-71887723D01*
X180164588Y-71889007D01*
X180313057Y-71862828D01*
X180460451Y-71845334D01*
X180517482Y-71826783D01*
X180576922Y-71816302D01*
X180718375Y-71761436D01*
X180860383Y-71715243D01*
X180921004Y-71682841D01*
X180967281Y-71664891D01*
X181035058Y-71621878D01*
X181156038Y-71557214D01*
X181164764Y-71539565D01*
X181320797Y-71440543D01*
X181624004Y-71151803D01*
X181792102Y-70913509D01*
X181807214Y-70906038D01*
X181832737Y-70855906D01*
X181865354Y-70809668D01*
X181928615Y-70667581D01*
X181998020Y-70531255D01*
X182013019Y-70478006D01*
X182035652Y-70427171D01*
X182070322Y-70274568D01*
X182112044Y-70126449D01*
X182116293Y-70072226D01*
X182128413Y-70018881D01*
X182130134Y-69895614D01*
X182144902Y-69707176D01*
X182144290Y-69702013D01*
X183043799Y-69702013D01*
X183062127Y-69911163D01*
X183059170Y-70122907D01*
X183100338Y-70347211D01*
X183120062Y-70572297D01*
X183178303Y-70772007D01*
X183216177Y-70978367D01*
X183300849Y-71192226D01*
X183364644Y-71410980D01*
X183459835Y-71593777D01*
X183536352Y-71787038D01*
X183662015Y-71982029D01*
X183768145Y-72185833D01*
X183821464Y-72265632D01*
X183868611Y-72302604D01*
X184007502Y-72518120D01*
X184611680Y-73143764D01*
X184939992Y-73371947D01*
X184984368Y-73428536D01*
X185160019Y-73524869D01*
X185325873Y-73640141D01*
X185543819Y-73735359D01*
X185750351Y-73848629D01*
X185939585Y-73908265D01*
X186122878Y-73988344D01*
X186357079Y-74039836D01*
X186583573Y-74111215D01*
X186778892Y-74132578D01*
X186972338Y-74175110D01*
X187214045Y-74180173D01*
X187452013Y-74206201D01*
X187645820Y-74189218D01*
X187841895Y-74193325D01*
X188081916Y-74151003D01*
X188322297Y-74129938D01*
X188507219Y-74076010D01*
X188698430Y-74042294D01*
X188927487Y-73953449D01*
X189160980Y-73885356D01*
X189330115Y-73797280D01*
X189509317Y-73727772D01*
X189718416Y-73595074D01*
X189935833Y-73481855D01*
X190015632Y-73428536D01*
X190050101Y-73384581D01*
X190243670Y-73261738D01*
X190873517Y-72661942D01*
X191121573Y-72310301D01*
X191178536Y-72265632D01*
X191267454Y-72103502D01*
X191374869Y-71951232D01*
X191477990Y-71719618D01*
X191598629Y-71499649D01*
X191653630Y-71325124D01*
X191728627Y-71156677D01*
X191785229Y-70907540D01*
X191861215Y-70666427D01*
X191880902Y-70486436D01*
X191921318Y-70308542D01*
X191924385Y-70088871D01*
X191956201Y-69797987D01*
X191932262Y-69524805D01*
X191935190Y-69315126D01*
X191896976Y-69122129D01*
X191879938Y-68927703D01*
X191813091Y-68698483D01*
X191766255Y-68461942D01*
X191690535Y-68278231D01*
X191635356Y-68089020D01*
X191525965Y-67878954D01*
X191434820Y-67657819D01*
X191323774Y-67490682D01*
X191231855Y-67314167D01*
X191178536Y-67234368D01*
X191126225Y-67193347D01*
X190953508Y-66933387D01*
X190340654Y-66316239D01*
X190058156Y-66125692D01*
X190015632Y-66071464D01*
X189813010Y-65960339D01*
X189619600Y-65829882D01*
X189429215Y-65749851D01*
X189249649Y-65651371D01*
X189031070Y-65582487D01*
X188817811Y-65492841D01*
X188613595Y-65450921D01*
X188416427Y-65388785D01*
X188190515Y-65364076D01*
X187965827Y-65317954D01*
X187755400Y-65316485D01*
X187547987Y-65293799D01*
X187323513Y-65313470D01*
X187096100Y-65311882D01*
X186887473Y-65351680D01*
X186677703Y-65370062D01*
X186463223Y-65432610D01*
X186241757Y-65474857D01*
X186043016Y-65555153D01*
X185839020Y-65614644D01*
X185642575Y-65716942D01*
X185435340Y-65800670D01*
X185254338Y-65919114D01*
X185064167Y-66018145D01*
X184984368Y-66071464D01*
X184945205Y-66121405D01*
X184707566Y-66276912D01*
X184086154Y-66885443D01*
X183877129Y-67190717D01*
X183821464Y-67234368D01*
X183717729Y-67423516D01*
X183594775Y-67603085D01*
X183507253Y-67807290D01*
X183401371Y-68000351D01*
X183337107Y-68204270D01*
X183252145Y-68402501D01*
X183205547Y-68621729D01*
X183138785Y-68833573D01*
X183115748Y-69044199D01*
X183071314Y-69253243D01*
X183068157Y-69479310D01*
X183043799Y-69702013D01*
X182144290Y-69702013D01*
X182134043Y-69615687D01*
X182135091Y-69540652D01*
X182110242Y-69415158D01*
X182095334Y-69289549D01*
X182069872Y-69211273D01*
X182053766Y-69129931D01*
X182004654Y-69010777D01*
X181965243Y-68889617D01*
X181919247Y-68803563D01*
X181894214Y-68742829D01*
X181856210Y-68685629D01*
X181807214Y-68593962D01*
X181789483Y-68585196D01*
X181662512Y-68394089D01*
X181367485Y-68096995D01*
X181164632Y-67960169D01*
X181156038Y-67942786D01*
X181085986Y-67907122D01*
X181020371Y-67862864D01*
X180898089Y-67811461D01*
X180781255Y-67751980D01*
X180706489Y-67730920D01*
X180634391Y-67700613D01*
X180503520Y-67673749D01*
X180376449Y-67637956D01*
X180299945Y-67631960D01*
X180224248Y-67616422D01*
X180089685Y-67615483D01*
X179957176Y-67605098D01*
X179881904Y-67614032D01*
X179805563Y-67613499D01*
X179672446Y-67638892D01*
X179539549Y-67654666D01*
X179468348Y-67677826D01*
X179394284Y-67691955D01*
X179267757Y-67743075D01*
X179139617Y-67784757D01*
X179062284Y-67826092D01*
X179006077Y-67848801D01*
X178944900Y-67888834D01*
X178843962Y-67942786D01*
X178835119Y-67960673D01*
X178655728Y-68078063D01*
X178356582Y-68371008D01*
X178209621Y-68585639D01*
X178192786Y-68593962D01*
X178160500Y-68657378D01*
X178120033Y-68716479D01*
X178064783Y-68845387D01*
X178001980Y-68968745D01*
X177982940Y-69036341D01*
X177955091Y-69101317D01*
X177925733Y-69239434D01*
X177887956Y-69373551D01*
X177882542Y-69442635D01*
X177868040Y-69510862D01*
X177866055Y-69653010D01*
X177855098Y-69792824D01*
X136635000Y-69792824D01*
X136635000Y-59000000D01*
X136627000Y-58918409D01*
X136627000Y-54592731D01*
X136634841Y-54522828D01*
X136635000Y-54500000D01*
X136635000Y-46811688D01*
X136652586Y-46779699D01*
X136694485Y-46647617D01*
X136709931Y-46509913D01*
X136710000Y-46500000D01*
X136710000Y-46450537D01*
X137611865Y-46450537D01*
X137696298Y-46910576D01*
X137868478Y-47345453D01*
X138121847Y-47738606D01*
X138446755Y-48075057D01*
X138830825Y-48341993D01*
X139259428Y-48529245D01*
X139716240Y-48629682D01*
X140183860Y-48639477D01*
X140644477Y-48558258D01*
X141080546Y-48389118D01*
X141475457Y-48138499D01*
X141814169Y-47815949D01*
X142083779Y-47433751D01*
X142274019Y-47006466D01*
X142377643Y-46550366D01*
X142379036Y-46450537D01*
X232611865Y-46450537D01*
X232696298Y-46910576D01*
X232868478Y-47345453D01*
X233121847Y-47738606D01*
X233446755Y-48075057D01*
X233830825Y-48341993D01*
X234259428Y-48529245D01*
X234716240Y-48629682D01*
X235183860Y-48639477D01*
X235644477Y-48558258D01*
X236080546Y-48389118D01*
X236475457Y-48138499D01*
X236814169Y-47815949D01*
X237083779Y-47433751D01*
X237274019Y-47006466D01*
X237377643Y-46550366D01*
X237385102Y-46016139D01*
X237294254Y-45557324D01*
X237116019Y-45124893D01*
X236857185Y-44735316D01*
X236527612Y-44403434D01*
X236139852Y-44141887D01*
X235708676Y-43960637D01*
X235250507Y-43866588D01*
X234782795Y-43863323D01*
X234323357Y-43950966D01*
X233889693Y-44126178D01*
X233498319Y-44382285D01*
X233164144Y-44709534D01*
X232899896Y-45095458D01*
X232715640Y-45525358D01*
X232618395Y-45982860D01*
X232611865Y-46450537D01*
X142379036Y-46450537D01*
X142385102Y-46016139D01*
X142294254Y-45557324D01*
X142116019Y-45124893D01*
X141857185Y-44735316D01*
X141527612Y-44403434D01*
X141139852Y-44141887D01*
X140708676Y-43960637D01*
X140250507Y-43866588D01*
X139782795Y-43863323D01*
X139323357Y-43950966D01*
X138889693Y-44126178D01*
X138498319Y-44382285D01*
X138164144Y-44709534D01*
X137899896Y-45095458D01*
X137715640Y-45525358D01*
X137618395Y-45982860D01*
X137611865Y-46450537D01*
X136710000Y-46450537D01*
X136710000Y-46284721D01*
X136775998Y-45611630D01*
X136961392Y-44997576D01*
X137262525Y-44431227D01*
X137667928Y-43934152D01*
X138162159Y-43525288D01*
X138726389Y-43220210D01*
X139339137Y-43030533D01*
X140010204Y-42960000D01*
X234965279Y-42960000D01*
X235638370Y-43025998D01*
X235638370Y-43025998D01*
G37*
X235638370Y-43025998D02*
X236252424Y-43211392D01*
X236818773Y-43512525D01*
X237315848Y-43917928D01*
X237724712Y-44412159D01*
X238029790Y-44976389D01*
X238219467Y-45589137D01*
X238290000Y-46260204D01*
X238290000Y-91215280D01*
X238224004Y-91888366D01*
X238038607Y-92502428D01*
X237737474Y-93068775D01*
X237332071Y-93565847D01*
X236837842Y-93974710D01*
X236273611Y-94279790D01*
X235660862Y-94469467D01*
X234989787Y-94540000D01*
X234750000Y-94540000D01*
X234612094Y-94553522D01*
X234479440Y-94593572D01*
X234439140Y-94615000D01*
X217250000Y-94615000D01*
X217168409Y-94623000D01*
X212842731Y-94623000D01*
X212772828Y-94615159D01*
X212750000Y-94615000D01*
X162250000Y-94615000D01*
X162168409Y-94623000D01*
X157842731Y-94623000D01*
X157772828Y-94615159D01*
X157750000Y-94615000D01*
X140561688Y-94615000D01*
X140529699Y-94597414D01*
X140397617Y-94555515D01*
X140259913Y-94540069D01*
X140250000Y-94540000D01*
X140034720Y-94540000D01*
X139361634Y-94474004D01*
X138747572Y-94288607D01*
X138181225Y-93987474D01*
X137684153Y-93582071D01*
X137275290Y-93087842D01*
X136970210Y-92523611D01*
X136780533Y-91910862D01*
X136732151Y-91450537D01*
X137611865Y-91450537D01*
X137696298Y-91910576D01*
X137868478Y-92345453D01*
X138121847Y-92738606D01*
X138446755Y-93075057D01*
X138830825Y-93341993D01*
X139259428Y-93529245D01*
X139716240Y-93629682D01*
X140183860Y-93639477D01*
X140644477Y-93558258D01*
X141080546Y-93389118D01*
X141475457Y-93138499D01*
X141814169Y-92815949D01*
X142083779Y-92433751D01*
X142274019Y-92006466D01*
X142377643Y-91550366D01*
X142379036Y-91450537D01*
X232611865Y-91450537D01*
X232696298Y-91910576D01*
X232868478Y-92345453D01*
X233121847Y-92738606D01*
X233446755Y-93075057D01*
X233830825Y-93341993D01*
X234259428Y-93529245D01*
X234716240Y-93629682D01*
X235183860Y-93639477D01*
X235644477Y-93558258D01*
X236080546Y-93389118D01*
X236475457Y-93138499D01*
X236814169Y-92815949D01*
X237083779Y-92433751D01*
X237274019Y-92006466D01*
X237377643Y-91550366D01*
X237385102Y-91016139D01*
X237294254Y-90557324D01*
X237116019Y-90124893D01*
X236857185Y-89735316D01*
X236527612Y-89403434D01*
X236139852Y-89141887D01*
X235708676Y-88960637D01*
X235250507Y-88866588D01*
X234782795Y-88863323D01*
X234323357Y-88950966D01*
X233889693Y-89126178D01*
X233498319Y-89382285D01*
X233164144Y-89709534D01*
X232899896Y-90095458D01*
X232715640Y-90525358D01*
X232618395Y-90982860D01*
X232611865Y-91450537D01*
X142379036Y-91450537D01*
X142385102Y-91016139D01*
X142294254Y-90557324D01*
X142116019Y-90124893D01*
X141857185Y-89735316D01*
X141527612Y-89403434D01*
X141139852Y-89141887D01*
X140708676Y-88960637D01*
X140250507Y-88866588D01*
X139782795Y-88863323D01*
X139323357Y-88950966D01*
X138889693Y-89126178D01*
X138498319Y-89382285D01*
X138164144Y-89709534D01*
X137899896Y-90095458D01*
X137715640Y-90525358D01*
X137618395Y-90982860D01*
X137611865Y-91450537D01*
X136732151Y-91450537D01*
X136710000Y-91239787D01*
X136710000Y-91000000D01*
X136696478Y-90862094D01*
X136656428Y-90729440D01*
X136635000Y-90689140D01*
X136635000Y-83000000D01*
X136627000Y-82918409D01*
X136627000Y-78592731D01*
X136634841Y-78522828D01*
X136635000Y-78500000D01*
X136635000Y-75473721D01*
X212096290Y-75473721D01*
X212112372Y-75649104D01*
X212109893Y-75826661D01*
X212147387Y-76030950D01*
X212166172Y-76235803D01*
X212215683Y-76403065D01*
X212247429Y-76576033D01*
X212324519Y-76770742D01*
X212383386Y-76969608D01*
X212463791Y-77122502D01*
X212527898Y-77284418D01*
X212642269Y-77461887D01*
X212739584Y-77646936D01*
X212768784Y-77690635D01*
X212808749Y-77720212D01*
X212940619Y-77924835D01*
X213469871Y-78472892D01*
X213775274Y-78685152D01*
X213809365Y-78731216D01*
X213956708Y-78811252D01*
X214095494Y-78907711D01*
X214293698Y-78994305D01*
X214481837Y-79096501D01*
X214640349Y-79145753D01*
X214793660Y-79212733D01*
X215006583Y-79259547D01*
X215212650Y-79323575D01*
X215376052Y-79340780D01*
X215537775Y-79376337D01*
X215757453Y-79380939D01*
X215973721Y-79403710D01*
X216135654Y-79388861D01*
X216299496Y-79392293D01*
X216517579Y-79353839D01*
X216735803Y-79333828D01*
X216890111Y-79288151D01*
X217049809Y-79259992D01*
X217257869Y-79179291D01*
X217469608Y-79116614D01*
X217610545Y-79042497D01*
X217760135Y-78984475D01*
X217950008Y-78863978D01*
X218146936Y-78760416D01*
X218190635Y-78731216D01*
X218218469Y-78693607D01*
X218403418Y-78576235D01*
X218955156Y-78050822D01*
X219185234Y-77724666D01*
X219231216Y-77690635D01*
X219304801Y-77555169D01*
X219394333Y-77428249D01*
X219487904Y-77218085D01*
X219596501Y-77018163D01*
X219641744Y-76872554D01*
X219704220Y-76732230D01*
X219755566Y-76506229D01*
X219823575Y-76287350D01*
X219839365Y-76137387D01*
X219873015Y-75989276D01*
X219875205Y-75832406D01*
X225862489Y-75832406D01*
X225863600Y-75838858D01*
X225863508Y-75845434D01*
X225883267Y-75953090D01*
X225900423Y-76052740D01*
X225902592Y-76058385D01*
X225903689Y-76064362D01*
X225944314Y-76166971D01*
X225980613Y-76261440D01*
X225984873Y-76269410D01*
X225985628Y-76271317D01*
X225987176Y-76273720D01*
X226008412Y-76313450D01*
X226013299Y-76314254D01*
X226106204Y-76458414D01*
X226260824Y-76618528D01*
X226436378Y-76740541D01*
X226436550Y-76741588D01*
X226440255Y-76743236D01*
X226443600Y-76745561D01*
X226548811Y-76791526D01*
X226640826Y-76832458D01*
X226644296Y-76833242D01*
X226647569Y-76834672D01*
X226761218Y-76859659D01*
X226858905Y-76881731D01*
X226861964Y-76881810D01*
X226864961Y-76882469D01*
X226983327Y-76884949D01*
X227082406Y-76887511D01*
X227084926Y-76887077D01*
X227087497Y-76887131D01*
X227206761Y-76866101D01*
X227302740Y-76849577D01*
X227304662Y-76848839D01*
X227306701Y-76848479D01*
X227423229Y-76803281D01*
X227511440Y-76769387D01*
X227513629Y-76768217D01*
X227514222Y-76767987D01*
X227515091Y-76767436D01*
X227563450Y-76741588D01*
X227564339Y-76736182D01*
X227702157Y-76648720D01*
X227863347Y-76495221D01*
X227991570Y-76313453D01*
X227991588Y-76313450D01*
X227991615Y-76313390D01*
X227991652Y-76313337D01*
X228082186Y-76109995D01*
X228082283Y-76109567D01*
X228082458Y-76109174D01*
X228097879Y-76040920D01*
X228131499Y-75892942D01*
X228131511Y-75892068D01*
X228131731Y-75891095D01*
X228137511Y-75667594D01*
X228134861Y-75652200D01*
X228135049Y-75638707D01*
X228115806Y-75541525D01*
X228099577Y-75447260D01*
X228094551Y-75434179D01*
X228091815Y-75420362D01*
X228053842Y-75328233D01*
X228019387Y-75238560D01*
X228008444Y-75218086D01*
X228006995Y-75214571D01*
X228004796Y-75211261D01*
X227991588Y-75186550D01*
X227987984Y-75185957D01*
X227883818Y-75029176D01*
X227726977Y-74871236D01*
X227563917Y-74761250D01*
X227563450Y-74758412D01*
X227552463Y-74753525D01*
X227542446Y-74746768D01*
X227448464Y-74707262D01*
X227359174Y-74667542D01*
X227347932Y-74665002D01*
X227337253Y-74660513D01*
X227236813Y-74639896D01*
X227141095Y-74618269D01*
X227130067Y-74617984D01*
X227119214Y-74615756D01*
X227016079Y-74615036D01*
X226917594Y-74612489D01*
X226907215Y-74614276D01*
X226896634Y-74614202D01*
X226794684Y-74633650D01*
X226697260Y-74650423D01*
X226687897Y-74654020D01*
X226677992Y-74655910D01*
X226581161Y-74695032D01*
X226488560Y-74730613D01*
X226474512Y-74738121D01*
X226471615Y-74739292D01*
X226468462Y-74741355D01*
X226436550Y-74758412D01*
X226435845Y-74762699D01*
X226285363Y-74861171D01*
X226126332Y-75016906D01*
X226010398Y-75186223D01*
X226008412Y-75186550D01*
X226005143Y-75193898D01*
X226000579Y-75200564D01*
X225958384Y-75299013D01*
X225917542Y-75390826D01*
X225915879Y-75398184D01*
X225912894Y-75405150D01*
X225890477Y-75510616D01*
X225868269Y-75608905D01*
X225868087Y-75615952D01*
X225866616Y-75622871D01*
X225865100Y-75731459D01*
X225862489Y-75832406D01*
X219875205Y-75832406D01*
X219875776Y-75791581D01*
X219903710Y-75526279D01*
X219882683Y-75296969D01*
X219885167Y-75119056D01*
X219850152Y-74942220D01*
X219833828Y-74764197D01*
X219776667Y-74571094D01*
X219737182Y-74371678D01*
X219667835Y-74203430D01*
X219616614Y-74030392D01*
X219523660Y-73853636D01*
X219446849Y-73667278D01*
X219345197Y-73514279D01*
X219260416Y-73353064D01*
X219231216Y-73309365D01*
X219187612Y-73277094D01*
X219025227Y-73032685D01*
X218488374Y-72492072D01*
X218223827Y-72313633D01*
X218190635Y-72268784D01*
X218019588Y-72175872D01*
X217856741Y-72066030D01*
X217682657Y-71992852D01*
X217518163Y-71903499D01*
X217333884Y-71846241D01*
X217154384Y-71770786D01*
X216967727Y-71732471D01*
X216787350Y-71676425D01*
X216597113Y-71656394D01*
X216408058Y-71617587D01*
X216215796Y-71616245D01*
X216026279Y-71596290D01*
X215837471Y-71613603D01*
X215646189Y-71612268D01*
X215455644Y-71648617D01*
X215264197Y-71666172D01*
X215084006Y-71719510D01*
X214897796Y-71755032D01*
X214716354Y-71828339D01*
X214530392Y-71883386D01*
X214365559Y-71970070D01*
X214191386Y-72040440D01*
X214026205Y-72148531D01*
X213853064Y-72239584D01*
X213809365Y-72268784D01*
X213778304Y-72310753D01*
X213553865Y-72457622D01*
X213009517Y-72990687D01*
X212814460Y-73275560D01*
X212768784Y-73309365D01*
X212682305Y-73468569D01*
X212579076Y-73619331D01*
X212499280Y-73805509D01*
X212403499Y-73981837D01*
X212350241Y-74153243D01*
X212278936Y-74319609D01*
X212236466Y-74519413D01*
X212176425Y-74712650D01*
X212157806Y-74889483D01*
X212120531Y-75064848D01*
X212117655Y-75270811D01*
X212096290Y-75473721D01*
X136635000Y-75473721D01*
X136635000Y-69792824D01*
X177855098Y-69792824D01*
X177863155Y-69860706D01*
X177862194Y-69929517D01*
X177888030Y-70070287D01*
X177904666Y-70210451D01*
X177925523Y-70274570D01*
X177937776Y-70341333D01*
X177990815Y-70475293D01*
X178034757Y-70610383D01*
X178071567Y-70679250D01*
X178091908Y-70730626D01*
X178133637Y-70795376D01*
X178192786Y-70906038D01*
X178210643Y-70914866D01*
X178318719Y-71082567D01*
X178609569Y-71383751D01*
X178836012Y-71541133D01*
X178843962Y-71557214D01*
X178900740Y-71586120D01*
X178953380Y-71622706D01*
X179088880Y-71681904D01*
X179218745Y-71748020D01*
X179279173Y-71765041D01*
X179337057Y-71790330D01*
X179482412Y-71822289D01*
X179623551Y-71862044D01*
X179685205Y-71866876D01*
X179745984Y-71880239D01*
X179895750Y-71883376D01*
X180042824Y-71894902D01*
X180103306Y-71887723D01*
X180164588Y-71889007D01*
X180313057Y-71862828D01*
X180460451Y-71845334D01*
X180517482Y-71826783D01*
X180576922Y-71816302D01*
X180718375Y-71761436D01*
X180860383Y-71715243D01*
X180921004Y-71682841D01*
X180967281Y-71664891D01*
X181035058Y-71621878D01*
X181156038Y-71557214D01*
X181164764Y-71539565D01*
X181320797Y-71440543D01*
X181624004Y-71151803D01*
X181792102Y-70913509D01*
X181807214Y-70906038D01*
X181832737Y-70855906D01*
X181865354Y-70809668D01*
X181928615Y-70667581D01*
X181998020Y-70531255D01*
X182013019Y-70478006D01*
X182035652Y-70427171D01*
X182070322Y-70274568D01*
X182112044Y-70126449D01*
X182116293Y-70072226D01*
X182128413Y-70018881D01*
X182130134Y-69895614D01*
X182144902Y-69707176D01*
X182144290Y-69702013D01*
X183043799Y-69702013D01*
X183062127Y-69911163D01*
X183059170Y-70122907D01*
X183100338Y-70347211D01*
X183120062Y-70572297D01*
X183178303Y-70772007D01*
X183216177Y-70978367D01*
X183300849Y-71192226D01*
X183364644Y-71410980D01*
X183459835Y-71593777D01*
X183536352Y-71787038D01*
X183662015Y-71982029D01*
X183768145Y-72185833D01*
X183821464Y-72265632D01*
X183868611Y-72302604D01*
X184007502Y-72518120D01*
X184611680Y-73143764D01*
X184939992Y-73371947D01*
X184984368Y-73428536D01*
X185160019Y-73524869D01*
X185325873Y-73640141D01*
X185543819Y-73735359D01*
X185750351Y-73848629D01*
X185939585Y-73908265D01*
X186122878Y-73988344D01*
X186357079Y-74039836D01*
X186583573Y-74111215D01*
X186778892Y-74132578D01*
X186972338Y-74175110D01*
X187214045Y-74180173D01*
X187452013Y-74206201D01*
X187645820Y-74189218D01*
X187841895Y-74193325D01*
X188081916Y-74151003D01*
X188322297Y-74129938D01*
X188507219Y-74076010D01*
X188698430Y-74042294D01*
X188927487Y-73953449D01*
X189160980Y-73885356D01*
X189330115Y-73797280D01*
X189509317Y-73727772D01*
X189718416Y-73595074D01*
X189935833Y-73481855D01*
X190015632Y-73428536D01*
X190050101Y-73384581D01*
X190243670Y-73261738D01*
X190873517Y-72661942D01*
X191121573Y-72310301D01*
X191178536Y-72265632D01*
X191267454Y-72103502D01*
X191374869Y-71951232D01*
X191477990Y-71719618D01*
X191598629Y-71499649D01*
X191653630Y-71325124D01*
X191728627Y-71156677D01*
X191785229Y-70907540D01*
X191861215Y-70666427D01*
X191880902Y-70486436D01*
X191921318Y-70308542D01*
X191924385Y-70088871D01*
X191956201Y-69797987D01*
X191932262Y-69524805D01*
X191935190Y-69315126D01*
X191896976Y-69122129D01*
X191879938Y-68927703D01*
X191813091Y-68698483D01*
X191766255Y-68461942D01*
X191690535Y-68278231D01*
X191635356Y-68089020D01*
X191525965Y-67878954D01*
X191434820Y-67657819D01*
X191323774Y-67490682D01*
X191231855Y-67314167D01*
X191178536Y-67234368D01*
X191126225Y-67193347D01*
X190953508Y-66933387D01*
X190340654Y-66316239D01*
X190058156Y-66125692D01*
X190015632Y-66071464D01*
X189813010Y-65960339D01*
X189619600Y-65829882D01*
X189429215Y-65749851D01*
X189249649Y-65651371D01*
X189031070Y-65582487D01*
X188817811Y-65492841D01*
X188613595Y-65450921D01*
X188416427Y-65388785D01*
X188190515Y-65364076D01*
X187965827Y-65317954D01*
X187755400Y-65316485D01*
X187547987Y-65293799D01*
X187323513Y-65313470D01*
X187096100Y-65311882D01*
X186887473Y-65351680D01*
X186677703Y-65370062D01*
X186463223Y-65432610D01*
X186241757Y-65474857D01*
X186043016Y-65555153D01*
X185839020Y-65614644D01*
X185642575Y-65716942D01*
X185435340Y-65800670D01*
X185254338Y-65919114D01*
X185064167Y-66018145D01*
X184984368Y-66071464D01*
X184945205Y-66121405D01*
X184707566Y-66276912D01*
X184086154Y-66885443D01*
X183877129Y-67190717D01*
X183821464Y-67234368D01*
X183717729Y-67423516D01*
X183594775Y-67603085D01*
X183507253Y-67807290D01*
X183401371Y-68000351D01*
X183337107Y-68204270D01*
X183252145Y-68402501D01*
X183205547Y-68621729D01*
X183138785Y-68833573D01*
X183115748Y-69044199D01*
X183071314Y-69253243D01*
X183068157Y-69479310D01*
X183043799Y-69702013D01*
X182144290Y-69702013D01*
X182134043Y-69615687D01*
X182135091Y-69540652D01*
X182110242Y-69415158D01*
X182095334Y-69289549D01*
X182069872Y-69211273D01*
X182053766Y-69129931D01*
X182004654Y-69010777D01*
X181965243Y-68889617D01*
X181919247Y-68803563D01*
X181894214Y-68742829D01*
X181856210Y-68685629D01*
X181807214Y-68593962D01*
X181789483Y-68585196D01*
X181662512Y-68394089D01*
X181367485Y-68096995D01*
X181164632Y-67960169D01*
X181156038Y-67942786D01*
X181085986Y-67907122D01*
X181020371Y-67862864D01*
X180898089Y-67811461D01*
X180781255Y-67751980D01*
X180706489Y-67730920D01*
X180634391Y-67700613D01*
X180503520Y-67673749D01*
X180376449Y-67637956D01*
X180299945Y-67631960D01*
X180224248Y-67616422D01*
X180089685Y-67615483D01*
X179957176Y-67605098D01*
X179881904Y-67614032D01*
X179805563Y-67613499D01*
X179672446Y-67638892D01*
X179539549Y-67654666D01*
X179468348Y-67677826D01*
X179394284Y-67691955D01*
X179267757Y-67743075D01*
X179139617Y-67784757D01*
X179062284Y-67826092D01*
X179006077Y-67848801D01*
X178944900Y-67888834D01*
X178843962Y-67942786D01*
X178835119Y-67960673D01*
X178655728Y-68078063D01*
X178356582Y-68371008D01*
X178209621Y-68585639D01*
X178192786Y-68593962D01*
X178160500Y-68657378D01*
X178120033Y-68716479D01*
X178064783Y-68845387D01*
X178001980Y-68968745D01*
X177982940Y-69036341D01*
X177955091Y-69101317D01*
X177925733Y-69239434D01*
X177887956Y-69373551D01*
X177882542Y-69442635D01*
X177868040Y-69510862D01*
X177866055Y-69653010D01*
X177855098Y-69792824D01*
X136635000Y-69792824D01*
X136635000Y-59000000D01*
X136627000Y-58918409D01*
X136627000Y-54592731D01*
X136634841Y-54522828D01*
X136635000Y-54500000D01*
X136635000Y-46811688D01*
X136652586Y-46779699D01*
X136694485Y-46647617D01*
X136709931Y-46509913D01*
X136710000Y-46500000D01*
X136710000Y-46450537D01*
X137611865Y-46450537D01*
X137696298Y-46910576D01*
X137868478Y-47345453D01*
X138121847Y-47738606D01*
X138446755Y-48075057D01*
X138830825Y-48341993D01*
X139259428Y-48529245D01*
X139716240Y-48629682D01*
X140183860Y-48639477D01*
X140644477Y-48558258D01*
X141080546Y-48389118D01*
X141475457Y-48138499D01*
X141814169Y-47815949D01*
X142083779Y-47433751D01*
X142274019Y-47006466D01*
X142377643Y-46550366D01*
X142379036Y-46450537D01*
X232611865Y-46450537D01*
X232696298Y-46910576D01*
X232868478Y-47345453D01*
X233121847Y-47738606D01*
X233446755Y-48075057D01*
X233830825Y-48341993D01*
X234259428Y-48529245D01*
X234716240Y-48629682D01*
X235183860Y-48639477D01*
X235644477Y-48558258D01*
X236080546Y-48389118D01*
X236475457Y-48138499D01*
X236814169Y-47815949D01*
X237083779Y-47433751D01*
X237274019Y-47006466D01*
X237377643Y-46550366D01*
X237385102Y-46016139D01*
X237294254Y-45557324D01*
X237116019Y-45124893D01*
X236857185Y-44735316D01*
X236527612Y-44403434D01*
X236139852Y-44141887D01*
X235708676Y-43960637D01*
X235250507Y-43866588D01*
X234782795Y-43863323D01*
X234323357Y-43950966D01*
X233889693Y-44126178D01*
X233498319Y-44382285D01*
X233164144Y-44709534D01*
X232899896Y-45095458D01*
X232715640Y-45525358D01*
X232618395Y-45982860D01*
X232611865Y-46450537D01*
X142379036Y-46450537D01*
X142385102Y-46016139D01*
X142294254Y-45557324D01*
X142116019Y-45124893D01*
X141857185Y-44735316D01*
X141527612Y-44403434D01*
X141139852Y-44141887D01*
X140708676Y-43960637D01*
X140250507Y-43866588D01*
X139782795Y-43863323D01*
X139323357Y-43950966D01*
X138889693Y-44126178D01*
X138498319Y-44382285D01*
X138164144Y-44709534D01*
X137899896Y-45095458D01*
X137715640Y-45525358D01*
X137618395Y-45982860D01*
X137611865Y-46450537D01*
X136710000Y-46450537D01*
X136710000Y-46284721D01*
X136775998Y-45611630D01*
X136961392Y-44997576D01*
X137262525Y-44431227D01*
X137667928Y-43934152D01*
X138162159Y-43525288D01*
X138726389Y-43220210D01*
X139339137Y-43030533D01*
X140010204Y-42960000D01*
X234965279Y-42960000D01*
X235638370Y-43025998D01*
G36*
X162227172Y-97884841D02*
X162250000Y-97885000D01*
X212750000Y-97885000D01*
X212831591Y-97877000D01*
X217157269Y-97877000D01*
X217227172Y-97884841D01*
X217250000Y-97885000D01*
X234687871Y-97885000D01*
X234785318Y-97926766D01*
X234920857Y-97955575D01*
X234930716Y-97956611D01*
X235638370Y-98025998D01*
X236252424Y-98211392D01*
X236818773Y-98512525D01*
X237315848Y-98917928D01*
X237724712Y-99412159D01*
X238029790Y-99976389D01*
X238219467Y-100589137D01*
X238290000Y-101260204D01*
X238290000Y-146215280D01*
X238224004Y-146888366D01*
X238038607Y-147502428D01*
X237737474Y-148068775D01*
X237332071Y-148565847D01*
X236837842Y-148974710D01*
X236273611Y-149279790D01*
X235660862Y-149469467D01*
X234989787Y-149540000D01*
X140034720Y-149540000D01*
X139361634Y-149474004D01*
X138747572Y-149288607D01*
X138181225Y-148987474D01*
X137684153Y-148582071D01*
X137275290Y-148087842D01*
X136970210Y-147523611D01*
X136780533Y-146910862D01*
X136732151Y-146450537D01*
X137611865Y-146450537D01*
X137696298Y-146910576D01*
X137868478Y-147345453D01*
X138121847Y-147738606D01*
X138446755Y-148075057D01*
X138830825Y-148341993D01*
X139259428Y-148529245D01*
X139716240Y-148629682D01*
X140183860Y-148639477D01*
X140644477Y-148558258D01*
X141080546Y-148389118D01*
X141475457Y-148138499D01*
X141814169Y-147815949D01*
X142083779Y-147433751D01*
X142274019Y-147006466D01*
X142377643Y-146550366D01*
X142379036Y-146450537D01*
X232611865Y-146450537D01*
X232696298Y-146910576D01*
X232868478Y-147345453D01*
X233121847Y-147738606D01*
X233446755Y-148075057D01*
X233830825Y-148341993D01*
X234259428Y-148529245D01*
X234716240Y-148629682D01*
X235183860Y-148639477D01*
X235644477Y-148558258D01*
X236080546Y-148389118D01*
X236475457Y-148138499D01*
X236814169Y-147815949D01*
X237083779Y-147433751D01*
X237274019Y-147006466D01*
X237377643Y-146550366D01*
X237385102Y-146016139D01*
X237294254Y-145557324D01*
X237116019Y-145124893D01*
X236857185Y-144735316D01*
X236527612Y-144403434D01*
X236139852Y-144141887D01*
X235708676Y-143960637D01*
X235250507Y-143866588D01*
X234782795Y-143863323D01*
X234323357Y-143950966D01*
X233889693Y-144126178D01*
X233498319Y-144382285D01*
X233164144Y-144709534D01*
X232899896Y-145095458D01*
X232715640Y-145525358D01*
X232618395Y-145982860D01*
X232611865Y-146450537D01*
X142379036Y-146450537D01*
X142385102Y-146016139D01*
X142294254Y-145557324D01*
X142116019Y-145124893D01*
X141857185Y-144735316D01*
X141527612Y-144403434D01*
X141139852Y-144141887D01*
X140708676Y-143960637D01*
X140250507Y-143866588D01*
X139782795Y-143863323D01*
X139323357Y-143950966D01*
X138889693Y-144126178D01*
X138498319Y-144382285D01*
X138164144Y-144709534D01*
X137899896Y-145095458D01*
X137715640Y-145525358D01*
X137618395Y-145982860D01*
X137611865Y-146450537D01*
X136732151Y-146450537D01*
X136706208Y-146203709D01*
X136704896Y-146197318D01*
X136695995Y-146109676D01*
X136655484Y-145977161D01*
X136635000Y-145938957D01*
X136635000Y-138000000D01*
X136627000Y-137918409D01*
X136627000Y-133592731D01*
X136634841Y-133522828D01*
X136635000Y-133500000D01*
X136635000Y-126000000D01*
X153365000Y-126000000D01*
X153365000Y-137000000D01*
X153375425Y-137106323D01*
X153385104Y-137212678D01*
X153386228Y-137216496D01*
X153386616Y-137220456D01*
X153417487Y-137322708D01*
X153447646Y-137425178D01*
X153449489Y-137428704D01*
X153450640Y-137432515D01*
X153500818Y-137526886D01*
X153550273Y-137621484D01*
X153552764Y-137624582D01*
X153554634Y-137628099D01*
X153622196Y-137710939D01*
X153689074Y-137794118D01*
X153692120Y-137796674D01*
X153694637Y-137799760D01*
X153776958Y-137867862D01*
X153858762Y-137936504D01*
X153862250Y-137938421D01*
X153865316Y-137940958D01*
X153959265Y-137991756D01*
X154052876Y-138043219D01*
X154056670Y-138044422D01*
X154060170Y-138046315D01*
X154162161Y-138077886D01*
X154264020Y-138110198D01*
X154267978Y-138110642D01*
X154271777Y-138111818D01*
X154377980Y-138122980D01*
X154484153Y-138134889D01*
X154491796Y-138134943D01*
X154492076Y-138134972D01*
X154492357Y-138134946D01*
X154500000Y-138135000D01*
X163500000Y-138135000D01*
X163606323Y-138124575D01*
X163712678Y-138114896D01*
X163716496Y-138113772D01*
X163720456Y-138113384D01*
X163822708Y-138082513D01*
X163925178Y-138052354D01*
X163928704Y-138050511D01*
X163932515Y-138049360D01*
X164026886Y-137999182D01*
X164121484Y-137949727D01*
X164124582Y-137947236D01*
X164128099Y-137945366D01*
X164210939Y-137877804D01*
X164294118Y-137810926D01*
X164296674Y-137807880D01*
X164299760Y-137805363D01*
X164367862Y-137723042D01*
X164436504Y-137641238D01*
X164438421Y-137637750D01*
X164440958Y-137634684D01*
X164491756Y-137540735D01*
X164543219Y-137447124D01*
X164544422Y-137443330D01*
X164546315Y-137439830D01*
X164577886Y-137337839D01*
X164610198Y-137235980D01*
X164610642Y-137232022D01*
X164611818Y-137228223D01*
X164622980Y-137122020D01*
X164634889Y-137015847D01*
X164634943Y-137008204D01*
X164634972Y-137007924D01*
X164634946Y-137007643D01*
X164635000Y-137000000D01*
X164635000Y-127252686D01*
X181788322Y-127252686D01*
X181811569Y-127538573D01*
X181807528Y-127828010D01*
X181857044Y-128097804D01*
X181879085Y-128368849D01*
X181956985Y-128642340D01*
X182008786Y-128924580D01*
X182110687Y-129181952D01*
X182185857Y-129445858D01*
X182314492Y-129696704D01*
X182419203Y-129961175D01*
X182570510Y-130195958D01*
X182696848Y-130442325D01*
X182804978Y-130604152D01*
X182868862Y-130658909D01*
X183023146Y-130898311D01*
X183797611Y-131700293D01*
X184175467Y-131962910D01*
X184245848Y-132045022D01*
X184485705Y-132178530D01*
X184713098Y-132336573D01*
X184975954Y-132451412D01*
X185224329Y-132589662D01*
X185483274Y-132673055D01*
X185734738Y-132782917D01*
X186017345Y-132845052D01*
X186290263Y-132932945D01*
X186558057Y-132963935D01*
X186823617Y-133022322D01*
X187115419Y-133028435D01*
X187402686Y-133061678D01*
X187668916Y-133040029D01*
X187938258Y-133045671D01*
X188228165Y-132994553D01*
X188518849Y-132970915D01*
X188773369Y-132898418D01*
X189036206Y-132852073D01*
X189313003Y-132744711D01*
X189595858Y-132664143D01*
X189829148Y-132544511D01*
X190075641Y-132448903D01*
X190328430Y-132288478D01*
X190592325Y-132153152D01*
X190754152Y-132045022D01*
X190804363Y-131986442D01*
X191016970Y-131851517D01*
X191824340Y-131082670D01*
X192111238Y-130675966D01*
X192195022Y-130604152D01*
X192318930Y-130381543D01*
X192466996Y-130171646D01*
X192591838Y-129891247D01*
X192739662Y-129625671D01*
X192817004Y-129385516D01*
X192920461Y-129153147D01*
X192989018Y-128851390D01*
X193082945Y-128559737D01*
X193111665Y-128311559D01*
X193167462Y-128065967D01*
X193171219Y-127796937D01*
X193211678Y-127447314D01*
X193181314Y-127073915D01*
X193185243Y-126792557D01*
X193139753Y-126562818D01*
X193120915Y-126331151D01*
X193032238Y-126019827D01*
X192968694Y-125698904D01*
X192878492Y-125480058D01*
X192814143Y-125254142D01*
X192667555Y-124968285D01*
X192543844Y-124668140D01*
X192411467Y-124468896D01*
X192303152Y-124257675D01*
X192216825Y-124128478D01*
X202309302Y-124128478D01*
X202358467Y-124840839D01*
X202348392Y-125562385D01*
X202444352Y-126085227D01*
X202480670Y-126611449D01*
X202666436Y-127295270D01*
X202795692Y-127999529D01*
X202993427Y-128498951D01*
X203133149Y-129013279D01*
X203446324Y-129642837D01*
X203707850Y-130303377D01*
X204001839Y-130759558D01*
X204241664Y-131241666D01*
X204654476Y-131859483D01*
X204817829Y-132025728D01*
X205050122Y-132386176D01*
X206771382Y-134168593D01*
X207387145Y-134596560D01*
X207640517Y-134845524D01*
X208236462Y-135186851D01*
X208806068Y-135582737D01*
X209318699Y-135806700D01*
X209800239Y-136082501D01*
X210446141Y-136299267D01*
X211076679Y-136574742D01*
X211628491Y-136696066D01*
X212159785Y-136874369D01*
X212830144Y-136960266D01*
X213496727Y-137106824D01*
X214067160Y-137118773D01*
X214628478Y-137190698D01*
X215297269Y-137144540D01*
X215974035Y-137158716D01*
X216541410Y-137058673D01*
X217111449Y-137019330D01*
X217753106Y-136845018D01*
X218414242Y-136728442D01*
X218918260Y-136532946D01*
X222103687Y-136532946D01*
X222113043Y-136616189D01*
X222111865Y-136700537D01*
X222139359Y-136850339D01*
X222156158Y-136999811D01*
X222181261Y-137078646D01*
X222196298Y-137160576D01*
X222252755Y-137303170D01*
X222298703Y-137447468D01*
X222341838Y-137528168D01*
X222368478Y-137595453D01*
X222423135Y-137680265D01*
X222489234Y-137803927D01*
X222510199Y-137815362D01*
X222621847Y-137988606D01*
X222946755Y-138325057D01*
X223185156Y-138490750D01*
X223196073Y-138510766D01*
X223265872Y-138546850D01*
X223330825Y-138591993D01*
X223475259Y-138655095D01*
X223613409Y-138726513D01*
X223687904Y-138747997D01*
X223759428Y-138779245D01*
X223914411Y-138813320D01*
X224064815Y-138856696D01*
X224141030Y-138863146D01*
X224216240Y-138879682D01*
X224375960Y-138883028D01*
X224532946Y-138896313D01*
X224607923Y-138887886D01*
X224683860Y-138889477D01*
X224842224Y-138861553D01*
X224999811Y-138843842D01*
X225070717Y-138821264D01*
X225144477Y-138808258D01*
X225295395Y-138749721D01*
X225447468Y-138701297D01*
X225519493Y-138662799D01*
X225580546Y-138639118D01*
X225669972Y-138582366D01*
X225803927Y-138510766D01*
X225815113Y-138490256D01*
X225975457Y-138388499D01*
X226314169Y-138065949D01*
X226491649Y-137814354D01*
X226510766Y-137803927D01*
X226543029Y-137741518D01*
X226583779Y-137683751D01*
X226651350Y-137531985D01*
X226726513Y-137386591D01*
X226745691Y-137320091D01*
X226774019Y-137256466D01*
X226811064Y-137093412D01*
X226856696Y-136935185D01*
X226862444Y-136867264D01*
X226877643Y-136800366D01*
X226879527Y-136665399D01*
X226896313Y-136467054D01*
X226883846Y-136356124D01*
X226885102Y-136266139D01*
X226858807Y-136133338D01*
X226843842Y-136000189D01*
X226813698Y-135905523D01*
X226794254Y-135807324D01*
X226742263Y-135681185D01*
X226701297Y-135552532D01*
X226648604Y-135453950D01*
X226616019Y-135374893D01*
X226566546Y-135300429D01*
X226510766Y-135196073D01*
X226489508Y-135184478D01*
X226357185Y-134985316D01*
X226027612Y-134653434D01*
X225815423Y-134510311D01*
X225803927Y-134489234D01*
X225719362Y-134445517D01*
X225639852Y-134391887D01*
X225510180Y-134337378D01*
X225386591Y-134273487D01*
X225296124Y-134247397D01*
X225208676Y-134210637D01*
X225069842Y-134182138D01*
X224935185Y-134143304D01*
X224842406Y-134135452D01*
X224750507Y-134116588D01*
X224607719Y-134115591D01*
X224467054Y-134103687D01*
X224375555Y-134113971D01*
X224282795Y-134113323D01*
X224141507Y-134140275D01*
X224000189Y-134156158D01*
X223913435Y-134183783D01*
X223823357Y-134200966D01*
X223689019Y-134255242D01*
X223552532Y-134298703D01*
X223462991Y-134346564D01*
X223389693Y-134376178D01*
X223309905Y-134428390D01*
X223196073Y-134489234D01*
X223184500Y-134510452D01*
X222998319Y-134632285D01*
X222664144Y-134959534D01*
X222509900Y-135184801D01*
X222489234Y-135196073D01*
X222449332Y-135273259D01*
X222399896Y-135345458D01*
X222341147Y-135482528D01*
X222273487Y-135613409D01*
X222249700Y-135695891D01*
X222215640Y-135775358D01*
X222184412Y-135922274D01*
X222143304Y-136064815D01*
X222136153Y-136149316D01*
X222118395Y-136232860D01*
X222116283Y-136384104D01*
X222103687Y-136532946D01*
X218918260Y-136532946D01*
X218956577Y-136518084D01*
X219513279Y-136366851D01*
X220103706Y-136073142D01*
X220724402Y-135832390D01*
X221220250Y-135517715D01*
X221741666Y-135258336D01*
X222359483Y-134845524D01*
X222505431Y-134702114D01*
X222816521Y-134504691D01*
X224610911Y-132795916D01*
X225083082Y-132126571D01*
X225345524Y-131859483D01*
X225665115Y-131301488D01*
X226039225Y-130771153D01*
X226284890Y-130219380D01*
X226582501Y-129699761D01*
X226785348Y-129095333D01*
X227047058Y-128507523D01*
X227182107Y-127913102D01*
X227374369Y-127340215D01*
X227454705Y-126713257D01*
X227596022Y-126091248D01*
X227603558Y-125551583D01*
X227690698Y-124871522D01*
X227626119Y-123935830D01*
X227635541Y-123261074D01*
X227549590Y-122826988D01*
X227519330Y-122388551D01*
X227310745Y-121620734D01*
X227154258Y-120830413D01*
X226983506Y-120416138D01*
X226866851Y-119986721D01*
X226514895Y-119279204D01*
X226210022Y-118539526D01*
X225958980Y-118161677D01*
X225758336Y-117758334D01*
X225345524Y-117140517D01*
X225144803Y-116936242D01*
X224838800Y-116475671D01*
X223092821Y-114717460D01*
X222581301Y-114372436D01*
X222359483Y-114154476D01*
X221687892Y-113769824D01*
X221038589Y-113331863D01*
X220605000Y-113149599D01*
X220199761Y-112917499D01*
X219471190Y-112672989D01*
X218754349Y-112371657D01*
X218288160Y-112275962D01*
X217840215Y-112125631D01*
X217083335Y-112028647D01*
X216327107Y-111873416D01*
X215845647Y-111870055D01*
X215371522Y-111809302D01*
X214615690Y-111861468D01*
X213849317Y-111856117D01*
X213370903Y-111947379D01*
X212888551Y-111980670D01*
X212162671Y-112177862D01*
X211415355Y-112320420D01*
X210958618Y-112504954D01*
X210486721Y-112633149D01*
X209818126Y-112965743D01*
X209117931Y-113248640D01*
X208701082Y-113521418D01*
X208258334Y-113741664D01*
X207640517Y-114154476D01*
X207454801Y-114336961D01*
X207044553Y-114605420D01*
X205274196Y-116339082D01*
X204888561Y-116902288D01*
X204654476Y-117140517D01*
X204291459Y-117774333D01*
X203874292Y-118383590D01*
X203671463Y-118856827D01*
X203417499Y-119300239D01*
X203186843Y-119987530D01*
X202898163Y-120661071D01*
X202789957Y-121170139D01*
X202625631Y-121659785D01*
X202534184Y-122373454D01*
X202382988Y-123084775D01*
X202375644Y-123610734D01*
X202309302Y-124128478D01*
X192216825Y-124128478D01*
X192195022Y-124095848D01*
X192122070Y-124033318D01*
X191926876Y-123739528D01*
X191141289Y-122948438D01*
X190819845Y-122731621D01*
X190754152Y-122654978D01*
X190479897Y-122502323D01*
X190217007Y-122325001D01*
X189989552Y-122229388D01*
X189775671Y-122110338D01*
X189479237Y-122014872D01*
X189189234Y-121892966D01*
X188945092Y-121842851D01*
X188709737Y-121767055D01*
X188402813Y-121731537D01*
X188097120Y-121668787D01*
X187845384Y-121667029D01*
X187597314Y-121638322D01*
X187291814Y-121663164D01*
X186982261Y-121661003D01*
X186732513Y-121708645D01*
X186481151Y-121729085D01*
X186188731Y-121812377D01*
X185887122Y-121869912D01*
X185649061Y-121966095D01*
X185404142Y-122035857D01*
X185135776Y-122173476D01*
X184853418Y-122287556D01*
X184636479Y-122429516D01*
X184407675Y-122546848D01*
X184245848Y-122654978D01*
X184186976Y-122723663D01*
X183920521Y-122898026D01*
X183123966Y-123678071D01*
X182884691Y-124027524D01*
X182804978Y-124095848D01*
X182661886Y-124352922D01*
X182494092Y-124597979D01*
X182388996Y-124843187D01*
X182260338Y-125074329D01*
X182170902Y-125352038D01*
X182054892Y-125622710D01*
X181998904Y-125886112D01*
X181917055Y-126140263D01*
X181883799Y-126427639D01*
X181823094Y-126713233D01*
X181819299Y-126985002D01*
X181788322Y-127252686D01*
X164635000Y-127252686D01*
X164635000Y-126000000D01*
X164624575Y-125893677D01*
X164614896Y-125787322D01*
X164613772Y-125783504D01*
X164613384Y-125779544D01*
X164582513Y-125677292D01*
X164552354Y-125574822D01*
X164550511Y-125571296D01*
X164549360Y-125567485D01*
X164499182Y-125473114D01*
X164449727Y-125378516D01*
X164447236Y-125375418D01*
X164445366Y-125371901D01*
X164377804Y-125289061D01*
X164310926Y-125205882D01*
X164307880Y-125203326D01*
X164305363Y-125200240D01*
X164223042Y-125132138D01*
X164141238Y-125063496D01*
X164137750Y-125061579D01*
X164134684Y-125059042D01*
X164040735Y-125008244D01*
X163947124Y-124956781D01*
X163943330Y-124955578D01*
X163939830Y-124953685D01*
X163837839Y-124922114D01*
X163735980Y-124889802D01*
X163732022Y-124889358D01*
X163728223Y-124888182D01*
X163622020Y-124877020D01*
X163515847Y-124865111D01*
X163508204Y-124865057D01*
X163507924Y-124865028D01*
X163507643Y-124865054D01*
X163500000Y-124865000D01*
X154500000Y-124865000D01*
X154393677Y-124875425D01*
X154287322Y-124885104D01*
X154283504Y-124886228D01*
X154279544Y-124886616D01*
X154177292Y-124917487D01*
X154074822Y-124947646D01*
X154071296Y-124949489D01*
X154067485Y-124950640D01*
X153973114Y-125000818D01*
X153878516Y-125050273D01*
X153875418Y-125052764D01*
X153871901Y-125054634D01*
X153789061Y-125122196D01*
X153705882Y-125189074D01*
X153703326Y-125192120D01*
X153700240Y-125194637D01*
X153632138Y-125276958D01*
X153563496Y-125358762D01*
X153561579Y-125362250D01*
X153559042Y-125365316D01*
X153508244Y-125459265D01*
X153456781Y-125552876D01*
X153455578Y-125556670D01*
X153453685Y-125560170D01*
X153422114Y-125662161D01*
X153389802Y-125764020D01*
X153389358Y-125767978D01*
X153388182Y-125771777D01*
X153377020Y-125877980D01*
X153365111Y-125984153D01*
X153365057Y-125991796D01*
X153365028Y-125992076D01*
X153365054Y-125992357D01*
X153365000Y-126000000D01*
X136635000Y-126000000D01*
X136635000Y-114000000D01*
X136627000Y-113918409D01*
X136627000Y-112532946D01*
X203103687Y-112532946D01*
X203113043Y-112616189D01*
X203111865Y-112700537D01*
X203139359Y-112850339D01*
X203156158Y-112999811D01*
X203181261Y-113078646D01*
X203196298Y-113160576D01*
X203252755Y-113303170D01*
X203298703Y-113447468D01*
X203341838Y-113528168D01*
X203368478Y-113595453D01*
X203423135Y-113680265D01*
X203489234Y-113803927D01*
X203510199Y-113815362D01*
X203621847Y-113988606D01*
X203946755Y-114325057D01*
X204185156Y-114490750D01*
X204196073Y-114510766D01*
X204265872Y-114546850D01*
X204330825Y-114591993D01*
X204475259Y-114655095D01*
X204613409Y-114726513D01*
X204687904Y-114747997D01*
X204759428Y-114779245D01*
X204914411Y-114813320D01*
X205064815Y-114856696D01*
X205141030Y-114863146D01*
X205216240Y-114879682D01*
X205375960Y-114883028D01*
X205532946Y-114896313D01*
X205607923Y-114887886D01*
X205683860Y-114889477D01*
X205842224Y-114861553D01*
X205999811Y-114843842D01*
X206070717Y-114821264D01*
X206144477Y-114808258D01*
X206295395Y-114749721D01*
X206447468Y-114701297D01*
X206519493Y-114662799D01*
X206580546Y-114639118D01*
X206669972Y-114582366D01*
X206803927Y-114510766D01*
X206815113Y-114490256D01*
X206975457Y-114388499D01*
X207314169Y-114065949D01*
X207491649Y-113814354D01*
X207510766Y-113803927D01*
X207543029Y-113741518D01*
X207583779Y-113683751D01*
X207651350Y-113531985D01*
X207726513Y-113386591D01*
X207745691Y-113320091D01*
X207774019Y-113256466D01*
X207811064Y-113093412D01*
X207856696Y-112935185D01*
X207862444Y-112867264D01*
X207877643Y-112800366D01*
X207879527Y-112665399D01*
X207896313Y-112467054D01*
X207883846Y-112356124D01*
X207885102Y-112266139D01*
X207858807Y-112133338D01*
X207843842Y-112000189D01*
X207813698Y-111905523D01*
X207794254Y-111807324D01*
X207742263Y-111681185D01*
X207701297Y-111552532D01*
X207648604Y-111453950D01*
X207616019Y-111374893D01*
X207566546Y-111300429D01*
X207510766Y-111196073D01*
X207489508Y-111184478D01*
X207357185Y-110985316D01*
X207027612Y-110653434D01*
X206815423Y-110510311D01*
X206803927Y-110489234D01*
X206719362Y-110445517D01*
X206639852Y-110391887D01*
X206510180Y-110337378D01*
X206386591Y-110273487D01*
X206296124Y-110247397D01*
X206208676Y-110210637D01*
X206069842Y-110182138D01*
X205935185Y-110143304D01*
X205842406Y-110135452D01*
X205750507Y-110116588D01*
X205607719Y-110115591D01*
X205467054Y-110103687D01*
X205375555Y-110113971D01*
X205282795Y-110113323D01*
X205141507Y-110140275D01*
X205000189Y-110156158D01*
X204913435Y-110183783D01*
X204823357Y-110200966D01*
X204689019Y-110255242D01*
X204552532Y-110298703D01*
X204462991Y-110346564D01*
X204389693Y-110376178D01*
X204309905Y-110428390D01*
X204196073Y-110489234D01*
X204184500Y-110510452D01*
X203998319Y-110632285D01*
X203664144Y-110959534D01*
X203509900Y-111184801D01*
X203489234Y-111196073D01*
X203449332Y-111273259D01*
X203399896Y-111345458D01*
X203341147Y-111482528D01*
X203273487Y-111613409D01*
X203249700Y-111695891D01*
X203215640Y-111775358D01*
X203184412Y-111922274D01*
X203143304Y-112064815D01*
X203136153Y-112149316D01*
X203118395Y-112232860D01*
X203116283Y-112384104D01*
X203103687Y-112532946D01*
X136627000Y-112532946D01*
X136627000Y-109592731D01*
X136634841Y-109522828D01*
X136635000Y-109500000D01*
X136635000Y-101562129D01*
X136676766Y-101464682D01*
X136679772Y-101450537D01*
X137611865Y-101450537D01*
X137696298Y-101910576D01*
X137868478Y-102345453D01*
X138121847Y-102738606D01*
X138446755Y-103075057D01*
X138830825Y-103341993D01*
X139259428Y-103529245D01*
X139716240Y-103629682D01*
X140183860Y-103639477D01*
X140644477Y-103558258D01*
X141080546Y-103389118D01*
X141475457Y-103138499D01*
X141814169Y-102815949D01*
X142083779Y-102433751D01*
X142274019Y-102006466D01*
X142377643Y-101550366D01*
X142379036Y-101450537D01*
X232611865Y-101450537D01*
X232696298Y-101910576D01*
X232868478Y-102345453D01*
X233121847Y-102738606D01*
X233446755Y-103075057D01*
X233830825Y-103341993D01*
X234259428Y-103529245D01*
X234716240Y-103629682D01*
X235183860Y-103639477D01*
X235644477Y-103558258D01*
X236080546Y-103389118D01*
X236475457Y-103138499D01*
X236814169Y-102815949D01*
X237083779Y-102433751D01*
X237274019Y-102006466D01*
X237377643Y-101550366D01*
X237385102Y-101016139D01*
X237294254Y-100557324D01*
X237116019Y-100124893D01*
X236857185Y-99735316D01*
X236527612Y-99403434D01*
X236139852Y-99141887D01*
X235708676Y-98960637D01*
X235250507Y-98866588D01*
X234782795Y-98863323D01*
X234323357Y-98950966D01*
X233889693Y-99126178D01*
X233498319Y-99382285D01*
X233164144Y-99709534D01*
X232899896Y-100095458D01*
X232715640Y-100525358D01*
X232618395Y-100982860D01*
X232611865Y-101450537D01*
X142379036Y-101450537D01*
X142385102Y-101016139D01*
X142294254Y-100557324D01*
X142116019Y-100124893D01*
X141857185Y-99735316D01*
X141527612Y-99403434D01*
X141139852Y-99141887D01*
X140708676Y-98960637D01*
X140250507Y-98866588D01*
X139782795Y-98863323D01*
X139323357Y-98950966D01*
X138889693Y-99126178D01*
X138498319Y-99382285D01*
X138164144Y-99709534D01*
X137899896Y-100095458D01*
X137715640Y-100525358D01*
X137618395Y-100982860D01*
X137611865Y-101450537D01*
X136679772Y-101450537D01*
X136705575Y-101329143D01*
X136706611Y-101319284D01*
X136775998Y-100611630D01*
X136961392Y-99997576D01*
X137262525Y-99431227D01*
X137667928Y-98934152D01*
X138162159Y-98525288D01*
X138726389Y-98220210D01*
X139339137Y-98030533D01*
X140046291Y-97956207D01*
X140052673Y-97954897D01*
X140140324Y-97945995D01*
X140272838Y-97905484D01*
X140311042Y-97885000D01*
X157750000Y-97885000D01*
X157831591Y-97877000D01*
X162157269Y-97877000D01*
X162227172Y-97884841D01*
X162227172Y-97884841D01*
G37*
X162227172Y-97884841D02*
X162250000Y-97885000D01*
X212750000Y-97885000D01*
X212831591Y-97877000D01*
X217157269Y-97877000D01*
X217227172Y-97884841D01*
X217250000Y-97885000D01*
X234687871Y-97885000D01*
X234785318Y-97926766D01*
X234920857Y-97955575D01*
X234930716Y-97956611D01*
X235638370Y-98025998D01*
X236252424Y-98211392D01*
X236818773Y-98512525D01*
X237315848Y-98917928D01*
X237724712Y-99412159D01*
X238029790Y-99976389D01*
X238219467Y-100589137D01*
X238290000Y-101260204D01*
X238290000Y-146215280D01*
X238224004Y-146888366D01*
X238038607Y-147502428D01*
X237737474Y-148068775D01*
X237332071Y-148565847D01*
X236837842Y-148974710D01*
X236273611Y-149279790D01*
X235660862Y-149469467D01*
X234989787Y-149540000D01*
X140034720Y-149540000D01*
X139361634Y-149474004D01*
X138747572Y-149288607D01*
X138181225Y-148987474D01*
X137684153Y-148582071D01*
X137275290Y-148087842D01*
X136970210Y-147523611D01*
X136780533Y-146910862D01*
X136732151Y-146450537D01*
X137611865Y-146450537D01*
X137696298Y-146910576D01*
X137868478Y-147345453D01*
X138121847Y-147738606D01*
X138446755Y-148075057D01*
X138830825Y-148341993D01*
X139259428Y-148529245D01*
X139716240Y-148629682D01*
X140183860Y-148639477D01*
X140644477Y-148558258D01*
X141080546Y-148389118D01*
X141475457Y-148138499D01*
X141814169Y-147815949D01*
X142083779Y-147433751D01*
X142274019Y-147006466D01*
X142377643Y-146550366D01*
X142379036Y-146450537D01*
X232611865Y-146450537D01*
X232696298Y-146910576D01*
X232868478Y-147345453D01*
X233121847Y-147738606D01*
X233446755Y-148075057D01*
X233830825Y-148341993D01*
X234259428Y-148529245D01*
X234716240Y-148629682D01*
X235183860Y-148639477D01*
X235644477Y-148558258D01*
X236080546Y-148389118D01*
X236475457Y-148138499D01*
X236814169Y-147815949D01*
X237083779Y-147433751D01*
X237274019Y-147006466D01*
X237377643Y-146550366D01*
X237385102Y-146016139D01*
X237294254Y-145557324D01*
X237116019Y-145124893D01*
X236857185Y-144735316D01*
X236527612Y-144403434D01*
X236139852Y-144141887D01*
X235708676Y-143960637D01*
X235250507Y-143866588D01*
X234782795Y-143863323D01*
X234323357Y-143950966D01*
X233889693Y-144126178D01*
X233498319Y-144382285D01*
X233164144Y-144709534D01*
X232899896Y-145095458D01*
X232715640Y-145525358D01*
X232618395Y-145982860D01*
X232611865Y-146450537D01*
X142379036Y-146450537D01*
X142385102Y-146016139D01*
X142294254Y-145557324D01*
X142116019Y-145124893D01*
X141857185Y-144735316D01*
X141527612Y-144403434D01*
X141139852Y-144141887D01*
X140708676Y-143960637D01*
X140250507Y-143866588D01*
X139782795Y-143863323D01*
X139323357Y-143950966D01*
X138889693Y-144126178D01*
X138498319Y-144382285D01*
X138164144Y-144709534D01*
X137899896Y-145095458D01*
X137715640Y-145525358D01*
X137618395Y-145982860D01*
X137611865Y-146450537D01*
X136732151Y-146450537D01*
X136706208Y-146203709D01*
X136704896Y-146197318D01*
X136695995Y-146109676D01*
X136655484Y-145977161D01*
X136635000Y-145938957D01*
X136635000Y-138000000D01*
X136627000Y-137918409D01*
X136627000Y-133592731D01*
X136634841Y-133522828D01*
X136635000Y-133500000D01*
X136635000Y-126000000D01*
X153365000Y-126000000D01*
X153365000Y-137000000D01*
X153375425Y-137106323D01*
X153385104Y-137212678D01*
X153386228Y-137216496D01*
X153386616Y-137220456D01*
X153417487Y-137322708D01*
X153447646Y-137425178D01*
X153449489Y-137428704D01*
X153450640Y-137432515D01*
X153500818Y-137526886D01*
X153550273Y-137621484D01*
X153552764Y-137624582D01*
X153554634Y-137628099D01*
X153622196Y-137710939D01*
X153689074Y-137794118D01*
X153692120Y-137796674D01*
X153694637Y-137799760D01*
X153776958Y-137867862D01*
X153858762Y-137936504D01*
X153862250Y-137938421D01*
X153865316Y-137940958D01*
X153959265Y-137991756D01*
X154052876Y-138043219D01*
X154056670Y-138044422D01*
X154060170Y-138046315D01*
X154162161Y-138077886D01*
X154264020Y-138110198D01*
X154267978Y-138110642D01*
X154271777Y-138111818D01*
X154377980Y-138122980D01*
X154484153Y-138134889D01*
X154491796Y-138134943D01*
X154492076Y-138134972D01*
X154492357Y-138134946D01*
X154500000Y-138135000D01*
X163500000Y-138135000D01*
X163606323Y-138124575D01*
X163712678Y-138114896D01*
X163716496Y-138113772D01*
X163720456Y-138113384D01*
X163822708Y-138082513D01*
X163925178Y-138052354D01*
X163928704Y-138050511D01*
X163932515Y-138049360D01*
X164026886Y-137999182D01*
X164121484Y-137949727D01*
X164124582Y-137947236D01*
X164128099Y-137945366D01*
X164210939Y-137877804D01*
X164294118Y-137810926D01*
X164296674Y-137807880D01*
X164299760Y-137805363D01*
X164367862Y-137723042D01*
X164436504Y-137641238D01*
X164438421Y-137637750D01*
X164440958Y-137634684D01*
X164491756Y-137540735D01*
X164543219Y-137447124D01*
X164544422Y-137443330D01*
X164546315Y-137439830D01*
X164577886Y-137337839D01*
X164610198Y-137235980D01*
X164610642Y-137232022D01*
X164611818Y-137228223D01*
X164622980Y-137122020D01*
X164634889Y-137015847D01*
X164634943Y-137008204D01*
X164634972Y-137007924D01*
X164634946Y-137007643D01*
X164635000Y-137000000D01*
X164635000Y-127252686D01*
X181788322Y-127252686D01*
X181811569Y-127538573D01*
X181807528Y-127828010D01*
X181857044Y-128097804D01*
X181879085Y-128368849D01*
X181956985Y-128642340D01*
X182008786Y-128924580D01*
X182110687Y-129181952D01*
X182185857Y-129445858D01*
X182314492Y-129696704D01*
X182419203Y-129961175D01*
X182570510Y-130195958D01*
X182696848Y-130442325D01*
X182804978Y-130604152D01*
X182868862Y-130658909D01*
X183023146Y-130898311D01*
X183797611Y-131700293D01*
X184175467Y-131962910D01*
X184245848Y-132045022D01*
X184485705Y-132178530D01*
X184713098Y-132336573D01*
X184975954Y-132451412D01*
X185224329Y-132589662D01*
X185483274Y-132673055D01*
X185734738Y-132782917D01*
X186017345Y-132845052D01*
X186290263Y-132932945D01*
X186558057Y-132963935D01*
X186823617Y-133022322D01*
X187115419Y-133028435D01*
X187402686Y-133061678D01*
X187668916Y-133040029D01*
X187938258Y-133045671D01*
X188228165Y-132994553D01*
X188518849Y-132970915D01*
X188773369Y-132898418D01*
X189036206Y-132852073D01*
X189313003Y-132744711D01*
X189595858Y-132664143D01*
X189829148Y-132544511D01*
X190075641Y-132448903D01*
X190328430Y-132288478D01*
X190592325Y-132153152D01*
X190754152Y-132045022D01*
X190804363Y-131986442D01*
X191016970Y-131851517D01*
X191824340Y-131082670D01*
X192111238Y-130675966D01*
X192195022Y-130604152D01*
X192318930Y-130381543D01*
X192466996Y-130171646D01*
X192591838Y-129891247D01*
X192739662Y-129625671D01*
X192817004Y-129385516D01*
X192920461Y-129153147D01*
X192989018Y-128851390D01*
X193082945Y-128559737D01*
X193111665Y-128311559D01*
X193167462Y-128065967D01*
X193171219Y-127796937D01*
X193211678Y-127447314D01*
X193181314Y-127073915D01*
X193185243Y-126792557D01*
X193139753Y-126562818D01*
X193120915Y-126331151D01*
X193032238Y-126019827D01*
X192968694Y-125698904D01*
X192878492Y-125480058D01*
X192814143Y-125254142D01*
X192667555Y-124968285D01*
X192543844Y-124668140D01*
X192411467Y-124468896D01*
X192303152Y-124257675D01*
X192216825Y-124128478D01*
X202309302Y-124128478D01*
X202358467Y-124840839D01*
X202348392Y-125562385D01*
X202444352Y-126085227D01*
X202480670Y-126611449D01*
X202666436Y-127295270D01*
X202795692Y-127999529D01*
X202993427Y-128498951D01*
X203133149Y-129013279D01*
X203446324Y-129642837D01*
X203707850Y-130303377D01*
X204001839Y-130759558D01*
X204241664Y-131241666D01*
X204654476Y-131859483D01*
X204817829Y-132025728D01*
X205050122Y-132386176D01*
X206771382Y-134168593D01*
X207387145Y-134596560D01*
X207640517Y-134845524D01*
X208236462Y-135186851D01*
X208806068Y-135582737D01*
X209318699Y-135806700D01*
X209800239Y-136082501D01*
X210446141Y-136299267D01*
X211076679Y-136574742D01*
X211628491Y-136696066D01*
X212159785Y-136874369D01*
X212830144Y-136960266D01*
X213496727Y-137106824D01*
X214067160Y-137118773D01*
X214628478Y-137190698D01*
X215297269Y-137144540D01*
X215974035Y-137158716D01*
X216541410Y-137058673D01*
X217111449Y-137019330D01*
X217753106Y-136845018D01*
X218414242Y-136728442D01*
X218918260Y-136532946D01*
X222103687Y-136532946D01*
X222113043Y-136616189D01*
X222111865Y-136700537D01*
X222139359Y-136850339D01*
X222156158Y-136999811D01*
X222181261Y-137078646D01*
X222196298Y-137160576D01*
X222252755Y-137303170D01*
X222298703Y-137447468D01*
X222341838Y-137528168D01*
X222368478Y-137595453D01*
X222423135Y-137680265D01*
X222489234Y-137803927D01*
X222510199Y-137815362D01*
X222621847Y-137988606D01*
X222946755Y-138325057D01*
X223185156Y-138490750D01*
X223196073Y-138510766D01*
X223265872Y-138546850D01*
X223330825Y-138591993D01*
X223475259Y-138655095D01*
X223613409Y-138726513D01*
X223687904Y-138747997D01*
X223759428Y-138779245D01*
X223914411Y-138813320D01*
X224064815Y-138856696D01*
X224141030Y-138863146D01*
X224216240Y-138879682D01*
X224375960Y-138883028D01*
X224532946Y-138896313D01*
X224607923Y-138887886D01*
X224683860Y-138889477D01*
X224842224Y-138861553D01*
X224999811Y-138843842D01*
X225070717Y-138821264D01*
X225144477Y-138808258D01*
X225295395Y-138749721D01*
X225447468Y-138701297D01*
X225519493Y-138662799D01*
X225580546Y-138639118D01*
X225669972Y-138582366D01*
X225803927Y-138510766D01*
X225815113Y-138490256D01*
X225975457Y-138388499D01*
X226314169Y-138065949D01*
X226491649Y-137814354D01*
X226510766Y-137803927D01*
X226543029Y-137741518D01*
X226583779Y-137683751D01*
X226651350Y-137531985D01*
X226726513Y-137386591D01*
X226745691Y-137320091D01*
X226774019Y-137256466D01*
X226811064Y-137093412D01*
X226856696Y-136935185D01*
X226862444Y-136867264D01*
X226877643Y-136800366D01*
X226879527Y-136665399D01*
X226896313Y-136467054D01*
X226883846Y-136356124D01*
X226885102Y-136266139D01*
X226858807Y-136133338D01*
X226843842Y-136000189D01*
X226813698Y-135905523D01*
X226794254Y-135807324D01*
X226742263Y-135681185D01*
X226701297Y-135552532D01*
X226648604Y-135453950D01*
X226616019Y-135374893D01*
X226566546Y-135300429D01*
X226510766Y-135196073D01*
X226489508Y-135184478D01*
X226357185Y-134985316D01*
X226027612Y-134653434D01*
X225815423Y-134510311D01*
X225803927Y-134489234D01*
X225719362Y-134445517D01*
X225639852Y-134391887D01*
X225510180Y-134337378D01*
X225386591Y-134273487D01*
X225296124Y-134247397D01*
X225208676Y-134210637D01*
X225069842Y-134182138D01*
X224935185Y-134143304D01*
X224842406Y-134135452D01*
X224750507Y-134116588D01*
X224607719Y-134115591D01*
X224467054Y-134103687D01*
X224375555Y-134113971D01*
X224282795Y-134113323D01*
X224141507Y-134140275D01*
X224000189Y-134156158D01*
X223913435Y-134183783D01*
X223823357Y-134200966D01*
X223689019Y-134255242D01*
X223552532Y-134298703D01*
X223462991Y-134346564D01*
X223389693Y-134376178D01*
X223309905Y-134428390D01*
X223196073Y-134489234D01*
X223184500Y-134510452D01*
X222998319Y-134632285D01*
X222664144Y-134959534D01*
X222509900Y-135184801D01*
X222489234Y-135196073D01*
X222449332Y-135273259D01*
X222399896Y-135345458D01*
X222341147Y-135482528D01*
X222273487Y-135613409D01*
X222249700Y-135695891D01*
X222215640Y-135775358D01*
X222184412Y-135922274D01*
X222143304Y-136064815D01*
X222136153Y-136149316D01*
X222118395Y-136232860D01*
X222116283Y-136384104D01*
X222103687Y-136532946D01*
X218918260Y-136532946D01*
X218956577Y-136518084D01*
X219513279Y-136366851D01*
X220103706Y-136073142D01*
X220724402Y-135832390D01*
X221220250Y-135517715D01*
X221741666Y-135258336D01*
X222359483Y-134845524D01*
X222505431Y-134702114D01*
X222816521Y-134504691D01*
X224610911Y-132795916D01*
X225083082Y-132126571D01*
X225345524Y-131859483D01*
X225665115Y-131301488D01*
X226039225Y-130771153D01*
X226284890Y-130219380D01*
X226582501Y-129699761D01*
X226785348Y-129095333D01*
X227047058Y-128507523D01*
X227182107Y-127913102D01*
X227374369Y-127340215D01*
X227454705Y-126713257D01*
X227596022Y-126091248D01*
X227603558Y-125551583D01*
X227690698Y-124871522D01*
X227626119Y-123935830D01*
X227635541Y-123261074D01*
X227549590Y-122826988D01*
X227519330Y-122388551D01*
X227310745Y-121620734D01*
X227154258Y-120830413D01*
X226983506Y-120416138D01*
X226866851Y-119986721D01*
X226514895Y-119279204D01*
X226210022Y-118539526D01*
X225958980Y-118161677D01*
X225758336Y-117758334D01*
X225345524Y-117140517D01*
X225144803Y-116936242D01*
X224838800Y-116475671D01*
X223092821Y-114717460D01*
X222581301Y-114372436D01*
X222359483Y-114154476D01*
X221687892Y-113769824D01*
X221038589Y-113331863D01*
X220605000Y-113149599D01*
X220199761Y-112917499D01*
X219471190Y-112672989D01*
X218754349Y-112371657D01*
X218288160Y-112275962D01*
X217840215Y-112125631D01*
X217083335Y-112028647D01*
X216327107Y-111873416D01*
X215845647Y-111870055D01*
X215371522Y-111809302D01*
X214615690Y-111861468D01*
X213849317Y-111856117D01*
X213370903Y-111947379D01*
X212888551Y-111980670D01*
X212162671Y-112177862D01*
X211415355Y-112320420D01*
X210958618Y-112504954D01*
X210486721Y-112633149D01*
X209818126Y-112965743D01*
X209117931Y-113248640D01*
X208701082Y-113521418D01*
X208258334Y-113741664D01*
X207640517Y-114154476D01*
X207454801Y-114336961D01*
X207044553Y-114605420D01*
X205274196Y-116339082D01*
X204888561Y-116902288D01*
X204654476Y-117140517D01*
X204291459Y-117774333D01*
X203874292Y-118383590D01*
X203671463Y-118856827D01*
X203417499Y-119300239D01*
X203186843Y-119987530D01*
X202898163Y-120661071D01*
X202789957Y-121170139D01*
X202625631Y-121659785D01*
X202534184Y-122373454D01*
X202382988Y-123084775D01*
X202375644Y-123610734D01*
X202309302Y-124128478D01*
X192216825Y-124128478D01*
X192195022Y-124095848D01*
X192122070Y-124033318D01*
X191926876Y-123739528D01*
X191141289Y-122948438D01*
X190819845Y-122731621D01*
X190754152Y-122654978D01*
X190479897Y-122502323D01*
X190217007Y-122325001D01*
X189989552Y-122229388D01*
X189775671Y-122110338D01*
X189479237Y-122014872D01*
X189189234Y-121892966D01*
X188945092Y-121842851D01*
X188709737Y-121767055D01*
X188402813Y-121731537D01*
X188097120Y-121668787D01*
X187845384Y-121667029D01*
X187597314Y-121638322D01*
X187291814Y-121663164D01*
X186982261Y-121661003D01*
X186732513Y-121708645D01*
X186481151Y-121729085D01*
X186188731Y-121812377D01*
X185887122Y-121869912D01*
X185649061Y-121966095D01*
X185404142Y-122035857D01*
X185135776Y-122173476D01*
X184853418Y-122287556D01*
X184636479Y-122429516D01*
X184407675Y-122546848D01*
X184245848Y-122654978D01*
X184186976Y-122723663D01*
X183920521Y-122898026D01*
X183123966Y-123678071D01*
X182884691Y-124027524D01*
X182804978Y-124095848D01*
X182661886Y-124352922D01*
X182494092Y-124597979D01*
X182388996Y-124843187D01*
X182260338Y-125074329D01*
X182170902Y-125352038D01*
X182054892Y-125622710D01*
X181998904Y-125886112D01*
X181917055Y-126140263D01*
X181883799Y-126427639D01*
X181823094Y-126713233D01*
X181819299Y-126985002D01*
X181788322Y-127252686D01*
X164635000Y-127252686D01*
X164635000Y-126000000D01*
X164624575Y-125893677D01*
X164614896Y-125787322D01*
X164613772Y-125783504D01*
X164613384Y-125779544D01*
X164582513Y-125677292D01*
X164552354Y-125574822D01*
X164550511Y-125571296D01*
X164549360Y-125567485D01*
X164499182Y-125473114D01*
X164449727Y-125378516D01*
X164447236Y-125375418D01*
X164445366Y-125371901D01*
X164377804Y-125289061D01*
X164310926Y-125205882D01*
X164307880Y-125203326D01*
X164305363Y-125200240D01*
X164223042Y-125132138D01*
X164141238Y-125063496D01*
X164137750Y-125061579D01*
X164134684Y-125059042D01*
X164040735Y-125008244D01*
X163947124Y-124956781D01*
X163943330Y-124955578D01*
X163939830Y-124953685D01*
X163837839Y-124922114D01*
X163735980Y-124889802D01*
X163732022Y-124889358D01*
X163728223Y-124888182D01*
X163622020Y-124877020D01*
X163515847Y-124865111D01*
X163508204Y-124865057D01*
X163507924Y-124865028D01*
X163507643Y-124865054D01*
X163500000Y-124865000D01*
X154500000Y-124865000D01*
X154393677Y-124875425D01*
X154287322Y-124885104D01*
X154283504Y-124886228D01*
X154279544Y-124886616D01*
X154177292Y-124917487D01*
X154074822Y-124947646D01*
X154071296Y-124949489D01*
X154067485Y-124950640D01*
X153973114Y-125000818D01*
X153878516Y-125050273D01*
X153875418Y-125052764D01*
X153871901Y-125054634D01*
X153789061Y-125122196D01*
X153705882Y-125189074D01*
X153703326Y-125192120D01*
X153700240Y-125194637D01*
X153632138Y-125276958D01*
X153563496Y-125358762D01*
X153561579Y-125362250D01*
X153559042Y-125365316D01*
X153508244Y-125459265D01*
X153456781Y-125552876D01*
X153455578Y-125556670D01*
X153453685Y-125560170D01*
X153422114Y-125662161D01*
X153389802Y-125764020D01*
X153389358Y-125767978D01*
X153388182Y-125771777D01*
X153377020Y-125877980D01*
X153365111Y-125984153D01*
X153365057Y-125991796D01*
X153365028Y-125992076D01*
X153365054Y-125992357D01*
X153365000Y-126000000D01*
X136635000Y-126000000D01*
X136635000Y-114000000D01*
X136627000Y-113918409D01*
X136627000Y-112532946D01*
X203103687Y-112532946D01*
X203113043Y-112616189D01*
X203111865Y-112700537D01*
X203139359Y-112850339D01*
X203156158Y-112999811D01*
X203181261Y-113078646D01*
X203196298Y-113160576D01*
X203252755Y-113303170D01*
X203298703Y-113447468D01*
X203341838Y-113528168D01*
X203368478Y-113595453D01*
X203423135Y-113680265D01*
X203489234Y-113803927D01*
X203510199Y-113815362D01*
X203621847Y-113988606D01*
X203946755Y-114325057D01*
X204185156Y-114490750D01*
X204196073Y-114510766D01*
X204265872Y-114546850D01*
X204330825Y-114591993D01*
X204475259Y-114655095D01*
X204613409Y-114726513D01*
X204687904Y-114747997D01*
X204759428Y-114779245D01*
X204914411Y-114813320D01*
X205064815Y-114856696D01*
X205141030Y-114863146D01*
X205216240Y-114879682D01*
X205375960Y-114883028D01*
X205532946Y-114896313D01*
X205607923Y-114887886D01*
X205683860Y-114889477D01*
X205842224Y-114861553D01*
X205999811Y-114843842D01*
X206070717Y-114821264D01*
X206144477Y-114808258D01*
X206295395Y-114749721D01*
X206447468Y-114701297D01*
X206519493Y-114662799D01*
X206580546Y-114639118D01*
X206669972Y-114582366D01*
X206803927Y-114510766D01*
X206815113Y-114490256D01*
X206975457Y-114388499D01*
X207314169Y-114065949D01*
X207491649Y-113814354D01*
X207510766Y-113803927D01*
X207543029Y-113741518D01*
X207583779Y-113683751D01*
X207651350Y-113531985D01*
X207726513Y-113386591D01*
X207745691Y-113320091D01*
X207774019Y-113256466D01*
X207811064Y-113093412D01*
X207856696Y-112935185D01*
X207862444Y-112867264D01*
X207877643Y-112800366D01*
X207879527Y-112665399D01*
X207896313Y-112467054D01*
X207883846Y-112356124D01*
X207885102Y-112266139D01*
X207858807Y-112133338D01*
X207843842Y-112000189D01*
X207813698Y-111905523D01*
X207794254Y-111807324D01*
X207742263Y-111681185D01*
X207701297Y-111552532D01*
X207648604Y-111453950D01*
X207616019Y-111374893D01*
X207566546Y-111300429D01*
X207510766Y-111196073D01*
X207489508Y-111184478D01*
X207357185Y-110985316D01*
X207027612Y-110653434D01*
X206815423Y-110510311D01*
X206803927Y-110489234D01*
X206719362Y-110445517D01*
X206639852Y-110391887D01*
X206510180Y-110337378D01*
X206386591Y-110273487D01*
X206296124Y-110247397D01*
X206208676Y-110210637D01*
X206069842Y-110182138D01*
X205935185Y-110143304D01*
X205842406Y-110135452D01*
X205750507Y-110116588D01*
X205607719Y-110115591D01*
X205467054Y-110103687D01*
X205375555Y-110113971D01*
X205282795Y-110113323D01*
X205141507Y-110140275D01*
X205000189Y-110156158D01*
X204913435Y-110183783D01*
X204823357Y-110200966D01*
X204689019Y-110255242D01*
X204552532Y-110298703D01*
X204462991Y-110346564D01*
X204389693Y-110376178D01*
X204309905Y-110428390D01*
X204196073Y-110489234D01*
X204184500Y-110510452D01*
X203998319Y-110632285D01*
X203664144Y-110959534D01*
X203509900Y-111184801D01*
X203489234Y-111196073D01*
X203449332Y-111273259D01*
X203399896Y-111345458D01*
X203341147Y-111482528D01*
X203273487Y-111613409D01*
X203249700Y-111695891D01*
X203215640Y-111775358D01*
X203184412Y-111922274D01*
X203143304Y-112064815D01*
X203136153Y-112149316D01*
X203118395Y-112232860D01*
X203116283Y-112384104D01*
X203103687Y-112532946D01*
X136627000Y-112532946D01*
X136627000Y-109592731D01*
X136634841Y-109522828D01*
X136635000Y-109500000D01*
X136635000Y-101562129D01*
X136676766Y-101464682D01*
X136679772Y-101450537D01*
X137611865Y-101450537D01*
X137696298Y-101910576D01*
X137868478Y-102345453D01*
X138121847Y-102738606D01*
X138446755Y-103075057D01*
X138830825Y-103341993D01*
X139259428Y-103529245D01*
X139716240Y-103629682D01*
X140183860Y-103639477D01*
X140644477Y-103558258D01*
X141080546Y-103389118D01*
X141475457Y-103138499D01*
X141814169Y-102815949D01*
X142083779Y-102433751D01*
X142274019Y-102006466D01*
X142377643Y-101550366D01*
X142379036Y-101450537D01*
X232611865Y-101450537D01*
X232696298Y-101910576D01*
X232868478Y-102345453D01*
X233121847Y-102738606D01*
X233446755Y-103075057D01*
X233830825Y-103341993D01*
X234259428Y-103529245D01*
X234716240Y-103629682D01*
X235183860Y-103639477D01*
X235644477Y-103558258D01*
X236080546Y-103389118D01*
X236475457Y-103138499D01*
X236814169Y-102815949D01*
X237083779Y-102433751D01*
X237274019Y-102006466D01*
X237377643Y-101550366D01*
X237385102Y-101016139D01*
X237294254Y-100557324D01*
X237116019Y-100124893D01*
X236857185Y-99735316D01*
X236527612Y-99403434D01*
X236139852Y-99141887D01*
X235708676Y-98960637D01*
X235250507Y-98866588D01*
X234782795Y-98863323D01*
X234323357Y-98950966D01*
X233889693Y-99126178D01*
X233498319Y-99382285D01*
X233164144Y-99709534D01*
X232899896Y-100095458D01*
X232715640Y-100525358D01*
X232618395Y-100982860D01*
X232611865Y-101450537D01*
X142379036Y-101450537D01*
X142385102Y-101016139D01*
X142294254Y-100557324D01*
X142116019Y-100124893D01*
X141857185Y-99735316D01*
X141527612Y-99403434D01*
X141139852Y-99141887D01*
X140708676Y-98960637D01*
X140250507Y-98866588D01*
X139782795Y-98863323D01*
X139323357Y-98950966D01*
X138889693Y-99126178D01*
X138498319Y-99382285D01*
X138164144Y-99709534D01*
X137899896Y-100095458D01*
X137715640Y-100525358D01*
X137618395Y-100982860D01*
X137611865Y-101450537D01*
X136679772Y-101450537D01*
X136705575Y-101329143D01*
X136706611Y-101319284D01*
X136775998Y-100611630D01*
X136961392Y-99997576D01*
X137262525Y-99431227D01*
X137667928Y-98934152D01*
X138162159Y-98525288D01*
X138726389Y-98220210D01*
X139339137Y-98030533D01*
X140046291Y-97956207D01*
X140052673Y-97954897D01*
X140140324Y-97945995D01*
X140272838Y-97905484D01*
X140311042Y-97885000D01*
X157750000Y-97885000D01*
X157831591Y-97877000D01*
X162157269Y-97877000D01*
X162227172Y-97884841D01*
G36*
X162365000Y-135865000D02*
X155635000Y-135865000D01*
X155635000Y-127135000D01*
X162365000Y-127135000D01*
X162365000Y-135865000D01*
X162365000Y-135865000D01*
G37*
X162365000Y-135865000D02*
X155635000Y-135865000D01*
X155635000Y-127135000D01*
X162365000Y-127135000D01*
X162365000Y-135865000D01*
M02*
