G04 #@! TF.FileFunction,Profile,NP*
%FSLAX46Y46*%
G04 Gerber Fmt 4.6, Leading zero omitted, Abs format (unit mm)*
G04 Created by KiCad (PCBNEW 4.0.7-e2-6376~58~ubuntu16.04.1) date Wed Jun  6 08:16:23 2018*
%MOMM*%
%LPD*%
G01*
G04 APERTURE LIST*
%ADD10C,0.100000*%
%ADD11C,2.000000*%
%ADD12C,1.000000*%
G04 APERTURE END LIST*
D10*
D11*
X135000000Y-146250000D02*
G75*
G03X140000000Y-151250000I5000000J0D01*
G01*
X235000000Y-151250000D02*
G75*
G03X240000000Y-146250000I0J5000000D01*
G01*
X240000000Y-46250000D02*
G75*
G03X235000000Y-41250000I-5000000J0D01*
G01*
X140000000Y-41250000D02*
G75*
G03X135000000Y-46250000I0J-5000000D01*
G01*
X135000000Y-91250000D02*
G75*
G03X140000000Y-96250000I5000000J0D01*
G01*
X140000000Y-96250000D02*
G75*
G03X135000000Y-101250000I0J-5000000D01*
G01*
X235000000Y-96250000D02*
G75*
G03X240000000Y-91250000I0J5000000D01*
G01*
X240000000Y-101250000D02*
G75*
G03X235000000Y-96250000I-5000000J0D01*
G01*
X135000000Y-41250000D02*
X240000000Y-41250000D01*
X240000000Y-41250000D02*
X240000000Y-151250000D01*
X33000000Y-29250000D02*
X33000000Y-151250000D01*
X135000000Y-29250000D02*
X33000000Y-29250000D01*
X135000000Y-54500000D02*
X135000000Y-29250000D01*
X135000000Y-78500000D02*
X135000000Y-59000000D01*
X33000000Y-151250000D02*
X240000000Y-151250000D01*
X217250000Y-96250000D02*
X240000000Y-96250000D01*
X162250000Y-96250000D02*
X212750000Y-96250000D01*
X135000000Y-96250000D02*
X157750000Y-96250000D01*
X135000000Y-109500000D02*
X135000000Y-83000000D01*
X135000000Y-133500000D02*
X135000000Y-114000000D01*
X135000000Y-151250000D02*
X135000000Y-138000000D01*
D12*
X154500000Y-137000000D02*
X163500000Y-137000000D01*
X163500000Y-137000000D02*
X163500000Y-126000000D01*
X163500000Y-126000000D02*
X154500000Y-126000000D01*
X154500000Y-126000000D02*
X154500000Y-137000000D01*
M02*
