M48
;DRILL file {KiCad 4.0.7-e2-6376~58~ubuntu16.04.1} date Wed Jun  6 08:21:45 2018
;FORMAT={-:-/ absolute / metric / decimal}
FMAT,2
METRIC,TZ
T1C0.300
T2C0.600
T3C0.700
T4C0.800
T5C0.800
T6C0.813
T7C0.998
T8C1.001
T9C1.100
T10C1.200
T11C1.270
T12C1.300
T13C1.778
T14C1.800
T15C3.200
T16C3.500
T17C1.000
T18C2.440
T19C3.000
T20C3.500
T21C6.500
T22C7.600
T23C10.100
T24C24.000
%
G90
G05
M71
T1
X134.5Y-56.
X134.5Y-56.75
X134.5Y-57.5
X134.5Y-80.
X134.5Y-80.75
X134.5Y-81.5
X134.5Y-111.
X134.5Y-111.75
X134.5Y-112.5
X134.5Y-135.
X134.5Y-135.75
X134.5Y-136.5
X135.5Y-56.
X135.5Y-56.75
X135.5Y-57.5
X135.5Y-80.
X135.5Y-80.75
X135.5Y-81.5
X135.5Y-111.
X135.5Y-111.75
X135.5Y-112.5
X135.5Y-135.
X135.5Y-135.75
X135.5Y-136.5
X159.25Y-95.75
X159.25Y-96.75
X160.Y-95.75
X160.Y-96.75
X160.75Y-95.75
X160.75Y-96.75
X214.25Y-95.75
X214.25Y-96.75
X215.Y-95.75
X215.Y-96.75
X215.75Y-95.75
X215.75Y-96.75
T2
X105.96Y-61.85
X107.23Y-61.85
X108.5Y-61.85
T3
X53.5Y-85.75
X56.Y-85.75
X63.5Y-74.5
X66.Y-74.5
X85.5Y-72.
X85.5Y-74.5
X95.25Y-60.75
X97.75Y-60.75
X102.2Y-58.05
X104.7Y-58.05
X114.375Y-79.375
X116.875Y-79.375
T4
X47.5Y-56.
X52.5Y-56.
X53.38Y-74.38
X53.38Y-76.92
X53.38Y-79.46
X53.38Y-82.
X54.Y-61.25
X59.Y-61.25
X60.5Y-56.
X61.Y-74.38
X61.Y-76.92
X61.Y-79.46
X61.Y-82.
X65.5Y-56.
X84.25Y-86.5
X84.25Y-89.
X85.25Y-60.75
X85.25Y-63.29
X85.25Y-65.83
X85.25Y-68.37
X89.1Y-81.65
X91.6Y-81.65
X92.87Y-60.75
X92.87Y-63.29
X92.87Y-65.83
X92.87Y-68.37
X98.5Y-87.5
X103.5Y-87.5
X106.25Y-94.
X106.295Y-87.375
X108.125Y-76.375
X108.75Y-94.
X108.835Y-87.375
X110.125Y-76.375
X111.375Y-87.375
X114.375Y-74.125
X116.875Y-74.125
T5
X84.25Y-92.5
X97.9Y-64.85
X101.9Y-40.65
X112.Y-61.95
T6
X104.17Y-82.
X106.71Y-82.
X109.25Y-82.
T7
X81.46Y-135.
X84.Y-135.
X86.54Y-135.
T8
X47.Y-76.75
X47.Y-86.91
X50.25Y-76.75
X50.25Y-86.91
X50.34Y-93.75
X53.5Y-70.
X59.5Y-66.75
X60.5Y-93.75
X63.66Y-70.
X65.Y-79.75
X65.Y-89.91
X68.5Y-79.84
X68.5Y-90.
X69.66Y-66.75
X78.5Y-60.75
X78.5Y-70.91
X82.Y-66.
X82.Y-76.16
X94.5Y-33.09
X94.5Y-43.25
X102.603Y-61.05
X105.9Y-66.25
X105.9Y-69.147
X114.128Y-82.375
X116.06Y-66.25
X117.125Y-82.465
X117.125Y-92.625
X121.96Y-138.5
X122.25Y-123.34
X122.25Y-133.5
X124.5Y-138.5
T9
X72.Y-47.75
X72.Y-62.75
T10
X79.Y-146.75
X84.Y-146.75
X89.Y-146.75
X103.75Y-49.75
X108.75Y-49.75
T11
X56.5Y-56.68
X102.603Y-71.21
X114.128Y-92.535
X116.06Y-69.147
T12
X77.65Y-47.71
X80.19Y-42.63
X84.Y-35.01
X87.81Y-47.71
X90.35Y-35.01
T13
X52.436Y-51.6
X56.5Y-51.6
X60.564Y-51.6
T14
X109.96Y-147.45
X112.5Y-127.13
X112.5Y-130.94
X112.5Y-134.75
X115.04Y-147.45
T15
X56.5Y-46.52
T16
X140.Y-46.25
X140.Y-91.25
X140.Y-101.25
X140.Y-146.25
X235.Y-46.25
X235.Y-91.25
X235.Y-101.25
X235.Y-146.25
T17
X227.Y-75.75
T18
X80.19Y-37.55
X84.Y-50.25
X87.81Y-37.55
T19
X180.Y-69.75
T20
X205.5Y-112.5
X224.5Y-136.5
T21
X216.Y-75.5
T22
X187.5Y-69.75
T23
X187.5Y-127.35
T24
X215.Y-124.5
T8
X107.801Y-36.451G85X107.801Y-38.45
G05
X113.499Y-34.451G85X111.501Y-34.451
G05
X113.499Y-40.45G85X111.501Y-40.45
G05
T0
M30
